<svg width="100" height="100" viewBox="0 0 100 100" fill="none" xmlns="http://www.w3.org/2000/svg">
<g id="Layer_1">
<path id="Vector" d="M3.90625 43.5344V56.4656H9.1625C10.1654 63.0789 12.7265 69.3589 16.6344 74.7875L12.9109 78.5734L21.9031 87.7172L25.625 83.9313C30.924 87.8896 37.1074 90.4975 43.6406 91.5297V96.875H56.3563V91.5297C62.8905 90.498 69.0751 87.89 74.375 83.9313L78.0984 87.7172L87.0906 78.5734L83.3672 74.7875C87.2751 69.3589 89.8361 63.0789 90.8391 56.4656H96.0938V43.5344H90.8375C89.8346 36.9211 87.2735 30.6411 83.3656 25.2125L87.0891 21.4266L78.0969 12.2828L74.375 16.0688C69.076 12.1104 62.8926 9.50245 56.3594 8.47031V3.125H43.6422V8.47031C37.1085 9.50221 30.9245 12.1102 25.625 16.0688L21.9031 12.2828L12.9109 21.4266L16.6344 25.2125C12.7265 30.6411 10.1654 36.9211 9.1625 43.5344H3.90625ZM56.9094 44.0031L64.5203 36.3922L66.7297 38.6016L60.7422 44.5891L64.2984 45.1328C64.5822 45.1763 64.8484 45.2971 65.068 45.482C65.2876 45.6669 65.452 45.9086 65.5432 46.1808C65.6344 46.4529 65.6489 46.745 65.585 47.0248C65.5212 47.3047 65.3815 47.5615 65.1812 47.7672L58.7 54.4094L60.2328 63.8078C60.2798 64.0971 60.2445 64.3937 60.1309 64.6638C60.0174 64.934 59.8302 65.1667 59.5906 65.3355C59.3511 65.5044 59.0689 65.6024 58.7763 65.6185C58.4838 65.6346 58.1925 65.5681 57.9359 65.4266L50 61.0422L42.0641 65.4297C41.8075 65.5712 41.5162 65.6377 41.2236 65.6216C40.9311 65.6055 40.6489 65.5075 40.4094 65.3387C40.1698 65.1699 39.9826 64.9371 39.869 64.667C39.7555 64.3968 39.7202 64.1002 39.7672 63.8109L41.3 54.4125L34.8188 47.7703C34.6185 47.5646 34.4788 47.3078 34.415 47.0279C34.3511 46.7481 34.3656 46.4561 34.4568 46.1839C34.548 45.9118 34.7124 45.67 34.932 45.4851C35.1516 45.3002 35.4178 45.1794 35.7016 45.1359L44.5938 43.7766L48.5938 35.2734C48.7199 35.005 48.9199 34.778 49.1703 34.6191C49.4207 34.4601 49.7112 34.3756 50.0078 34.3756C50.3044 34.3756 50.5949 34.4601 50.8453 34.6191C51.0957 34.778 51.2957 35.005 51.4219 35.2734L55.4141 43.7766L56.9094 44.0031ZM47.0734 21.25L44.375 19.2188L46.25 16.7188L52.5 21.4062C52.6941 21.5518 52.8516 21.7405 52.96 21.9575C53.0685 22.1744 53.125 22.4137 53.125 22.6562C53.125 22.8988 53.0685 23.1381 52.96 23.355C52.8516 23.572 52.6941 23.7607 52.5 23.9062L46.25 28.5937L44.375 26.0938L46.5625 24.45C41.1892 25.1137 36.1219 27.3148 31.9693 30.7887C27.8166 34.2626 24.7553 38.8616 23.1531 44.0332C21.5509 49.2048 21.4759 54.729 22.9372 59.9421C24.3985 65.1553 27.3339 69.8357 31.3908 73.421C35.4476 77.0063 40.4534 79.344 45.8067 80.1533C51.1599 80.9626 56.633 80.209 61.5684 77.9832C66.5038 75.7573 70.6915 72.1538 73.6285 67.6056C76.5655 63.0573 78.1269 57.7578 78.125 52.3438H81.25C81.2537 58.4005 79.4972 64.3277 76.1942 69.4046C72.8912 74.4814 68.1841 78.489 62.6454 80.9398C57.1067 83.3907 50.9752 84.1793 44.9966 83.2095C39.018 82.2398 33.4501 79.5536 28.97 75.4777C24.49 71.4017 21.291 66.1118 19.7621 60.2512C18.2331 54.3906 18.4402 48.212 20.3582 42.467C22.2761 36.722 25.8222 31.6581 30.5651 27.8913C35.308 24.1245 41.0433 21.8172 47.0734 21.25Z" fill="#542D8C"/>
<path id="Vector_2" d="M47.0688 45.8594C46.9596 46.0914 46.7951 46.293 46.5896 46.4465C46.3842 46.5999 46.1441 46.7004 45.8906 46.7391L39.1719 47.7641L44.0797 52.7953C44.2503 52.9703 44.3775 53.1829 44.4511 53.416C44.5246 53.6491 44.5424 53.8962 44.5031 54.1375L43.3609 61.1375L49.2359 57.8906C49.4674 57.7626 49.7276 57.6954 49.9922 57.6954C50.2567 57.6954 50.5169 57.7626 50.7484 57.8906L56.6234 61.1375L55.4812 54.1375C55.4419 53.8962 55.4598 53.6491 55.5333 53.416C55.6068 53.1829 55.734 52.9703 55.9047 52.7953L60.8125 47.7641L58 47.3344L51.1047 54.2297C50.8117 54.5227 50.4144 54.6874 50 54.6875H49.9594C49.7473 54.6819 49.5386 54.6331 49.346 54.5442C49.1534 54.4553 48.9809 54.3281 48.8391 54.1703L45.7141 50.6969L48.0359 48.6062L50.0594 50.8562L54.1672 46.7484L54.1094 46.7391C53.8559 46.7004 53.6158 46.5999 53.4104 46.4465C53.2049 46.293 53.0404 46.0914 52.9312 45.8594L50 39.6094L47.0688 45.8594Z" fill="#542D8C"/>
</g>
</svg>
