<svg width="120" height="120" viewBox="0 0 120 120" fill="none" xmlns="http://www.w3.org/2000/svg">
<g id="Layer_1">
<path id="Vector" d="M97.0875 16.7438L91.875 5.625L86.6625 16.7438L75 18.525L83.4375 27.1687L81.45 39.375L91.875 33.6188L102.3 39.375L100.312 27.1687L108.75 18.525L97.0875 16.7438Z" fill="#542D8C"/>
<path id="Vector_2" d="M7.5 80.3812C8.64375 85.7812 10.7438 90.8063 13.6875 95.2688C17.3063 92.3625 22.5938 92.5687 25.9312 95.9437C29.3062 99.2812 29.5125 104.569 26.6062 108.188C31.0687 111.131 36.0937 113.231 41.4937 114.375C41.9812 109.744 45.8812 106.144 50.625 106.144C55.3688 106.144 59.2688 109.744 59.7563 114.375C65.1562 113.231 70.1813 111.131 74.6438 108.188C71.8313 104.7 71.925 99.6375 75 96.3V93.75H60C57.1125 94.95 53.9437 95.625 50.625 95.625C37.1625 95.625 26.25 84.7125 26.25 71.25C26.25 57.7875 37.1625 46.875 50.625 46.875C53.9437 46.875 57.1125 47.55 60 48.75H75V46.2188C71.925 42.8812 71.8313 37.8187 74.6438 34.3125C70.1813 31.3687 65.1562 29.2688 59.7563 28.125C59.2688 32.7562 55.3688 36.3562 50.625 36.3562C45.8812 36.3562 41.9812 32.7562 41.4937 28.125C36.0937 29.2688 31.0687 31.3687 26.6062 34.3125C29.5125 37.9312 29.3062 43.2188 25.9312 46.5562C22.5938 49.9312 17.3063 50.1375 13.6875 47.2313C10.7438 51.6938 8.64375 56.7188 7.5 62.1188C12.1312 62.6063 15.7313 66.5062 15.7313 71.25C15.7313 75.9938 12.1312 79.8937 7.5 80.3812Z" fill="#542D8C"/>
<path id="Vector_3" d="M75 54.375C75 53.3438 74.1562 52.5 73.125 52.5H56.25C55.2188 52.5 54.375 53.3438 54.375 54.375V88.125C54.375 89.1562 55.2188 90 56.25 90H73.125C74.1562 90 75 89.1562 75 88.125V86.25H105C107.062 86.25 108.75 84.9188 108.75 83.3063L109.181 80.625H93.75V76.875H109.781L110.381 73.125H97.5187V69.375H110.981L111.581 65.625H101.269V61.875H112.181L112.519 59.7375C112.519 58.125 110.831 56.25 108.769 56.25H95.6437V48.75C95.6437 46.6875 93.9562 45 91.8937 45C89.8312 45 88.1437 46.6875 88.1437 48.75C88.1437 52.8938 84.7875 56.25 80.6437 56.25H75.0187V54.375H75ZM71.25 86.25H58.125V56.25H71.25V86.25Z" fill="#542D8C"/>
</g>
</svg>
