<svg width="100" height="100" viewBox="0 0 100 100" fill="none" xmlns="http://www.w3.org/2000/svg">
<g id="Layer_1">
<path id="Vector" d="M52.7119 76.3131V98.4373H46.8313C45.9174 98.4373 45.0867 97.9061 44.7035 97.0764L40.8189 88.6674L33.8586 85.7818L25.1635 88.9859C24.3057 89.3021 23.3424 89.0904 22.6959 88.4441L14.3137 80.0619C13.667 79.4152 13.4555 78.4518 13.7719 77.5939L16.9758 68.9041L14.09 61.9389L5.68125 58.0545C4.85156 57.6713 4.32031 56.8406 4.32031 55.9268V44.0787C4.32031 43.1648 4.85156 42.3344 5.68125 41.951L14.09 38.0666L16.9758 31.1012L13.7719 22.4113C13.4555 21.5533 13.667 20.5898 14.3137 19.9434L22.6959 11.5611C23.3424 10.9146 24.3057 10.7031 25.1637 11.0193L33.8588 14.2234L40.8189 11.3379L44.7035 2.92383C45.0865 2.09395 45.9174 1.5625 46.8314 1.5625H52.7121V23.6922C38.224 23.7158 26.4443 35.5092 26.4443 50.0027C26.4443 64.4963 38.224 76.2896 52.7121 76.3133L52.7119 76.3131ZM52.7119 71.6256V28.3795C40.8086 28.4031 31.1316 38.0938 31.1316 50.0025C31.1316 61.9113 40.8086 71.602 52.7119 71.6256ZM57.3994 23.6914V28.3789H67.2885C67.9959 28.3789 68.6656 28.0594 69.1105 27.5094L72.4467 23.3859C73.1537 23.6316 73.9121 23.767 74.7018 23.767C78.5004 23.767 81.5908 20.6766 81.5908 16.8779C81.5908 13.0793 78.5004 9.9832 74.7018 9.9832C70.9031 9.9832 67.8127 13.0762 67.8127 16.8779C67.8127 18.1787 68.1754 19.3963 68.8045 20.4354L66.1701 23.6916H57.3996L57.3994 23.6914ZM75.2607 31.0938H68.7943C68.0873 31.0938 67.418 31.4131 66.973 31.9625L63.2916 36.5084H57.3994V41.1959H64.4096C65.1166 41.1959 65.7859 40.8766 66.2309 40.3271L69.9123 35.7812H75.2602C76.2215 38.4326 78.7648 40.3322 81.7441 40.3322C85.5428 40.3322 88.6332 37.2393 88.6332 33.4375C88.6332 29.6357 85.5428 26.5482 81.7441 26.5482C78.7656 26.5482 76.2227 28.4455 75.2609 31.0938H75.2607ZM88.7811 43.1135C85.8191 43.1135 83.2727 45.0139 82.3068 47.6588H57.3996V52.3463H82.3031C83.2643 54.9945 85.8053 56.8918 88.7813 56.8918C92.583 56.8918 95.676 53.8014 95.676 50.0025C95.676 46.2037 92.583 43.1135 88.7813 43.1135H88.7811ZM81.7441 59.673C78.765 59.673 76.2217 61.5727 75.2602 64.224H69.9123L66.2311 59.6781C65.7859 59.1287 65.1166 58.8094 64.4096 58.8094H57.3994V63.4969H63.2916L66.9729 68.0428C67.418 68.5922 68.0873 68.9115 68.7943 68.9115H75.2607C76.2227 71.5598 78.7654 73.4568 81.7439 73.4568C85.5426 73.4568 88.633 70.3664 88.633 66.5678C88.633 62.7691 85.5426 59.673 81.7439 59.673H81.7441ZM74.7018 76.2381C73.9121 76.2381 73.1537 76.3734 72.4465 76.6191L69.1105 72.4959C68.6656 71.9459 67.9959 71.6264 67.2885 71.6264H57.3994V76.3139H66.1699L68.8043 79.5699C68.1752 80.609 67.8125 81.8266 67.8125 83.1273C67.8125 86.9291 70.9029 90.0221 74.7016 90.0221C78.5002 90.0221 81.5906 86.9291 81.5906 83.1273C81.5906 79.3256 78.5002 76.2381 74.7016 76.2381H74.7018Z" fill="#542D8C"/>
</g>
</svg>
