<svg width="100" height="100" viewBox="0 0 100 100" fill="none" xmlns="http://www.w3.org/2000/svg">
<g id="Layer_1" clip-path="url(#clip0_1286_16959)">
<path id="Vector" fill-rule="evenodd" clip-rule="evenodd" d="M47.6562 43.4086C47.6562 42.787 47.9032 42.1908 48.3427 41.7513C48.7823 41.3118 49.3784 41.0648 50 41.0648C54.298 41.07 58.4185 42.7798 61.4576 45.819C64.4966 48.8583 66.2061 52.9789 66.2109 57.277C66.2109 57.8986 65.964 58.4947 65.5245 58.9342C65.0849 59.3738 64.4888 59.6207 63.8672 59.6207C63.2456 59.6207 62.6494 59.3738 62.2099 58.9342C61.7704 58.4947 61.5234 57.8986 61.5234 57.277C61.52 54.2217 60.3049 51.2925 58.1446 49.132C55.9843 46.9715 53.0553 45.7561 50 45.7523C49.3784 45.7523 48.7823 45.5054 48.3427 45.0659C47.9032 44.6263 47.6562 44.0302 47.6562 43.4086ZM43.4744 81.2854V85.5354C43.4761 85.5905 43.4987 85.6429 43.5375 85.6821C43.5764 85.7212 43.6287 85.7442 43.6838 85.7463H56.3162C56.3713 85.7442 56.4236 85.7212 56.4625 85.6821C56.5013 85.6429 56.5239 85.5905 56.5256 85.5354V81.2854H43.4744ZM50 58.7732C50.2963 58.7731 50.5859 58.6851 50.8322 58.5204C51.0785 58.3557 51.2704 58.1217 51.3837 57.8479C51.4969 57.5741 51.5265 57.2729 51.4685 56.9823C51.4106 56.6917 51.2678 56.4249 51.0582 56.2154C50.8486 56.006 50.5816 55.8635 50.291 55.8058C50.0003 55.7481 49.6991 55.7779 49.4255 55.8915C49.1518 56.005 48.9179 56.1971 48.7534 56.4436C48.5889 56.69 48.5012 56.9797 48.5014 57.276C48.502 57.6731 48.6601 58.0538 48.9411 58.3345C49.222 58.6152 49.6029 58.773 50 58.7732ZM54.5275 91.8164V90.4336H45.4725V91.8164C45.4756 92.0671 45.5766 92.3067 45.7539 92.484C45.9312 92.6613 46.1708 92.7623 46.4215 92.7654H53.5789C53.8296 92.7622 54.0691 92.6612 54.2463 92.4839C54.4235 92.3066 54.5245 92.0671 54.5275 91.8164ZM42.7283 76.5975H47.6562V62.9979C46.3298 62.4548 45.2331 61.4679 44.5535 60.2059C43.8739 58.9439 43.6537 57.4851 43.9305 56.0788C44.2072 54.6724 44.9637 53.4058 46.0708 52.4953C47.1778 51.5849 48.5667 51.0872 50 51.0872C51.4333 51.0872 52.8222 51.5849 53.9292 52.4953C55.0363 53.4058 55.7928 54.6724 56.0695 56.0788C56.3463 57.4851 56.1261 58.9439 55.4465 60.2059C54.7669 61.4679 53.6702 62.4548 52.3438 62.9979V76.5975H57.2717C57.948 75.0744 59.0451 73.7761 60.434 72.8551C63.7747 70.6176 66.3077 67.3655 67.6591 63.5786C69.0106 59.7918 69.1089 55.6708 67.9397 51.8238C66.7704 47.9768 64.3954 44.6075 61.1652 42.2132C57.9351 39.8189 54.0208 38.5264 50 38.5264C45.9792 38.5264 42.0649 39.8189 38.8348 42.2132C35.6046 44.6075 33.2296 47.9768 32.0603 51.8238C30.8911 55.6708 30.9894 59.7918 32.3409 63.5786C33.6923 67.3655 36.2253 70.6176 39.566 72.8551C40.9549 73.7761 42.052 75.0744 42.7283 76.5975ZM100 49.5103C99.9999 48.96 99.8061 48.4272 99.4525 48.0054C99.099 47.5836 98.6083 47.2996 98.0664 47.2033L88.1152 45.4307C87.3878 43.0816 86.4439 40.8052 85.2955 38.6307L91.0811 30.3389C91.3961 29.8875 91.5423 29.3396 91.4939 28.7912C91.4454 28.2429 91.2055 27.729 90.8162 27.3398L79.8938 16.4178C79.5047 16.0286 78.9911 15.7888 78.4429 15.7403C77.8948 15.6918 77.3471 15.8378 76.8957 16.1525L68.6035 21.9383C66.4288 20.7896 64.1522 19.8451 61.8029 19.1172L60.0309 9.16699C59.9345 8.62505 59.6505 8.13429 59.2286 7.78075C58.8067 7.42721 58.2739 7.23344 57.7234 7.2334H42.2766C41.7261 7.23344 41.1933 7.42721 40.7714 7.78075C40.3495 8.13429 40.0655 8.62505 39.9691 9.16699L38.1973 19.1164C35.8473 19.8438 33.5702 20.7882 31.3951 21.9373L23.1043 16.1523C22.6529 15.8375 22.1051 15.6915 21.5569 15.74C21.0086 15.7885 20.495 16.0284 20.1059 16.4176L9.1832 27.3398C8.79406 27.7291 8.55428 28.2429 8.50586 28.7912C8.45744 29.3395 8.60346 29.8874 8.91836 30.3389L14.7043 38.6314C13.5558 40.806 12.6117 43.0825 11.8842 45.4316L1.93359 47.2033C1.39171 47.2996 0.90101 47.5836 0.547477 48.0054C0.193943 48.4272 0.000129396 48.96 0 49.5103L0 57.2346C0 57.8562 0.24693 58.4523 0.686468 58.8918C1.12601 59.3314 1.72215 59.5783 2.34375 59.5783H21.916C22.5376 59.5783 23.1338 59.3314 23.5733 58.8918C24.0128 58.4523 24.2598 57.8562 24.2598 57.2346C24.2598 43.0418 35.8068 31.4941 50 31.4941C64.1932 31.4941 75.7398 43.0418 75.7398 57.2346C75.7398 57.8562 75.9868 58.4523 76.4263 58.8918C76.8658 59.3314 77.462 59.5783 78.0836 59.5783H97.6562C98.2779 59.5783 98.874 59.3314 99.3135 58.8918C99.7531 58.4523 100 57.8562 100 57.2346V49.5103Z" fill="#542D8C"/>
</g>
<defs>
<clipPath id="clip0_1286_16959">
<rect width="100" height="100" fill="white"/>
</clipPath>
</defs>
</svg>
