<svg width="80" height="80" viewBox="0 0 80 80" fill="none" xmlns="http://www.w3.org/2000/svg">
<g id="Capa_1" clip-path="url(#clip0_1277_8981)">
<g id="Group">
<path id="Vector" d="M9.99236 21.4052C14.3133 14.4241 20.9881 9.14078 28.7874 6.52844C35.312 4.34297 42.2635 4.10265 48.8894 5.83359C55.1742 7.47531 60.8585 10.7909 65.3628 15.4355C64.5778 16.5772 64.1172 17.9584 64.1172 19.4458C64.1172 23.3594 67.3013 26.5433 71.2149 26.5433C75.1285 26.5433 78.3125 23.3594 78.3125 19.4458C78.3125 15.5322 75.1286 12.3483 71.2149 12.3483C70.4764 12.3483 69.7641 12.4619 69.0942 12.672L69.1556 12.6142C63.9885 7.12 57.3905 3.20594 50.0752 1.295C42.5647 -0.667033 34.6883 -0.395157 27.2974 2.08047C18.4619 5.04015 10.8997 11.0262 6.00377 18.9364C1.17142 26.7437 -0.845606 36.0305 0.32455 45.0863L4.97658 44.4853C3.94439 36.4953 5.72564 28.2986 9.99236 21.4052ZM71.2149 17.0391C72.5421 17.0391 73.6216 18.1187 73.6216 19.4458C73.6216 20.7728 72.5421 21.8525 71.2149 21.8525C69.8877 21.8525 68.808 20.7728 68.808 19.4458C68.808 18.1187 69.8877 17.0391 71.2149 17.0391Z" fill="#FFA500"/>
<path id="Vector_2" d="M79.7633 35.6436L75.1008 36.1589C75.9727 44.0461 74.1055 52.1089 69.8434 58.862C65.5222 65.7084 58.9061 70.8979 51.2134 73.4745C44.8073 75.6203 37.9405 75.8896 31.3555 74.2537C25.1016 72.7 19.4084 69.5218 14.8575 65.0506C15.5552 63.9523 15.9613 62.6514 15.9613 61.2567C15.9613 57.3431 12.7772 54.1592 8.86344 54.1592C4.94984 54.1592 1.76562 57.3431 1.76562 61.2567C1.76562 65.1703 4.94969 68.3542 8.86344 68.3542C9.67313 68.3542 10.4506 68.2161 11.1761 67.9653L11.1561 67.985C16.3719 73.2607 22.9655 77.0026 30.2244 78.8061C33.4333 79.6032 36.7014 80.0006 39.9623 80.0004C44.2742 80.0004 48.5733 79.3056 52.7034 77.9221C61.418 75.0032 68.9139 69.1232 73.8102 61.3653C78.6372 53.7175 80.7516 44.5826 79.7633 35.6436ZM8.86344 63.6636C7.53641 63.6636 6.45656 62.5839 6.45656 61.2568C6.45656 59.9298 7.53625 58.8501 8.86344 58.8501C10.1906 58.8501 11.2703 59.9298 11.2703 61.2568C11.2703 62.5839 10.1906 63.6636 8.86344 63.6636Z" fill="#FFA500"/>
<path id="Vector_3" d="M40.0005 14.2969C25.8275 14.2969 14.2969 25.8272 14.2969 39.9997C14.2969 54.1722 25.8275 65.7025 40.0005 65.7025C54.1734 65.7025 65.7041 54.1722 65.7041 39.9997C65.7041 25.8272 54.1736 14.2969 40.0005 14.2969ZM40.0005 61.0119C28.4141 61.0119 18.9878 51.5858 18.9878 39.9997C18.9878 28.4136 28.4141 18.9875 40.0005 18.9875C51.5869 18.9875 61.0131 28.4136 61.0131 39.9997C61.0131 51.5858 51.587 61.0119 40.0005 61.0119Z" fill="#FFA500"/>
<path id="Vector_4" d="M35.3809 50.751L40.0781 28.3189L44.6704 29.2805L39.9731 51.7126L35.3809 50.751Z" fill="#FFA500"/>
<path id="Vector_5" d="M29.9686 33.4072L23.375 40.0007L29.9686 46.5939L33.2855 43.2771L30.0089 40.0007L33.2855 36.7241L29.9686 33.4072Z" fill="#FFA500"/>
<path id="Vector_6" d="M46.7148 36.7241L49.9914 40.0007L46.7148 43.2771L50.0317 46.5939L56.6253 40.0007L50.0317 33.4072L46.7148 36.7241Z" fill="#FFA500"/>
</g>
</g>
<defs>
<clipPath id="clip0_1277_8981">
<rect width="80" height="80" fill="white"/>
</clipPath>
</defs>
</svg>
