<svg width="80" height="80" viewBox="0 0 80 80" fill="none" xmlns="http://www.w3.org/2000/svg">
<g id="Capa_1" clip-path="url(#clip0_1277_8995)">
<g id="Group">
<path id="Vector" d="M23.5938 16.5625V21.25H28.517C28.8216 22.7441 29.4125 24.1344 30.2277 25.3641L26.7417 28.85L30.0563 32.1645L33.5422 28.6786C34.7717 29.4937 36.1622 30.0848 37.6562 30.3892V35.3125H42.3438V30.3892C43.8377 30.0847 45.2281 29.4937 46.4578 28.6786L49.9438 32.1645L53.2583 28.85L49.7723 25.3641C50.5877 24.1345 51.1786 22.7441 51.483 21.25H56.4062V16.5625H51.483C51.1784 15.0684 50.5875 13.6781 49.7723 12.4484L53.2583 8.9625L49.9438 5.64797L46.4578 9.13391C45.2283 8.31875 43.8378 7.72766 42.3438 7.42328V2.5H37.6562V7.42328C36.1623 7.72781 34.7719 8.31875 33.5422 9.13391L30.0563 5.64797L26.7417 8.9625L30.2277 12.4484C29.4123 13.678 28.8214 15.0684 28.517 16.5625H23.5938ZM40 11.875C43.877 11.875 47.0312 15.0292 47.0312 18.9062C47.0312 22.7833 43.877 25.9375 40 25.9375C36.123 25.9375 32.9688 22.7833 32.9688 18.9062C32.9688 15.0292 36.123 11.875 40 11.875Z" fill="#FFA500"/>
<path id="Vector_2" d="M37.6562 16.5625H42.3438V21.25H37.6562V16.5625Z" fill="#FFA500"/>
<path id="Vector_3" d="M61.0938 43.2389L59.0697 42.2269C56.1559 40.77 52.8939 40 49.6362 40H33.6677C31.3961 40 29.1519 40.3642 26.9972 41.0825L18.9062 43.7794V40H0V72.8125H16.0092L21.9202 75.768C24.1863 76.9011 26.7234 77.5 29.2572 77.5H49.6362C52.8939 77.5 56.1559 76.73 59.0697 75.2731L63.9908 72.8125H80V40H61.0938V43.2389ZM14.2188 68.125H4.6875V44.6875H14.2188V68.125ZM29.2572 72.8125C27.4473 72.8125 25.6352 72.3847 24.0164 71.5753L18.9062 69.0202V48.7206C18.9062 48.7206 28.63 45.4831 28.705 45.4594C30.0731 50.4131 34.617 54.0625 40 54.0625H43.4331L46.912 59.2809C49.593 63.3022 51.2 67.9027 51.6122 72.6908C50.9566 72.7709 50.2962 72.8125 49.6362 72.8125H29.2572ZM56.9733 71.0805C56.7184 71.208 56.4595 71.3277 56.1983 71.4416C55.6094 66.1738 53.7742 61.1234 50.8123 56.6809L45.9419 49.375H40C36.9467 49.375 34.3431 47.4183 33.3739 44.6934C33.4719 44.6917 33.5695 44.6875 33.6677 44.6875H49.6362C52.17 44.6875 54.7072 45.2864 56.9734 46.4195L61.0938 48.4798V69.0203L56.9733 71.0805ZM65.7812 44.6875H75.3125V68.125H65.7812V44.6875Z" fill="#FFA500"/>
</g>
</g>
<defs>
<clipPath id="clip0_1277_8995">
<rect width="80" height="80" fill="white"/>
</clipPath>
</defs>
</svg>
