<svg width="80" height="80" viewBox="0 0 80 80" fill="none" xmlns="http://www.w3.org/2000/svg">
<g id="Frame">
<path id="Vector" fill-rule="evenodd" clip-rule="evenodd" d="M9.48193 30.6815V30.7925C9.48193 32.0175 8.48146 33.0179 7.25667 33.0179H3.32397C2.10357 33.0179 1.09856 32.0175 1.09856 30.7925V13.8074C1.09856 12.5826 2.10357 11.582 3.32397 11.582H7.25667C8.36695 11.582 9.29291 12.4041 9.45636 13.4702C9.94122 13.3795 10.2901 13.1266 10.5488 12.753C12.1579 10.4245 12.0164 10.4703 14.1222 9.09448C16.8446 7.31409 16.7211 6.5748 17.7575 2.07033C17.8328 1.7428 18.0364 1.45919 18.3226 1.28303C18.6087 1.10688 18.9535 1.05276 19.2797 1.13291C21.7269 1.73401 22.816 3.56978 23.0578 5.7486C23.2575 7.5486 22.8159 9.58013 22.2084 11.1282H28.9317C30.9036 11.1282 32.5169 12.7393 32.5169 14.7114C32.5169 15.2978 32.3739 15.8526 32.1208 16.3428C33.1218 16.9797 33.7886 18.099 33.7886 19.3681C33.7886 20.4893 33.268 21.4937 32.4564 22.1519C32.7935 22.6978 32.9884 23.3398 32.9884 24.0247C32.9884 25.6724 31.8636 27.0695 30.3434 27.4846C30.4774 27.8597 30.5505 28.2633 30.5505 28.6833C30.5505 30.6526 28.9395 32.2666 26.9673 32.2666H16.7343C13.5067 32.2666 11.4943 31.4102 9.48193 30.6815ZM9.48193 15.9993V28.0308C11.539 28.7484 13.4501 29.7568 16.7343 29.7568H26.9673C27.558 29.7568 28.0407 29.2733 28.0407 28.6833C28.0407 28.0924 27.558 27.6099 26.9673 27.6099H22.8565C22.1638 27.6099 21.6016 27.0476 21.6016 26.355C21.6016 25.6625 22.1638 25.1001 22.8565 25.1001H29.4052C29.9963 25.1001 30.4786 24.6159 30.4786 24.0247C30.4786 23.4347 29.996 22.9513 29.4052 22.9513H22.8565C22.1638 22.9513 21.6016 22.3889 21.6016 21.6964C21.6016 21.0038 22.1638 20.4415 22.8565 20.4415H30.2054C30.7963 20.4415 31.2788 19.959 31.2788 19.3681C31.2788 18.7772 30.7963 18.2946 30.2054 18.2946H22.8565C22.1638 18.2946 21.6016 17.7323 21.6016 17.0397C21.6016 16.3472 22.1638 15.7848 22.8565 15.7848H28.9317C29.5227 15.7848 30.0071 15.3015 30.0071 14.7114C30.0071 14.1202 29.5227 13.638 28.9317 13.638H20.1193C19.6281 13.638 19.1822 13.3514 18.9779 12.9048C18.7737 12.4582 18.8488 11.9335 19.1701 11.5621C19.9189 10.6964 20.7974 8.13558 20.5633 6.02531C20.4869 5.33778 20.2766 4.69339 19.8377 4.22405C18.8739 8.37919 18.5086 9.22452 15.4959 11.195L15.4954 11.1953C13.7866 12.3117 13.9188 12.2912 12.6131 14.1804L12.6126 14.1812C11.9029 15.2063 10.9255 15.8827 9.48193 15.9993ZM3.60836 14.0918V30.5081H6.97212V14.0918H3.60836ZM76.0565 76.3908H77.6476C78.3401 76.3908 78.9025 76.9532 78.9025 77.6457C78.9025 78.3384 78.3401 78.9006 77.6476 78.9006H42.9684C42.2758 78.9006 41.7135 78.3384 41.7135 77.6457C41.7135 76.9532 42.2758 76.3908 42.9684 76.3908H45.1077V68.2849C45.1077 67.5919 45.6694 67.03 46.3626 67.03H52.3946C53.0876 67.03 53.6495 67.5919 53.6495 68.2849V76.3908H56.3111V61.6372C56.3111 60.9441 56.873 60.3823 57.566 60.3823H63.598C64.2912 60.3823 64.8529 60.9441 64.8529 61.6372V76.3908H67.5146V54.4774C67.5146 53.7842 68.0764 53.2225 68.7695 53.2225H74.8016C75.4946 53.2225 76.0565 53.7842 76.0565 54.4774V76.3908ZM47.6175 76.3908H51.1397V69.5398H47.6175V76.3908ZM58.8209 76.3908H62.3431V62.8921H58.8209V76.3908ZM70.0244 76.3908H73.5467V55.7323H70.0244V76.3908ZM41.5713 63.1654C32.5028 63.1654 25.1045 55.7718 25.1045 46.7031C25.1045 37.6346 32.5028 30.2363 41.5713 30.2363C50.64 30.2363 58.0338 37.6346 58.0338 46.7031C58.0338 55.772 50.6402 63.1654 41.5713 63.1654ZM41.5713 60.6556C49.2576 60.6556 55.524 54.3894 55.524 46.7031C55.524 39.0168 49.2576 32.7461 41.5713 32.7461C33.8851 32.7461 27.6143 39.0168 27.6143 46.7031C27.6143 54.3894 33.8851 60.6556 41.5713 60.6556ZM39.6692 46.1941L45.8018 39.9977L45.804 39.9953C47.1237 38.6689 49.2774 38.6625 50.6038 39.9822C51.9296 41.3011 51.9382 43.447 50.6193 44.7797L50.6187 44.7803C47.769 47.6559 44.9408 50.5488 42.078 53.4113C40.7524 54.7371 38.5997 54.7371 37.2739 53.4113L32.5295 48.6626C31.2043 47.3375 31.2021 45.1927 32.5271 43.8608L32.5295 43.8584C33.8553 42.5328 36.0079 42.5328 37.3335 43.8584L39.6692 46.1941ZM38.7866 48.8608L35.5588 45.6331C35.2131 45.2873 34.6517 45.287 34.3053 45.6321C33.9596 45.9808 33.9577 46.5414 34.3042 46.8879L39.0487 51.6368C39.3949 51.983 39.9571 51.983 40.3034 51.6368C43.1632 48.7768 45.9886 45.8868 48.8355 43.0142C49.1798 42.6661 49.1798 42.1058 48.8338 41.7615C48.4884 41.4178 47.9276 41.42 47.5837 41.7649L40.5658 48.8562C40.3309 49.0935 40.011 49.2275 39.6771 49.2283C39.3431 49.2292 39.0226 49.097 38.7866 48.8608ZM66.504 3.80601C67.5149 4.09762 68.489 4.50123 69.4107 5.01056L71.2744 4.18186C71.7489 3.97088 72.3044 4.07393 72.6716 4.44115L75.558 7.32774C75.9248 7.69448 76.0281 8.24899 75.8181 8.72319C75.8181 8.72319 74.9922 10.5875 74.9922 10.5873C75.5022 11.5103 75.9061 12.4859 76.198 13.4998L78.0982 14.2313C78.5828 14.4176 78.9025 14.8832 78.9025 15.4024V19.4854C78.9025 20.0044 78.5828 20.47 78.0982 20.6565L76.1972 21.3881C75.9048 22.3988 75.4995 23.3731 74.9917 24.2948L75.8181 26.1604C76.0281 26.6346 75.9248 27.1892 75.558 27.556L72.6716 30.4424C72.3048 30.8092 71.7502 30.9125 71.276 30.7025C71.276 30.7025 69.4124 29.8769 69.4126 29.8769C68.4918 30.3864 67.5153 30.7902 66.5037 31.0819L65.7721 32.9826C65.5856 33.4672 65.12 33.7869 64.601 33.7869H60.518C59.9988 33.7869 59.5332 33.4672 59.3469 32.9826L58.6154 31.0821C57.6019 30.7897 56.6267 30.3842 55.7044 29.8761L53.8389 30.7025C53.3646 30.9125 52.8101 30.8092 52.4433 30.4424L49.5569 27.556C49.1897 27.1888 49.0865 26.6333 49.2975 26.1588C49.2975 26.1588 50.1259 24.2959 50.1259 24.2961C49.6167 23.3757 49.2128 22.3999 48.9191 21.3888L47.0165 20.6565C46.532 20.47 46.2124 20.0044 46.2124 19.4854V15.4024C46.2124 14.8832 46.532 14.4176 47.0165 14.2313L48.9186 13.4992C49.2124 12.4857 49.6165 11.5108 50.1262 10.5884L49.2975 8.72492C49.0865 8.25041 49.1897 7.69495 49.5569 7.32774L52.4433 4.44115C52.8106 4.07393 53.366 3.97088 53.8405 4.18186L55.704 5.01056C56.6262 4.50107 57.6008 4.09731 58.6118 3.8057L59.3472 1.89982C59.534 1.4159 59.9993 1.09668 60.518 1.09668H64.601C65.1204 1.09668 65.5861 1.41668 65.7724 1.90154L66.504 3.80601ZM64.3917 5.30578L63.7387 3.60648H61.3789L60.7226 5.3075C60.5735 5.69323 60.2443 5.98107 59.8419 6.0766C58.6397 6.36225 57.4932 6.83723 56.4396 7.48648C56.0869 7.7039 55.6498 7.73307 55.2714 7.56492L53.6085 6.82546L51.9411 8.49292L52.6805 10.1558C52.8487 10.5342 52.8195 10.9713 52.6021 11.324C51.9524 12.3786 51.4771 13.5262 51.1875 14.7331C51.091 15.1346 50.8033 15.4631 50.4179 15.6113L48.7222 16.2641V18.6237L50.4179 19.2763C50.803 19.4245 51.0907 19.7527 51.1873 20.1538C51.4767 21.3564 51.9516 22.5075 52.6011 23.558C52.8193 23.9108 52.849 24.3488 52.6805 24.7277L51.9411 26.3908L53.6093 28.059L55.273 27.3221C55.6501 27.1552 56.0852 27.1841 56.4367 27.3994C57.4913 28.0455 58.6385 28.5251 59.8451 28.8109C60.2482 28.9064 60.5782 29.1947 60.7269 29.5812L61.3797 31.2771H63.7393L64.3919 29.5812C64.5406 29.1949 64.8702 28.9069 65.273 28.811C66.4744 28.5255 67.6242 28.0512 68.6736 27.4022C69.0259 27.1844 69.4631 27.1544 69.8418 27.3221L71.5055 28.059L73.1746 26.3899L72.4377 24.7262C72.2708 24.3491 72.2997 23.9141 72.515 23.5624C73.1613 22.5078 73.6408 21.3605 73.9266 20.1574C74.0225 19.7546 74.3106 19.425 74.6968 19.2763L76.3927 18.6237V16.2641L74.6968 15.6113C74.3103 15.4626 74.022 15.1326 73.9265 14.7295C73.6408 13.5238 73.166 12.3775 72.5168 11.324C72.2998 10.9718 72.2703 10.5356 72.4377 10.1574L73.1746 8.4937L71.5064 6.82546L69.8435 7.56492C69.465 7.73307 69.0278 7.7039 68.6753 7.48648C67.6215 6.83723 66.475 6.36225 65.273 6.0766C64.87 5.98092 64.5403 5.69244 64.3917 5.30578ZM62.5574 9.06531C67.1856 9.06531 70.9379 12.8137 70.9379 17.4418C70.9379 22.0697 67.1853 25.8223 62.5574 25.8223C57.9293 25.8223 54.1809 22.0699 54.1809 17.4418C54.1809 12.8135 57.9291 9.06531 62.5574 9.06531ZM62.5574 11.5751C59.3158 11.5751 56.6907 14.2002 56.6907 17.4418C56.6907 20.6835 59.3157 23.3125 62.5574 23.3125C65.7994 23.3125 68.4281 20.6838 68.4281 17.4418C68.4281 14.2001 65.7991 11.5751 62.5574 11.5751ZM10.9877 59.8744C11.5909 58.2874 13.8664 52.3014 13.8664 52.3014C14.4766 50.6829 16.779 50.6829 17.3891 52.3014L20.2678 59.8744C21.9676 59.9579 28.3611 60.2722 28.3566 60.2721C30.1003 60.3503 30.8 62.5464 29.4524 63.6206L23.1331 68.7022C23.5801 70.3467 25.2576 76.5166 25.2567 76.5133C25.7232 78.1782 23.8677 79.5361 22.4178 78.5955C22.4164 78.5946 22.4148 78.5936 22.4134 78.5927L15.628 74.1519L8.84899 78.5924C8.84742 78.5935 8.84585 78.5944 8.84428 78.5955C7.39958 79.5326 5.54734 78.182 5.99628 76.5226L5.99675 76.521C5.99675 76.521 7.67957 70.331 8.1224 68.7022C6.80083 67.6396 1.8035 63.6211 1.80726 63.6239C0.455418 62.5464 1.15518 60.3503 2.89354 60.2722L10.9877 59.8744ZM4.66107 62.6982C6.58875 64.2484 10.0055 66.9958 10.0044 66.995C10.6074 67.4678 10.851 68.2081 10.6553 68.952C10.6545 68.9553 10.6535 68.9586 10.6526 68.9619L8.8504 75.5911C10.9193 74.236 14.5898 71.8316 14.5861 71.8341C15.233 71.4032 16.0165 71.4021 16.664 71.8305C16.664 71.8305 20.3338 74.2322 22.404 75.587L20.6029 68.9619C20.6019 68.9586 20.601 68.9553 20.6002 68.952C20.4044 68.2082 20.648 67.4681 21.2495 66.9963L26.5946 62.6982L19.7337 62.361L19.731 62.3608C18.9673 62.3216 18.3406 61.8713 18.067 61.1484L15.6278 54.7313L13.1891 61.1467C12.9149 61.8713 12.2882 62.3216 11.5244 62.3608L11.5218 62.361L4.66107 62.6982ZM35.3254 10.0374C34.6328 10.0374 34.0705 9.47519 34.0705 8.78248C34.0705 8.08994 34.6328 7.52758 35.3254 7.52758H46.3193C47.0118 7.52758 47.5742 8.08994 47.5742 8.78248C47.5742 9.47519 47.0118 10.0374 46.3193 10.0374H35.3254ZM68.5019 37.6565C68.5019 36.964 69.064 36.4016 69.7568 36.4016C70.4493 36.4016 71.0117 36.964 71.0117 37.6565V47.684C71.0117 48.3765 70.4493 48.9389 69.7568 48.9389C69.064 48.9389 68.5019 48.3765 68.5019 47.684V37.6565ZM28.902 73.1012C28.2095 73.1012 27.6471 72.5389 27.6471 71.8463C27.6471 71.1536 28.2095 70.5914 28.902 70.5914H40.8223C41.5149 70.5914 42.0772 71.1536 42.0772 71.8463C42.0772 72.5389 41.5149 73.1012 40.8223 73.1012H28.902ZM8.09589 37.6565C8.09589 36.964 8.65824 36.4016 9.35079 36.4016C10.0435 36.4016 10.6057 36.964 10.6057 37.6565V49.9793C10.6057 50.6719 10.0435 51.2342 9.35079 51.2342C8.65824 51.2342 8.09589 50.6719 8.09589 49.9793V37.6565Z" fill="#FFA500"/>
</g>
</svg>
