<svg width="80" height="80" viewBox="0 0 80 80" fill="none" xmlns="http://www.w3.org/2000/svg">
<g id="Capa_1" clip-path="url(#clip0_1277_9000)">
<g id="Group">
<path id="Vector" d="M75 65.6983V56.0675H65.2702C66.9255 51.9106 67.7997 47.4473 67.7997 42.9398V42.3438H77.6562V37.6562H67.7998V23.9325H75V14.3017C77.9031 13.3211 80 10.5736 80 7.34375C80 3.29437 76.7056 0 72.6562 0C68.6069 0 65.3125 3.29437 65.3125 7.34375C65.3125 10.5736 67.4094 13.3211 70.3125 14.3017V19.245H66.5406L40 5.32219L13.4592 19.245H9.6875V14.3017C12.5906 13.3211 14.6875 10.5736 14.6875 7.34375C14.6875 3.29437 11.3931 0 7.34375 0C3.29437 0 0 3.29437 0 7.34375C0 10.5736 2.09687 13.3211 5 14.3017V23.9325H12.2002V37.6562H2.34375V42.3438H12.2002V42.9397C12.2002 47.4472 13.0744 51.9105 14.7298 56.0673H5V65.6981C2.09687 66.6789 0 69.4264 0 72.6562C0 76.7056 3.29437 80 7.34375 80C11.3931 80 14.6875 76.7056 14.6875 72.6562C14.6875 69.4264 12.5906 66.6789 9.6875 65.6983V60.755H17.0062C17.8473 62.2058 18.7917 63.6002 19.8369 64.9228C24.7616 71.1553 31.7298 75.5995 39.458 77.4364L40 77.5653L40.542 77.4364C48.2702 75.5994 55.2384 71.1553 60.163 64.9228C61.2081 63.6 62.1525 62.2058 62.9936 60.755H70.3125V65.6983C67.4094 66.6789 65.3125 69.4264 65.3125 72.6562C65.3125 76.7056 68.6069 80 72.6562 80C76.7056 80 80 76.7056 80 72.6562C80 69.4264 77.9031 66.6789 75 65.6983ZM72.6562 4.6875C74.1209 4.6875 75.3125 5.87906 75.3125 7.34375C75.3125 8.80844 74.1209 10 72.6562 10C71.1916 10 70 8.80844 70 7.34375C70 5.87906 71.1916 4.6875 72.6562 4.6875ZM7.34375 4.6875C8.80844 4.6875 10 5.87906 10 7.34375C10 8.80844 8.80844 10 7.34375 10C5.87906 10 4.6875 8.80844 4.6875 7.34375C4.6875 5.87906 5.87906 4.6875 7.34375 4.6875ZM7.34375 75.3125C5.87906 75.3125 4.6875 74.1209 4.6875 72.6562C4.6875 71.1916 5.87906 70 7.34375 70C8.80844 70 10 71.1916 10 72.6562C10 74.1209 8.80844 75.3125 7.34375 75.3125ZM51.4811 39.4038C51.6403 40.1791 51.7209 40.9773 51.7209 41.7759C51.7209 42.5745 51.6402 43.3728 51.4811 44.1481L51.2183 45.4291L53.3803 47.465L51.617 50.5191L48.767 49.663L47.7887 50.5337C46.5864 51.6041 45.207 52.4017 43.6891 52.9045L42.4458 53.3164L41.7633 56.2083H38.2369L37.5544 53.3164L36.3112 52.9045C34.7931 52.4016 33.4137 51.6039 32.2116 50.5337L31.2333 49.663L28.3831 50.5192L26.6198 47.4652L28.7819 45.4292L28.5189 44.1481C28.3598 43.3731 28.2792 42.5752 28.2792 41.7761C28.2792 40.977 28.3598 40.1791 28.5189 39.4041L28.7819 38.123L26.6198 36.087L28.3831 33.033L31.2333 33.8892L32.2116 33.0184C33.4137 31.9483 34.7931 31.1506 36.3112 30.6477L37.5544 30.2358L38.2367 27.3438H41.7631L42.4456 30.2356L43.6889 30.6475C45.2069 31.1505 46.5862 31.9481 47.7886 33.0183L48.7669 33.8891L51.6169 33.033L53.3802 36.087L51.2181 38.123L51.4811 39.4038ZM16.8877 42.9397V22.74L37.6562 11.8448V22.6562H34.5269L33.5791 26.6722C32.3525 27.193 31.2003 27.8592 30.1339 28.6644L26.1788 27.4761L20.7055 36.9561L23.7117 39.787C23.632 40.4458 23.5919 41.1109 23.5919 41.7759C23.5919 42.4409 23.632 43.1063 23.7117 43.7648L20.7055 46.5958L26.1788 56.0758L30.1339 54.8875C31.2005 55.6927 32.3525 56.3589 33.5791 56.8797L34.5269 60.8956H37.6562V72.0413C25.2892 67.8156 16.8877 56.2444 16.8877 42.9397ZM42.3438 72.0413V60.8956H45.4731L46.4208 56.8798C47.6475 56.3591 48.7997 55.6928 49.8661 54.8877L53.8214 56.0759L59.2944 46.5959L56.2883 43.765C56.3681 43.1063 56.4083 42.4409 56.4083 41.7761C56.4083 41.1113 56.3681 40.4459 56.2883 39.7872L59.2944 36.9562L53.8214 27.4763L49.8661 28.6645C48.7997 27.8592 47.6475 27.1931 46.4208 26.6723L45.4731 22.6562H42.3438V11.8448L63.1123 22.7398V42.9397C63.1123 56.2444 54.7106 67.8156 42.3438 72.0413ZM72.6562 75.3125C71.1916 75.3125 70 74.1209 70 72.6562C70 71.1916 71.1916 70 72.6562 70C74.1209 70 75.3125 71.1916 75.3125 72.6562C75.3125 74.1209 74.1209 75.3125 72.6562 75.3125Z" fill="#FFA500"/>
<path id="Vector_2" d="M40.0009 34.2676C35.8606 34.2676 32.4922 37.636 32.4922 41.7763C32.4922 45.9166 35.8606 49.2851 40.0009 49.2851C44.1412 49.2851 47.5097 45.9166 47.5097 41.7763C47.5097 37.636 44.1412 34.2676 40.0009 34.2676ZM40.0009 44.5974C38.4453 44.5974 37.1797 43.3318 37.1797 41.7762C37.1797 40.2205 38.4453 38.9549 40.0009 38.9549C41.5566 38.9549 42.8222 40.2205 42.8222 41.7762C42.8222 43.3318 41.5566 44.5974 40.0009 44.5974Z" fill="#FFA500"/>
</g>
</g>
<defs>
<clipPath id="clip0_1277_9000">
<rect width="80" height="80" fill="white"/>
</clipPath>
</defs>
</svg>
