<svg width="120" height="120" viewBox="0 0 120 120" fill="none" xmlns="http://www.w3.org/2000/svg">
<g id="Layer_1" clip-path="url(#clip0_1286_15948)">
<path id="Vector" d="M70.9453 13.4766H20.1797V26.0156H70.9688V13.4766H70.9453ZM67.6641 22.7344H23.4609V16.7578H67.6875V22.7344H67.6641ZM20.0391 38.5312C20.0391 37.6172 20.7656 36.8906 21.6797 36.8906H25.8516C26.7656 36.8906 27.4922 37.6172 27.4922 38.5312C27.4922 39.4453 26.7656 40.1719 25.8516 40.1719H21.6797C20.7656 40.1719 20.0391 39.4219 20.0391 38.5312ZM54.3984 38.5312C54.3984 39.4453 53.6719 40.1719 52.7578 40.1719H29.7891C28.875 40.1719 28.1484 39.4453 28.1484 38.5312C28.1484 37.6172 28.875 36.8906 29.7891 36.8906H52.7578C53.6484 36.8906 54.3984 37.6172 54.3984 38.5312ZM20.0391 45.0234C20.0391 44.1094 20.7656 43.3828 21.6797 43.3828H25.8516C26.7656 43.3828 27.4922 44.1094 27.4922 45.0234C27.4922 45.9375 26.7656 46.6641 25.8516 46.6641H21.6797C20.7656 46.6641 20.0391 45.9141 20.0391 45.0234ZM54.3984 45.0234C54.3984 45.9375 53.6719 46.6641 52.7578 46.6641H29.7891C28.875 46.6641 28.1484 45.9375 28.1484 45.0234C28.1484 44.1094 28.875 43.3828 29.7891 43.3828H52.7578C53.6484 43.3828 54.3984 44.1094 54.3984 45.0234ZM54.3984 51.4922C54.3984 52.4062 53.6719 53.1328 52.7578 53.1328H29.7891C28.875 53.1328 28.1484 52.4062 28.1484 51.4922C28.1484 50.5781 28.875 49.8516 29.7891 49.8516H52.7578C53.6484 49.8516 54.3984 50.6016 54.3984 51.4922ZM20.0391 51.4922C20.0391 50.5781 20.7656 49.8516 21.6797 49.8516H25.8516C26.7656 49.8516 27.4922 50.5781 27.4922 51.4922C27.4922 52.4062 26.7656 53.1328 25.8516 53.1328H21.6797C20.7656 53.1328 20.0391 52.4062 20.0391 51.4922ZM28.1484 67.8516C28.125 67.8516 28.125 67.875 28.1016 67.875C28.1016 67.875 28.0781 67.875 28.0781 67.8984C27.4219 68.25 26.7656 68.6484 26.1562 69.1172C22.8984 71.5312 20.8828 75.0234 20.2734 78.75C20.25 78.7969 20.25 78.8672 20.2266 78.9141V79.0078C19.6406 82.8516 20.5313 86.9062 23.0391 90.2578C25.9922 94.2422 30.5625 96.3516 35.2031 96.3516C38.3437 96.3516 41.4844 95.3906 44.2031 93.375C47.4375 90.9609 49.5703 87.4453 50.1562 83.4375C50.7422 79.4297 49.7578 75.4453 47.3438 72.2109C42.7969 66.1875 34.6172 64.4531 28.1484 67.8516ZM36.8906 69.5391C40.0078 70.0078 42.7734 71.6484 44.6719 74.2031C45.6094 75.4688 46.2891 76.875 46.6406 78.3516L36.0938 79.5L31.1484 70.1016C32.4141 69.6328 33.7734 69.3984 35.1328 69.3984C35.7187 69.3984 36.3047 69.4453 36.8906 69.5391ZM28.1016 71.7422C28.1484 71.7188 28.1953 71.6719 28.2422 71.6484L32.1797 79.125L23.8125 77.8125C24.5391 75.3984 26.0391 73.2656 28.1016 71.7422ZM42.2109 90.75C36.9609 94.6406 29.5313 93.5391 25.6406 88.2891C24.0703 86.1562 23.2734 83.6484 23.3203 81.0469L34.8984 82.8516H34.9219C34.9922 82.8516 35.0859 82.875 35.1562 82.875H35.3203L46.9687 81.6094C46.9453 82.0547 46.9219 82.5234 46.8516 82.9688C46.4062 86.1094 44.7422 88.875 42.2109 90.75ZM110.461 84.3281C110.367 83.6719 109.898 83.1328 109.266 82.9688L104.531 81.6562C104.227 80.7656 103.852 79.8516 103.43 79.0078L105.844 74.7422C106.172 74.1797 106.125 73.4531 105.727 72.9375C103.078 69.4922 101.227 67.6406 97.8047 65.0156C97.2891 64.6172 96.5625 64.5703 96 64.8984L91.7344 67.3125C90.8672 66.8906 89.9766 66.5391 89.0859 66.2109L87.7734 61.4766C87.5859 60.8437 87.0703 60.375 86.4141 60.2813C84.7734 60.0703 83.3672 59.9297 82.0078 59.8828V13.125C82.0078 9.32812 78.9141 6.25781 75.1406 6.25781H70.3125C69.4219 2.64844 66.1641 0 62.3438 0H28.3828C24.5391 0 21.3047 2.64844 20.4141 6.23438H15.9844C12.1875 6.23438 9.09375 9.32812 9.09375 13.125V97.2656C9.09375 101.062 12.1875 104.133 15.9609 104.133H56.3437C56.1562 104.461 55.9688 104.812 55.7812 105.141C55.4531 105.703 55.5 106.43 55.8984 106.945C58.4531 110.297 60.4453 112.289 63.8203 114.867C64.3359 115.266 65.0625 115.312 65.625 114.984L69.8906 112.57C70.7578 112.992 71.625 113.344 72.5391 113.672L73.8516 118.406C74.0391 119.039 74.5547 119.508 75.2109 119.602C77.4141 119.883 79.1016 120.047 80.8125 120.047C82.5234 120.047 84.2109 119.906 86.4141 119.602C87.0703 119.508 87.6094 119.039 87.7734 118.406L89.0859 113.672C89.9766 113.367 90.8672 112.992 91.7344 112.57L96 114.984C96.5625 115.312 97.2891 115.266 97.8047 114.867C101.25 112.242 103.102 110.391 105.727 106.945C106.125 106.43 106.172 105.703 105.844 105.141L103.43 100.875C103.852 100.008 104.203 99.1406 104.531 98.2266L109.266 96.9141C109.898 96.7266 110.367 96.2109 110.461 95.5547C111.047 91.125 111.047 88.7344 110.461 84.3281ZM28.3828 3.28125H62.3438C64.3594 3.28125 66.0937 4.5 66.8672 6.23438H23.8594C24.6328 4.5 26.3672 3.28125 28.3828 3.28125ZM12.375 97.2422V13.125C12.375 11.1328 13.9922 9.53906 15.9609 9.53906H75.1406C77.1328 9.53906 78.7266 11.1562 78.7266 13.125V59.9531C77.625 60.0234 76.5 60.1406 75.2109 60.3047C74.5547 60.3984 74.0156 60.8672 73.8516 61.5L72.5391 66.2344C71.6484 66.5391 70.7578 66.9141 69.8906 67.3359L65.625 64.9219C65.0625 64.5938 64.3359 64.6406 63.8203 65.0391C60.4453 67.6172 58.4531 69.6094 55.8984 72.9609C55.5 73.4766 55.4531 74.2031 55.7812 74.7656L58.1953 79.0312C57.7734 79.8984 57.4219 80.7891 57.0938 81.6797L52.3594 82.9922C51.7266 83.1797 51.2578 83.6953 51.1641 84.3516C50.5781 88.7578 50.5781 91.1484 51.1641 95.5547C51.2578 96.2109 51.7266 96.75 52.3594 96.9141L57.0938 98.2266C57.3984 99.1172 57.7734 100.008 58.1719 100.852H15.9844C13.9922 100.828 12.375 99.2344 12.375 97.2422ZM107.344 94.0312L102.82 95.2734C102.281 95.4141 101.859 95.8359 101.695 96.375C101.297 97.6641 100.781 98.9297 100.148 100.125C99.8906 100.617 99.8906 101.203 100.172 101.695L102.469 105.773C100.57 108.164 99.0703 109.664 96.6797 111.562L92.6016 109.242C92.1094 108.961 91.5234 108.961 91.0312 109.219C89.8125 109.852 88.5469 110.391 87.2812 110.766C86.7422 110.93 86.3203 111.352 86.1797 111.891L84.9141 116.414C81.8203 116.789 79.8047 116.789 76.7109 116.414L75.4453 111.891C75.3047 111.352 74.8828 110.93 74.3438 110.766C73.0547 110.367 71.7891 109.852 70.5938 109.219C70.1016 108.961 69.5156 108.961 69.0234 109.242L64.9453 111.539C62.6016 109.664 61.0078 108.094 59.1562 105.75C59.9297 104.391 60.7031 103.031 61.4531 101.672C61.7344 101.18 61.7344 100.594 61.4766 100.102C60.8437 98.9062 60.3281 97.6406 59.9297 96.3516C59.7656 95.8125 59.3437 95.3906 58.8047 95.25L54.2812 93.9844C53.9062 90.8906 53.9062 88.875 54.2812 85.7812L58.8047 84.5156C59.3437 84.375 59.7656 83.9531 59.9297 83.4141C60.3281 82.1484 60.8437 80.8828 61.4766 79.6641C61.7344 79.1719 61.7344 78.5859 61.4531 78.0938L59.1562 74.0156C61.0078 71.6719 62.6016 70.1016 64.9453 68.2266L69.0234 70.5234C69.5156 70.8047 70.1016 70.8047 70.5938 70.5469C71.8125 69.9141 73.0781 69.375 74.3438 69C74.8828 68.8359 75.3047 68.4141 75.4453 67.875L76.7109 63.3516C79.6875 63 81.9141 63 84.9141 63.3516L86.1797 67.875C86.3203 68.4141 86.7422 68.8359 87.2812 69C88.5469 69.3984 89.8125 69.9141 91.0312 70.5469C91.5234 70.8047 92.1094 70.8047 92.6016 70.5234L96.6797 68.2266C99.0703 70.1016 100.57 71.6016 102.469 74.0156L100.172 78.0938C99.8906 78.5859 99.8906 79.1719 100.148 79.6641C100.758 80.8125 101.297 82.1484 101.695 83.4141C101.859 83.9531 102.281 84.3516 102.82 84.5156L107.344 85.7812C107.695 88.9219 107.695 90.9375 107.344 94.0312ZM80.8359 74.8125C72.4922 74.8125 65.6953 81.6094 65.6953 89.9531C65.6953 98.2969 72.4922 105.094 80.8359 105.094C89.1797 105.094 95.9766 98.2969 95.9766 89.9531C95.9531 81.5859 89.1797 74.8125 80.8359 74.8125ZM80.8359 101.789C74.2969 101.789 68.9766 96.4688 68.9766 89.9297C68.9766 83.3906 74.2969 78.0703 80.8359 78.0703C87.375 78.0703 92.6953 83.3906 92.6953 89.9297C92.6719 96.4688 87.375 101.789 80.8359 101.789Z" fill="#542D8C"/>
</g>
<defs>
<clipPath id="clip0_1286_15948">
<rect width="120" height="120" fill="white"/>
</clipPath>
</defs>
</svg>
