<svg width="120" height="120" viewBox="0 0 120 120" fill="none" xmlns="http://www.w3.org/2000/svg">
<g id="Layer_3">
<path id="Vector" d="M91.875 1.875H16.875C16.3777 1.875 15.9008 2.07254 15.5492 2.42417C15.1975 2.77581 15 3.25272 15 3.75V108.75C15 109.247 15.1975 109.724 15.5492 110.076C15.9008 110.427 16.3777 110.625 16.875 110.625H26.25V116.25C26.25 116.747 26.4475 117.224 26.7992 117.576C27.1508 117.927 27.6277 118.125 28.125 118.125H103.125C103.622 118.125 104.099 117.927 104.451 117.576C104.802 117.224 105 116.747 105 116.25V28.125C105 27.6278 104.802 27.1509 104.451 26.7994L93.75 16.0988V3.75C93.75 3.25272 93.5525 2.77581 93.2008 2.42417C92.8492 2.07254 92.3723 1.875 91.875 1.875ZM26.25 11.25V106.875H18.75V5.625H90V12.3488L87.5756 9.92438C87.2241 9.57272 86.7472 9.37511 86.25 9.375H28.125C27.6277 9.375 27.1508 9.57254 26.7992 9.92418C26.4475 10.2758 26.25 10.7527 26.25 11.25ZM86.25 30H93.75V46.875H37.5V20.625H84.375V28.125C84.375 28.6223 84.5725 29.0992 84.9242 29.4508C85.2758 29.8025 85.7527 30 86.25 30ZM88.125 26.25V15.7762L98.5987 26.25H88.125ZM30 114.375V13.125H84.375V16.875H35.625C35.1277 16.875 34.6508 17.0725 34.2992 17.4242C33.9475 17.7758 33.75 18.2527 33.75 18.75V48.75C33.75 49.2473 33.9475 49.7242 34.2992 50.0758C34.6508 50.4275 35.1277 50.625 35.625 50.625H95.625C96.1223 50.625 96.5992 50.4275 96.9508 50.0758C97.3025 49.7242 97.5 49.2473 97.5 48.75V30H101.25V114.375H30Z" fill="#542D8C"/>
<path id="Vector_2" d="M52.5429 57.3042C50.4653 55.4428 47.7649 54.429 44.9757 54.4632C42.1865 54.4974 39.5117 55.5771 37.4804 57.4889C35.4491 59.4006 34.2093 62.005 34.0062 64.787C33.803 67.569 34.6514 70.3259 36.3834 72.5125C38.1154 74.699 40.605 76.1558 43.3596 76.5948C46.1143 77.0338 48.9333 76.4231 51.2592 74.8833C53.5851 73.3435 55.2484 70.9868 55.9201 68.2795C56.5919 65.5722 56.223 62.7114 54.8866 60.2629L59.4485 55.7011L56.7972 53.0498L52.5429 57.3042ZM52.4979 65.6254C52.4979 67.1088 52.058 68.5588 51.2339 69.7922C50.4098 71.0256 49.2384 71.9869 47.868 72.5545C46.4976 73.1222 44.9896 73.2707 43.5347 72.9813C42.0798 72.6919 40.7435 71.9776 39.6946 70.9287C38.6457 69.8798 37.9314 68.5435 37.642 67.0886C37.3526 65.6338 37.5011 64.1257 38.0688 62.7553C38.6364 61.3849 39.5977 60.2135 40.8311 59.3894C42.0645 58.5653 43.5145 58.1254 44.9979 58.1254C46.7928 58.1326 48.5245 58.7893 49.8729 59.9742L44.9979 64.8492L42.5735 62.4248L39.9222 65.0761L43.6722 68.8261C44.0239 69.1776 44.5007 69.375 44.9979 69.375C45.4951 69.375 45.9719 69.1776 46.3235 68.8261L52.0348 63.1148C52.3325 63.9188 52.4892 64.7681 52.4979 65.6254Z" fill="#542D8C"/>
<path id="Vector_3" d="M56.7972 83.0498L52.5429 87.3042C50.4653 85.4428 47.7649 84.429 44.9757 84.4632C42.1865 84.4974 39.5117 85.5772 37.4804 87.4889C35.4491 89.4006 34.2093 92.005 34.0062 94.787C33.803 97.569 34.6514 100.326 36.3834 102.512C38.1154 104.699 40.605 106.156 43.3596 106.595C46.1143 107.034 48.9333 106.423 51.2592 104.883C53.5851 103.343 55.2484 100.987 55.9201 98.2795C56.5919 95.5722 56.223 92.7114 54.8866 90.2629L59.4485 85.7011L56.7972 83.0498ZM52.4979 95.6254C52.4979 97.1088 52.058 98.5588 51.2339 99.7922C50.4098 101.026 49.2384 101.987 47.868 102.555C46.4976 103.122 44.9896 103.271 43.5347 102.981C42.0798 102.692 40.7435 101.978 39.6946 100.929C38.6457 99.8798 37.9314 98.5435 37.642 97.0886C37.3526 95.6338 37.5011 94.1257 38.0688 92.7553C38.6364 91.3849 39.5977 90.2135 40.8311 89.3894C42.0645 88.5653 43.5145 88.1254 44.9979 88.1254C46.7928 88.1326 48.5245 88.7893 49.8729 89.9742L44.9979 94.8492L42.5735 92.4248L39.9222 95.0761L43.6722 98.8261C44.0239 99.1776 44.5007 99.375 44.9979 99.375C45.4951 99.375 45.9719 99.1776 46.3235 98.8261L52.0348 93.1148C52.3325 93.9188 52.4892 94.7681 52.4979 95.6254Z" fill="#542D8C"/>
<path id="Vector_4" d="M60 69.375H97.5V73.125H60V69.375Z" fill="#542D8C"/>
<path id="Vector_5" d="M60 61.875H97.5V65.625H60V61.875Z" fill="#542D8C"/>
<path id="Vector_6" d="M60 99.375H97.5V103.125H60V99.375Z" fill="#542D8C"/>
<path id="Vector_7" d="M60 91.875H97.5V95.625H60V91.875Z" fill="#542D8C"/>
<path id="Vector_8" d="M41.25 24.375H80.625V28.125H41.25V24.375Z" fill="#542D8C"/>
<path id="Vector_9" d="M41.25 31.875H90V35.625H41.25V31.875Z" fill="#542D8C"/>
<path id="Vector_10" d="M41.25 39.375H90V43.125H41.25V39.375Z" fill="#542D8C"/>
</g>
</svg>
