<svg width="120" height="120" viewBox="0 0 120 120" fill="none" xmlns="http://www.w3.org/2000/svg">
<g id="Layer_1">
<path id="Vector" fill-rule="evenodd" clip-rule="evenodd" d="M9.53407 19.458H16.4519C16.9211 19.4556 17.3705 19.2682 17.7023 18.9364C18.0341 18.6045 18.2216 18.1552 18.224 17.6859V8.92969L9.53407 19.458ZM54.5479 98.6119V59.2388H44.7426V98.6119H54.5479ZM33.869 98.6119V75.0265H24.0639V98.6119H33.869ZM51.2624 42.1352C50.9426 41.8153 50.535 41.5974 50.0913 41.5091C49.6476 41.4208 49.1877 41.4661 48.7697 41.6392C48.3518 41.8123 47.9945 42.1055 47.7432 42.4816C47.4918 42.8578 47.3577 43.3 47.3577 43.7524C47.3577 44.2048 47.4918 44.6471 47.7432 45.0232C47.9945 45.3994 48.3518 45.6925 48.7697 45.8656C49.1877 46.0387 49.6476 46.084 50.0913 45.9957C50.535 45.9074 50.9426 45.6895 51.2624 45.3696C51.6889 44.9394 51.9282 44.3582 51.9282 43.7524C51.9282 43.1467 51.6889 42.5654 51.2624 42.1352ZM70.3239 43.4477C69.8715 43.4477 69.4293 43.5819 69.0531 43.8332C68.677 44.0846 68.3838 44.4418 68.2107 44.8598C68.0376 45.2777 67.9923 45.7376 68.0806 46.1813C68.1689 46.625 68.3867 47.0326 68.7066 47.3524C69.0266 47.6723 69.4341 47.8901 69.8778 47.9783C70.3215 48.0666 70.7814 48.0212 71.1994 47.8481C71.6173 47.6749 71.9745 47.3817 72.2258 47.0056C72.4771 46.6294 72.6112 46.1872 72.6112 45.7348C72.612 45.4342 72.5534 45.1364 72.4387 44.8586C72.324 44.5807 72.1556 44.3282 71.943 44.1157C71.7305 43.9032 71.478 43.7348 71.2001 43.6201C70.9223 43.5055 70.6245 43.4469 70.3239 43.4477ZM29.4196 57.372C29.0998 57.052 28.6922 56.8341 28.2485 56.7459C27.8048 56.6576 27.3449 56.7028 26.9269 56.8759C26.509 57.049 26.1517 57.3422 25.9004 57.7184C25.649 58.0945 25.5149 58.5367 25.5149 58.9891C25.5149 59.4415 25.649 59.8838 25.9004 60.2599C26.1517 60.6361 26.509 60.9292 26.9269 61.1023C27.3449 61.2754 27.8048 61.3207 28.2485 61.2324C28.6922 61.1441 29.0998 60.9263 29.4196 60.6063C29.8461 60.1762 30.0854 59.5949 30.0854 58.9891C30.0854 58.3834 29.8461 57.8021 29.4196 57.372ZM76.693 35.7811C76.4972 35.7873 76.3021 35.7548 76.1188 35.6855C75.9355 35.6163 75.7676 35.5116 75.6248 35.3774C75.482 35.2433 75.3669 35.0824 75.2863 34.9038C75.2057 34.7252 75.161 34.5325 75.1548 34.3366C75.1487 34.1408 75.1812 33.9457 75.2504 33.7624C75.3197 33.5791 75.4244 33.4112 75.5585 33.2684C75.6926 33.1255 75.8536 33.0105 76.0322 32.9299C76.2107 32.8493 76.4035 32.8046 76.5993 32.7984L82.1242 32.6093C82.325 32.6032 82.5248 32.6376 82.712 32.7105C82.8991 32.7834 83.0696 32.8933 83.2134 33.0335C83.3571 33.1737 83.4711 33.3415 83.5486 33.5268C83.6261 33.7121 83.6654 33.9111 83.6643 34.1119L83.8518 39.5787C83.858 39.7745 83.8255 39.9697 83.7562 40.1529C83.687 40.3362 83.5823 40.5041 83.4481 40.6469C83.314 40.7898 83.1531 40.9048 82.9745 40.9854C82.7959 41.066 82.6032 41.1107 82.4073 41.1169C82.2115 41.123 82.0164 41.0906 81.8331 41.0213C81.6498 40.952 81.4819 40.8474 81.3391 40.7132C81.1963 40.5791 81.0812 40.4181 81.0006 40.2396C80.92 40.061 80.8753 39.8683 80.8691 39.6724L80.8012 37.6877L75.1448 43.575C75.4443 44.2427 75.6019 44.9653 75.6075 45.6971C75.6131 46.4289 75.4665 47.1539 75.1772 47.8261C74.8878 48.4982 74.462 49.103 73.9266 49.6019C73.3913 50.1008 72.7581 50.4831 72.0672 50.7244C71.3764 50.9658 70.6429 51.061 69.9133 51.0039C69.1837 50.9469 68.4739 50.7389 67.829 50.3931C67.184 50.0473 66.6179 49.5713 66.1666 48.9952C65.7153 48.4191 65.3886 47.7555 65.2073 47.0466L54.6484 45.4507C54.3654 46.2843 53.8785 47.0339 53.232 47.6314C52.5855 48.229 51.7999 48.6555 50.9467 48.8722C50.0934 49.0889 49.1995 49.0889 48.3463 48.8722C47.493 48.6555 46.7075 48.2291 46.0609 47.6316L32.4906 56.5528C33.0754 57.6776 33.236 58.9752 32.9431 60.2086C32.6503 61.442 31.9235 62.5289 30.8956 63.2708C29.8677 64.0127 28.6072 64.36 27.3443 64.2495C26.0815 64.1389 24.9005 63.5777 24.0172 62.6684C23.1339 61.7592 22.6071 60.5625 22.5331 59.297C22.4591 58.0314 22.8428 56.7815 23.6141 55.7755C24.3854 54.7694 25.4929 54.0744 26.7342 53.8174C27.9756 53.5604 29.268 53.7584 30.3754 54.3755L44.5316 45.0708C44.359 44.3989 44.3205 43.6995 44.4181 43.0127C44.5158 42.3259 44.7478 41.665 45.1008 41.0679C45.4539 40.4707 45.9211 39.9489 46.4758 39.5323C47.0305 39.1157 47.6619 38.8125 48.3338 38.6399C49.0057 38.4673 49.705 38.4287 50.3919 38.5264C51.0787 38.624 51.7395 38.856 52.3367 39.2091C52.9339 39.5621 53.4556 40.0294 53.8722 40.5841C54.2888 41.1388 54.5921 41.7701 54.7647 42.442L65.3237 44.0379C65.5821 43.2772 66.0106 42.5854 66.5766 42.0152C67.1425 41.445 67.8311 41.0114 68.5898 40.7473C69.3486 40.4833 70.1576 40.3957 70.9552 40.4914C71.7529 40.587 72.5183 40.8633 73.1931 41.2992L78.5559 35.718L76.6959 35.7816L76.693 35.7811ZM64.4071 73.6392C64.4345 76.56 65.3275 79.4071 66.973 81.8204C68.6186 84.2337 70.9428 86.1048 73.6517 87.1971C76.3607 88.2895 79.3328 88.554 82.1921 87.9572C85.0514 87.3604 87.6695 85.9291 89.7153 83.8443C91.7612 81.7595 93.1429 79.1149 93.6856 76.2448C94.2284 73.3748 93.9079 70.4082 92.7647 67.7203C91.6215 65.0324 89.7069 62.7439 87.263 61.1442C84.8191 59.5444 81.9557 58.7053 79.0349 58.733C77.0956 58.7508 75.1787 59.1505 73.3938 59.9093C71.609 60.6682 69.9911 61.7712 68.6327 63.1555C67.2743 64.5398 66.202 66.1781 65.4769 67.977C64.7519 69.7758 64.3883 71.6999 64.4071 73.6392ZM67.3898 73.6158C67.4128 75.9466 68.1265 78.2183 69.4405 80.1436C70.7546 82.0688 72.6101 83.5611 74.7723 84.4318C76.9346 85.3026 79.3064 85.5126 81.588 85.0353C83.8696 84.558 85.9584 83.4148 87.5903 81.7504C89.2221 80.0859 90.3238 77.975 90.756 75.6844C91.1881 73.3939 90.9313 71.0266 90.0181 68.882C89.1049 66.7374 87.5762 64.9117 85.6254 63.6359C83.6745 62.3601 81.3892 61.6914 79.0584 61.7145C75.9331 61.7463 72.9483 63.0178 70.7603 65.2495C68.5722 67.4812 67.3598 70.4905 67.3898 73.6158ZM75.2261 93.7563C71.5766 93.0491 68.1877 91.3642 65.421 88.8813V98.613H75.2261V93.7568V93.7563ZM58.5435 73.6957C58.58 77.9553 59.9367 82.0988 62.4266 85.5551V98.6114H57.542V57.7416C57.542 57.3445 57.3842 56.9637 57.1035 56.683C56.8227 56.4022 56.4419 56.2444 56.0448 56.2444H43.2452C42.8481 56.2444 42.4673 56.4022 42.1866 56.683C41.9058 56.9637 41.748 57.3445 41.748 57.7416V98.6119H36.8634V73.5293C36.8634 73.1322 36.7056 72.7514 36.4248 72.4706C36.1441 72.1898 35.7633 72.0321 35.3662 72.0321H22.5667C22.1696 72.0321 21.7888 72.1898 21.5081 72.4706C21.2273 72.7514 21.0695 73.1322 21.0695 73.5293V98.6119H18.2336C17.8365 98.6119 17.4557 98.7696 17.1749 99.0504C16.8941 99.3312 16.7364 99.712 16.7364 100.109C16.7364 100.506 16.8941 100.887 17.1749 101.168C17.4557 101.449 17.8365 101.606 18.2336 101.606H81.0573C81.4544 101.606 81.8352 101.449 82.116 101.168C82.3968 100.887 82.5545 100.506 82.5545 100.109C82.5545 99.712 82.3968 99.3312 82.116 99.0504C81.8352 98.7696 81.4544 98.6119 81.0573 98.6119H78.2214V94.1119C82.3407 94.3027 86.4227 93.2542 89.9402 91.1018C90.4237 91.5762 90.9271 92.1096 91.4287 92.5568V111.483C91.4262 111.952 91.2387 112.401 90.9069 112.733C90.5751 113.065 90.1258 113.252 89.6566 113.254H9.63368C9.16446 113.252 8.71515 113.065 8.38334 112.733C8.05153 112.401 7.86403 111.952 7.86157 111.483V22.4531H16.4519C17.7154 22.4506 18.9264 21.9475 19.8197 21.054C20.7131 20.1605 21.216 18.9494 21.2184 17.6859V6.74437H89.6559C90.1252 6.74678 90.5745 6.93428 90.9064 7.26615C91.2382 7.59802 91.4256 8.04743 91.428 8.51672V56.8948C88.3418 54.6187 84.6825 53.2475 80.8606 52.9351C77.0387 52.6226 73.2053 53.3812 69.7904 55.1258C66.3756 56.8704 63.5144 59.532 61.5277 62.8119C59.5411 66.0919 58.5076 69.8605 58.5433 73.695L58.5435 73.6957ZM61.5262 73.6723C61.664 87.9712 77.8209 95.9876 89.2762 87.9759C89.5615 87.7769 89.9074 87.6838 90.2541 87.7129C90.6008 87.7419 90.9264 87.8913 91.1746 88.1351L93.4089 90.3244C93.4393 90.3514 93.4788 90.366 93.5194 90.365C93.5601 90.3641 93.5989 90.3478 93.6281 90.3195L96.2734 87.6225C96.3016 87.5927 96.3168 87.5529 96.3159 87.5119C96.315 87.4709 96.298 87.4319 96.2685 87.4034L94.0352 85.2129C93.7821 84.9639 93.6261 84.633 93.5949 84.2794C93.5638 83.9258 93.6596 83.5726 93.8652 83.2833C95.3964 80.9843 96.3667 78.358 96.6979 75.6158C97.0291 72.8735 96.7121 70.0917 95.7723 67.4943C94.8325 64.8968 93.2962 62.5563 91.2869 60.6608C89.2777 58.7653 86.8516 57.3679 84.2039 56.5809C81.5561 55.794 78.7606 55.6394 76.0423 56.1298C73.3239 56.6201 70.7586 57.7416 68.5527 59.4041C66.3468 61.0666 64.5619 63.2236 63.3415 65.7016C62.1212 68.1796 61.4995 70.9095 61.5264 73.6716L61.5262 73.6723ZM103.307 91.6563C103.855 91.2674 104.523 91.0832 105.193 91.1358C105.864 91.1884 106.495 91.4744 106.976 91.9441L113.478 98.3222C114.528 99.3655 115.124 100.78 115.138 102.26C115.152 103.74 114.582 105.166 113.552 106.228L112.558 107.241C111.515 108.291 110.1 108.887 108.62 108.901C107.14 108.915 105.715 108.345 104.652 107.315L98.1498 100.937C97.672 100.465 97.3748 99.8397 97.3098 99.171C97.2449 98.5022 97.4163 97.8319 97.7943 97.2764L94.4226 93.9694V111.484C94.4197 112.748 93.9166 113.958 93.0234 114.851C92.1302 115.744 90.9197 116.247 89.6566 116.25H9.63368C8.37038 116.247 7.15959 115.744 6.26629 114.851C5.37298 113.958 4.86992 112.747 4.86719 111.484V20.9552C4.86638 20.5632 5.02015 20.1866 5.29516 19.9071L18.1766 4.29984C18.3164 4.12946 18.4923 3.99226 18.6915 3.89814C18.8908 3.80403 19.1085 3.75535 19.3288 3.75563L89.6566 3.75C90.9199 3.75272 92.1307 4.25581 93.0241 5.14916C93.9174 6.04251 94.4204 7.25337 94.423 8.51672V59.5964C97.3876 62.8485 99.235 66.9629 99.6959 71.3391C100.157 75.7154 99.2068 80.1244 96.9848 83.9227L98.3627 85.2741C98.6843 85.5906 98.9339 85.9728 99.0943 86.3946C99.2548 86.8164 99.3225 87.2678 99.2927 87.7181L103.307 91.6556L103.307 91.6563ZM99.8538 95.1141L96.4155 91.7416L97.7462 90.3848L101.185 93.7573L99.8538 95.1141ZM104.972 94.1604L100.33 98.8927L106.746 105.186C107.241 105.665 107.906 105.93 108.596 105.923C109.285 105.915 109.944 105.637 110.43 105.147L111.423 104.135C111.902 103.639 112.167 102.974 112.16 102.285C112.153 101.595 111.874 100.937 111.385 100.451L104.972 94.1604ZM83.6748 69.2316C83.7634 69.4068 83.8164 69.5978 83.831 69.7935C83.8455 69.9893 83.8212 70.186 83.7595 70.3724C83.6978 70.5588 83.6 70.7311 83.4715 70.8796C83.343 71.028 83.1865 71.1496 83.0109 71.2374C82.8353 71.3252 82.6441 71.3774 82.4482 71.3911C82.2524 71.4048 82.0558 71.3797 81.8697 71.3172C81.6836 71.2548 81.5117 71.1561 81.3638 71.027C81.2159 70.8979 81.0949 70.7409 81.0079 70.5649C80.8261 70.2577 80.5406 70.0255 80.2028 69.9101C79.4256 69.5988 78.1696 69.7029 77.6523 70.4571C77.5916 70.5389 77.5484 70.6324 77.5254 70.7317C77.5024 70.831 77.5002 70.9339 77.5188 71.0341C77.6976 71.8214 78.7663 71.9527 79.4245 72.0654C81.5807 72.4329 83.237 73.0235 83.755 75.4209C83.8614 75.9168 83.8639 76.4293 83.7624 76.9262C83.6608 77.4231 83.4575 77.8936 83.1651 78.308C82.5569 79.1627 81.6786 79.7876 80.6718 80.0822V81.1737C80.6669 81.5675 80.507 81.9435 80.2268 82.2202C79.9465 82.4969 79.5686 82.6521 79.1747 82.6521C78.7809 82.6521 78.4029 82.4969 78.1227 82.2202C77.8425 81.9435 77.6826 81.5675 77.6777 81.1737V80.153C77.4593 80.0965 77.2448 80.026 77.0355 79.942C76.0197 79.5552 75.1802 78.8107 74.6746 77.8486C74.4998 77.4952 74.4721 77.0869 74.5976 76.7131C74.7231 76.3393 74.9916 76.0304 75.3442 75.8541C75.6969 75.6778 76.1051 75.6483 76.4794 75.7722C76.8537 75.8962 77.1637 76.1633 77.3416 76.5152C77.5233 76.8225 77.8088 77.0546 78.1466 77.1698C78.6914 77.3759 79.2898 77.392 79.8449 77.2155C80.1856 77.1152 80.4846 76.9073 80.6971 76.6228C80.7665 76.5306 80.8133 76.4234 80.8336 76.3098C80.854 76.1962 80.8474 76.0795 80.8143 75.9689C80.5905 75.2965 79.7563 75.1542 78.9227 75.0122C77.2117 74.7204 75.4991 74.4284 74.7065 72.0466C74.6626 71.9177 74.6255 71.7866 74.5954 71.6538C74.4894 71.1589 74.4872 70.6474 74.5887 70.1515C74.6902 69.6556 74.8934 69.1861 75.1853 68.7727C75.7935 67.918 76.6718 67.293 77.6786 66.9984V65.8242C77.6761 65.626 77.713 65.4293 77.7871 65.2455C77.8613 65.0617 77.9711 64.8945 78.1104 64.7535C78.2496 64.6124 78.4155 64.5005 78.5984 64.4241C78.7813 64.3476 78.9775 64.3083 79.1757 64.3083C79.3739 64.3083 79.5701 64.3476 79.7529 64.4241C79.9358 64.5005 80.1017 64.6124 80.2409 64.7535C80.3802 64.8945 80.4901 65.0617 80.5642 65.2455C80.6383 65.4293 80.6752 65.626 80.6727 65.8242V66.9279C80.8911 66.9844 81.1056 67.0548 81.3149 67.1388C82.3302 67.5257 83.1693 68.2699 83.6748 69.2316ZM28.7209 22.4906H42.7462C43.1433 22.4906 43.5241 22.3329 43.8048 22.0521C44.0856 21.7713 44.2434 21.3905 44.2434 20.9934C44.2434 20.5964 44.0856 20.2155 43.8048 19.9348C43.5241 19.654 43.1433 19.4962 42.7462 19.4962H28.7209C28.3239 19.4962 27.943 19.654 27.6623 19.9348C27.3815 20.2155 27.2238 20.5964 27.2238 20.9934C27.2238 21.3905 27.3815 21.7713 27.6623 22.0521C27.943 22.3329 28.3239 22.4906 28.7209 22.4906ZM28.7209 29.2364H49.645C50.0421 29.2364 50.4229 29.0787 50.7037 28.7979C50.9845 28.5171 51.1422 28.1363 51.1422 27.7392C51.1422 27.3421 50.9845 26.9613 50.7037 26.6805C50.4229 26.3998 50.0421 26.242 49.645 26.242H28.7209C28.3239 26.242 27.943 26.3998 27.6623 26.6805C27.3815 26.9613 27.2238 27.3421 27.2238 27.7392C27.2238 28.1363 27.3815 28.5171 27.6623 28.7979C27.943 29.0787 28.3239 29.2364 28.7209 29.2364Z" fill="#542D8C"/>
</g>
</svg>
