<svg width="120" height="120" viewBox="0 0 120 120" fill="none" xmlns="http://www.w3.org/2000/svg">
<g id="Layer_1">
<path id="Vector" d="M37.9419 69.9609V76.5469H44.5278C44.1059 73.125 41.3872 70.4062 37.9419 69.9609ZM44.5278 78.4453H37.0044C36.4887 78.4453 36.0669 78.0234 36.0669 77.5078V69.9844C29.8325 70.7578 27.1606 78.4219 31.6372 82.8984C36.1137 87.375 43.7778 84.6797 44.5278 78.4453ZM37.0044 68.0391C42.2309 68.0391 46.4731 72.2812 46.4731 77.5078C46.4731 82.7344 42.2309 86.9766 37.0044 86.9766C31.7778 86.9766 27.5356 82.7344 27.5356 77.5078C27.5356 72.2812 31.7778 68.0391 37.0044 68.0391ZM20.7153 85.1719C19.4731 85.1719 19.4731 83.2969 20.7153 83.2969H25.3559C26.5981 83.2969 26.5981 85.1719 25.3559 85.1719H20.7153ZM20.7153 81.2812C19.4731 81.2812 19.4731 79.4062 20.7153 79.4062H25.3559C26.5981 79.4062 26.5981 81.2812 25.3559 81.2812H20.7153ZM20.7153 77.3906C19.4731 77.3906 19.4731 75.5156 20.7153 75.5156H22.1684C23.4106 75.5156 23.4106 77.3906 22.1684 77.3906H20.7153ZM20.7153 73.5C19.4731 73.5 19.4731 71.625 20.7153 71.625H22.5669C23.809 71.625 23.809 73.5 22.5669 73.5H20.7153ZM20.7153 69.6094C19.4731 69.6094 19.4731 67.7344 20.7153 67.7344H24.9575C26.1997 67.7344 26.1997 69.6094 24.9575 69.6094H20.7153ZM23.5981 55.875H16.8481V93.2344H23.1997C23.7153 93.2344 24.1372 93.6562 24.1372 94.1719V100.523H48.6294V55.875H23.5981ZM22.6606 54V47.7188C22.6606 47.2031 23.0825 46.7813 23.5981 46.7813H33.5825C35.1997 45.4219 36.9106 44.1797 38.7153 43.0781L29.8794 27.7734C20.9262 33.1641 13.5434 40.8281 8.52779 50.0156L16.1215 54H22.6606ZM36.5825 46.8047H57.2544C57.77 46.8047 58.1919 47.2266 58.1919 47.7422V67.875C59.1528 67.7109 60.1372 67.6641 61.1215 67.7812L69.1372 53.8828C70.0981 52.2187 72.4184 51.1406 74.1528 52.125C74.3403 52.2422 74.5044 52.3594 74.6684 52.5C75.559 53.0625 76.145 53.9062 76.4028 54.8438C76.6606 55.8516 76.5434 56.9531 75.9809 57.8906L75.77 58.2422L78.5825 59.9062C79.0043 60.1641 79.1684 60.7031 78.934 61.1484L76.7778 65.2266C76.52 65.6953 75.934 65.8828 75.4184 65.5781L72.4887 63.8906L68.059 71.5781C71.4106 75.6797 71.1059 81.6797 67.3325 85.4297C64.9887 87.7969 61.5903 88.9219 58.1684 88.3125V94.2891C58.1684 94.8047 57.7465 95.2266 57.2309 95.2266H50.5044V101.508C50.5044 102.023 50.0825 102.445 49.5669 102.445H23.1997C22.9419 102.445 22.7075 102.352 22.52 102.164L15.2544 94.8984C15.0669 94.7109 14.9731 94.4766 14.9731 94.2188V55.5469L6.81686 51.2813C6.34811 51.0469 6.18404 50.4609 6.41842 50.0156C16.8247 30.2109 37.309 17.6016 59.9965 17.6016C82.7075 17.6016 103.168 30.2344 113.551 49.9922C113.786 50.4609 113.622 51.0234 113.106 51.2813L95.8559 60.3047C95.4106 60.5391 94.8481 60.375 94.5903 59.9062C83.3637 38.5312 55.7075 32.4609 36.5825 46.8047ZM58.1684 69.7734V73.4766C61.4262 72.1875 64.9653 74.6016 64.9653 78.0938C64.9653 81.5859 61.4262 84 58.1684 82.7109V86.3906C64.8715 87.8438 70.3559 81.2344 67.9184 74.9766C67.52 73.9687 66.9575 73.0781 66.2309 72.3047C65.9497 72.0234 65.9028 71.5781 66.1137 71.2031L71.3403 62.1328C71.5981 61.6875 72.1606 61.5234 72.6059 61.7812L75.559 63.4922L76.8481 61.0547L74.0122 59.3906C73.5668 59.1328 73.4262 58.5703 73.684 58.125C74.2465 57.1641 74.8559 56.4141 74.5747 55.3359C74.3169 54.3516 73.6606 54.1641 73.4028 53.9297C72.6997 53.2266 71.2465 53.9531 70.7543 54.8438L62.434 69.2578C62.0356 69.9609 61.3794 69.7031 60.7231 69.6562C59.8559 69.5391 59.0122 69.5859 58.1684 69.7734ZM58.1684 75.5625V80.5547C60.1606 82.0312 63.0669 80.6016 63.0669 78.0469C63.0903 75.5156 60.184 74.1094 58.1684 75.5625ZM50.5044 93.3281H56.2934V48.6797H24.5356V54.0234H49.5669C50.0825 54.0234 50.5044 54.4453 50.5044 54.9609V93.3281ZM20.7153 61.7109C19.4731 61.7109 19.4731 59.8359 20.7153 59.8359H41.9028C43.145 59.8359 43.145 61.7109 41.9028 61.7109H20.7153ZM20.7153 65.7422C19.4731 65.7422 19.4731 63.8672 20.7153 63.8672H31.145C32.3637 63.8672 32.3637 65.7422 31.145 65.7422H20.7153ZM22.2622 99.2109V95.1328H18.184L22.2622 99.2109ZM31.4965 26.8594L40.3325 42.1641C46.0278 39.0234 52.4028 37.3125 59.059 37.1484V19.4766C49.0747 19.6406 39.6762 22.2891 31.4965 26.8594ZM90.1137 27.7734L81.2778 43.0781C87.3481 46.7813 92.3637 51.9844 95.809 58.2187L111.465 50.0156C106.45 40.8281 99.0434 33.1641 90.1137 27.7734ZM79.6606 42.1641L88.4965 26.8594C80.3169 22.2891 70.9419 19.6406 60.934 19.4766V37.1484C67.7075 37.2891 74.0825 39.0937 79.6606 42.1641Z" fill="#542D8C"/>
</g>
</svg>
