<svg width="246" height="246" viewBox="0 0 246 246" fill="none" xmlns="http://www.w3.org/2000/svg">
<g id="Group">
<path id="Vector" d="M119.028 67.4517C119.028 39.011 95.8886 15.8711 67.4478 15.8711C39.0071 15.8711 15.8672 39.011 15.8672 67.4517C15.8672 95.8925 39.0071 119.032 67.4478 119.032C95.8886 119.032 119.028 95.8925 119.028 67.4517ZM67.4478 71.4195C71.118 71.4195 74.6413 72.0702 77.9346 73.2248C75.911 77.0418 71.9195 79.6049 67.4478 79.6049C62.9762 79.6049 58.9846 77.0418 56.9611 73.2248C60.2543 72.0702 63.7777 71.4195 67.4478 71.4195ZM55.5446 51.5808C55.5446 45.0181 60.8852 39.6775 67.4478 39.6775C74.0105 39.6775 79.3511 45.0181 79.3511 51.5808C79.3511 58.1434 74.0105 63.484 67.4478 63.484C60.8852 63.484 55.5446 58.1434 55.5446 51.5808ZM71.4156 110.895V87.0921C77.2799 85.874 82.2713 82.0292 85.0091 76.7442C92.1113 81.4658 97.2059 88.9807 98.6978 97.8565C91.6312 105.118 82.0769 109.93 71.4156 110.895ZM67.4478 23.8066C91.5122 23.8066 111.093 43.3874 111.093 67.4517C111.093 75.6689 108.768 83.3346 104.804 89.9052C100.852 78.7122 92.0955 69.9435 81.085 65.9202C84.8861 62.3016 87.2865 57.2269 87.2865 51.5808C87.2865 40.6417 78.3869 31.7421 67.4478 31.7421C56.5088 31.7421 47.6091 40.6417 47.6091 51.5808C47.6091 57.2269 50.0096 62.3016 53.8107 65.9162C42.8002 69.9435 34.0474 78.7082 30.0915 89.9012C26.1278 83.3346 23.8027 75.6689 23.8027 67.4517C23.8027 43.3874 43.3835 23.8066 67.4478 23.8066ZM36.1979 97.8565C37.6898 88.9847 42.7844 81.4698 49.8866 76.7442C52.6244 82.0292 57.6158 85.874 63.4801 87.0921V110.895C52.8188 109.93 43.2644 105.118 36.1979 97.8565Z" fill="#FFA500" fill-opacity="0.15"/>
<path id="Vector_2" d="M194.422 0H202.357V15.871H194.422V0Z" fill="black" fill-opacity="0.15"/>
<path id="Vector_3" d="M151.922 18.6934L157.533 13.0821L169.437 24.9864L163.826 30.5976L151.922 18.6934Z" fill="black" fill-opacity="0.15"/>
<path id="Vector_4" d="M227.297 24.9912L239.201 13.087L244.812 18.6982L232.908 30.6024L227.297 24.9912Z" fill="black" fill-opacity="0.15"/>
<path id="Vector_5" d="M214.258 126.968V238.065H206.323V142.839H174.581V238.065H166.645V182.516H134.903V238.065H126.968V174.581H95.2258V238.065H83.2194C85.7389 234.74 87.2903 230.645 87.2903 226.161V162.677C87.2903 158.452 85.0605 154.754 81.7315 152.643C82.7155 150.909 83.3226 148.937 83.3226 146.806V132.939C93.1467 130.559 102.146 126.067 109.772 119.901L130.84 143.077C128.436 146.358 126.968 150.369 126.968 154.742C126.968 165.681 135.867 174.581 146.806 174.581C157.746 174.581 166.645 165.681 166.645 154.742C166.645 150.445 165.237 146.489 162.904 143.235L187.488 116.763C189.444 118.175 191.828 119.032 194.419 119.032H202.355C208.917 119.032 214.258 113.692 214.258 107.129V96.0511C214.258 93.3967 215.567 90.9049 217.674 89.548C227.959 82.9417 234.097 71.713 234.097 59.5161C234.097 49.3587 229.748 39.6496 222.17 32.8767C214.595 26.1117 204.418 22.882 194.241 24.0405C178.167 25.8578 165.018 38.8125 162.975 54.8421C161.201 68.761 167.411 82.0807 179.179 89.6035C181.239 90.9168 182.512 93.4522 182.512 96.2177V107.129C182.512 108.133 182.675 109.093 182.909 110.025L157.067 137.851C154.067 136.018 150.576 134.903 146.806 134.903C143.112 134.903 139.688 135.986 136.724 137.752L115.64 114.561C127.535 102.392 134.903 85.7746 134.903 67.4516C134.903 30.258 104.645 0 67.4516 0C30.258 0 0 30.258 0 67.4516C0 99.1697 22.0329 125.773 51.5806 132.939V146.806C51.5806 148.937 52.1877 150.909 53.1717 152.643C49.8428 154.754 47.6129 158.452 47.6129 162.677V226.161C47.6129 237.1 56.5126 246 67.4516 246H246V126.968H214.258ZM182.516 150.774H198.387V238.065H182.516V150.774ZM142.839 190.452H158.71V238.065H142.839V190.452ZM103.161 182.516H119.032V238.065H103.161V182.516ZM202.355 111.097H194.419C192.233 111.097 190.452 109.315 190.452 107.129V103.161H206.323V107.129C206.323 109.315 204.541 111.097 202.355 111.097ZM194.419 59.5161C194.419 57.3299 196.201 55.5484 198.387 55.5484C200.573 55.5484 202.355 57.3299 202.355 59.5161C202.355 61.7024 200.573 63.4839 198.387 63.4839C196.201 63.4839 194.419 61.7024 194.419 59.5161ZM170.851 55.846C172.438 43.3992 182.651 33.337 195.134 31.9244C196.237 31.8015 197.332 31.7419 198.423 31.7419C205.267 31.7419 211.727 34.19 216.881 38.7966C222.777 44.0618 226.161 51.6164 226.161 59.5161C226.161 68.999 221.384 77.732 213.385 82.8742C209.191 85.5723 206.632 90.1471 206.374 95.2258H202.355V70.6893C206.961 69.0466 210.29 64.6821 210.29 59.5161C210.29 52.9535 204.95 47.6129 198.387 47.6129C191.824 47.6129 186.484 52.9535 186.484 59.5161C186.484 64.6821 189.813 69.0466 194.419 70.6893V95.2258H190.392C190.098 90.1035 187.571 85.5485 183.456 82.9179C174.295 77.0655 169.466 66.6938 170.851 55.846ZM158.71 154.742C158.71 161.305 153.369 166.645 146.806 166.645C140.244 166.645 134.903 161.305 134.903 154.742C134.903 148.179 140.244 142.839 146.806 142.839C153.369 142.839 158.71 148.179 158.71 154.742ZM7.93548 67.4516C7.93548 34.6344 34.6344 7.93548 67.4516 7.93548C100.269 7.93548 126.968 34.6344 126.968 67.4516C126.968 100.269 100.269 126.968 67.4516 126.968C34.6344 126.968 7.93548 100.269 7.93548 67.4516ZM67.4516 134.903C70.1417 134.903 72.7803 134.701 75.3871 134.395V146.806C75.3871 148.993 73.6056 150.774 71.4194 150.774H63.4839C61.2976 150.774 59.5161 148.993 59.5161 146.806V134.395C62.1229 134.701 64.7615 134.903 67.4516 134.903ZM55.5484 226.161V162.677C55.5484 160.491 57.3299 158.71 59.5161 158.71H63.4839H71.4194H75.3871C77.5733 158.71 79.3548 160.491 79.3548 162.677V226.161C79.3548 232.724 74.0143 238.065 67.4516 238.065C60.889 238.065 55.5484 232.724 55.5484 226.161ZM238.065 238.065H222.194V134.903H238.065V238.065Z" fill="#FFA500" fill-opacity="0.15"/>
</g>
</svg>
