<svg width="120" height="120" viewBox="0 0 120 120" fill="none" xmlns="http://www.w3.org/2000/svg">
<g id="Layer_1">
<g id="Group">
<g id="Group_2">
<path id="Vector" d="M108.909 118.182H38.3636C33.6364 118.182 30 114.364 30 109.818V96.3637C30 95.2728 30.7273 94.5455 31.8182 94.5455C32.9091 94.5455 33.6364 95.2728 33.6364 96.3637V109.818C33.6364 112.546 35.8182 114.546 38.3636 114.546H108.909C111.636 114.546 113.636 112.364 113.636 109.818V19.2728C113.636 16.5455 111.455 14.5455 108.909 14.5455H89.6364C88.5455 14.5455 87.8182 13.8183 87.8182 12.7274C87.8182 11.6365 88.5455 10.9092 89.6364 10.9092H108.909C113.636 10.9092 117.273 14.7274 117.273 19.2728V109.818C117.273 114.364 113.455 118.182 108.909 118.182Z" fill="#542D8C"/>
</g>
<g id="Group_3">
<path id="Vector_2" d="M31.6385 36.1819C30.5476 36.1819 29.8203 35.4546 29.8203 34.3637V19.2728C29.8203 14.5455 33.6385 10.9092 38.1839 10.9092H57.4567C58.5476 10.9092 59.2749 11.6365 59.2749 12.7274C59.2749 13.8183 58.5476 14.5455 57.4567 14.5455H38.3658C35.6385 14.5455 33.6385 16.7274 33.6385 19.2728V34.3637C33.4567 35.4546 32.7294 36.1819 31.6385 36.1819Z" fill="#542D8C"/>
</g>
<g id="Group_4">
<path id="Vector_3" d="M39.9979 36.1817C38.907 36.1817 38.1797 35.4545 38.1797 34.3635V20.909C38.1797 19.8181 38.907 19.0908 39.9979 19.0908H57.4524C58.5433 19.0908 59.2706 19.8181 59.2706 20.909C59.2706 21.9999 58.5433 22.7272 57.4524 22.7272H41.8161V34.3635C41.8161 35.4545 40.907 36.1817 39.9979 36.1817Z" fill="#542D8C"/>
</g>
<g id="Group_5">
<path id="Vector_4" d="M107.271 110H39.9979C38.907 110 38.1797 109.273 38.1797 108.182V96.3635C38.1797 95.2726 38.907 94.5454 39.9979 94.5454C41.0888 94.5454 41.8161 95.2726 41.8161 96.3635V106.364H105.452V22.7272H89.8161C88.7252 22.7272 87.9979 21.9999 87.9979 20.909C87.9979 19.8181 88.7252 19.0908 89.8161 19.0908H107.271C108.362 19.0908 109.089 19.8181 109.089 20.909V108C109.089 109.091 108.18 110 107.271 110Z" fill="#542D8C"/>
</g>
<g id="Group_6">
<path id="Vector_5" d="M86.1861 26.0002H61.0952C58.0043 26.0002 55.6406 23.6365 55.6406 20.5456V13.6365C55.6406 10.5456 58.0043 8.182 61.0952 8.182H62.3679C63.0952 8.182 63.8224 7.45472 63.8224 6.72745C63.8224 4.00018 66.0043 1.81836 68.7315 1.81836H78.3679C81.0952 1.81836 83.277 4.00018 83.277 6.72745C83.277 7.45472 84.0043 8.182 84.7315 8.182H86.0043C89.0952 8.182 91.4588 10.5456 91.4588 13.6365V20.3638C91.6406 23.4547 89.0952 26.0002 86.1861 26.0002ZM61.0952 11.8184C60.0043 11.8184 59.277 12.7274 59.277 13.6365V20.3638C59.277 21.4547 60.1861 22.182 61.0952 22.182H86.1861C87.277 22.182 88.0043 21.2729 88.0043 20.3638V13.6365C88.0043 12.5456 87.0952 11.8184 86.1861 11.8184H84.9134C82.0043 11.8184 79.8224 9.45472 79.8224 6.72745C79.8224 6.00018 79.277 5.45472 78.5497 5.45472H68.9134C68.1861 5.45472 67.6406 6.00018 67.6406 6.72745C67.6406 9.63654 65.277 11.8184 62.5497 11.8184H61.0952Z" fill="#542D8C"/>
</g>
<g id="Group_7">
<path id="Vector_6" d="M35.4553 97.9999C33.0916 97.9999 30.9098 97.8181 28.5462 97.2726C27.6371 97.0908 27.0916 96.1817 27.0916 95.2726C27.2734 92.909 26.5462 90.7272 25.0916 90.1817C23.6371 89.6363 21.6371 90.3636 20.0007 92.3636C19.4553 93.0908 18.3643 93.2726 17.6371 92.7272C13.8189 90.1817 10.5462 86.909 8.00071 83.0908C7.45526 82.3636 7.63707 81.2726 8.36435 80.7272C10.1825 79.0908 11.0916 77.0908 10.5462 75.6363C10.0007 74.1817 7.81889 73.2726 5.45526 73.6363C4.54616 73.6363 3.63707 73.0908 3.45526 72.1817C2.54616 67.6363 2.54616 63.0908 3.45526 58.5454C3.63707 57.4545 4.54616 56.909 5.45526 56.909C7.81889 57.0908 10.0007 56.3636 10.5462 54.909C11.0916 53.4545 10.3643 51.4545 8.36435 49.8181C7.63707 49.2726 7.45526 48.1817 8.00071 47.4545C10.5462 43.6363 13.8189 40.3635 17.6371 37.8181C18.3643 37.2726 19.4553 37.4545 20.0007 38.1817C21.6371 39.9999 23.6371 40.909 25.0916 40.3636C26.5462 39.8181 27.4553 37.6363 27.0916 35.2726C27.0916 34.3635 27.6371 33.4545 28.5462 33.2726C33.0916 32.3635 37.6371 32.3635 42.1825 33.2726C43.0916 33.4545 43.6371 34.3635 43.6371 35.2726C43.4553 37.6363 44.1825 39.8181 45.6371 40.3636C47.0916 40.909 49.0916 40.1817 50.728 38.1817C51.2734 37.4545 52.3644 37.2726 53.0916 37.8181C56.9098 40.3635 60.1825 43.6363 62.728 47.4545C63.2734 48.1817 63.0916 49.2726 62.3643 49.8181C60.5462 51.4545 59.6371 53.4545 60.1825 54.909C60.728 56.3636 62.9098 57.2726 65.2734 56.909C66.1825 56.909 67.0916 57.4545 67.2734 58.3635C68.1825 62.909 68.1825 67.4545 67.2734 71.9999C67.0916 72.909 66.1825 73.4545 65.2734 73.4545C62.9098 73.2726 60.728 73.9999 60.1825 75.4545C59.6371 76.909 60.3643 78.909 62.3643 80.5454C63.0916 81.0908 63.2734 82.1817 62.728 82.909C60.1825 86.7272 56.9098 89.9999 53.0916 92.5454C52.3644 93.0908 51.2734 92.909 50.728 92.1817C49.0916 90.3636 47.0916 89.4545 45.6371 89.9999C44.1825 90.5454 43.2734 92.7272 43.6371 95.0908C43.6371 95.9999 43.0916 96.909 42.1825 97.0908C40.0007 97.8181 37.6371 97.9999 35.4553 97.9999ZM30.728 93.9999C33.8189 94.5454 36.9098 94.5454 40.0007 93.9999C40.1825 90.7272 41.8189 87.9999 44.3643 86.909C46.9098 85.8181 50.0007 86.5454 52.5462 88.909C55.0916 87.0908 57.2734 84.909 59.0916 82.3636C56.9098 79.8181 56.0007 76.909 57.0916 74.1817C58.1825 71.6363 60.9098 69.9999 64.1825 69.8181C64.728 66.7272 64.728 63.6363 64.1825 60.5454C60.9098 60.3636 58.1825 58.7272 57.0916 56.1817C56.0007 53.6363 56.728 50.5454 59.0916 47.9999C57.2734 45.4545 55.0916 43.2726 52.5462 41.4545C50.0007 43.6363 47.0916 44.5454 44.3643 43.4545C41.8189 42.7272 40.1825 39.9999 40.0007 36.5454C36.9098 35.9999 33.8189 35.9999 30.728 36.5454C30.5462 39.8181 28.9098 42.5454 26.3643 43.6363C23.8189 44.7272 20.728 43.9999 18.1825 41.6363C15.6371 43.4545 13.4553 45.6363 11.6371 48.1817C13.8189 50.7272 14.728 53.6363 13.6371 56.3636C12.5462 59.0908 9.81889 60.5454 6.54616 60.7272C6.00071 63.8181 6.00071 66.909 6.54616 69.9999C9.81889 70.1817 12.5462 71.8181 13.6371 74.3636C14.728 76.909 14.0007 79.9999 11.6371 82.5454C13.4553 85.0908 15.6371 87.2726 18.1825 89.0908C20.728 86.909 23.6371 85.9999 26.3643 87.0908C28.9098 87.9999 30.5462 90.7272 30.728 93.9999Z" fill="#542D8C"/>
</g>
<g id="Group_8">
<g id="Group_9">
<path id="Vector_7" d="M35.4574 85.8185C34.7302 85.8185 34.0029 85.8185 33.0938 85.6367C21.8211 84.364 13.8211 74.1821 14.912 63.0912C15.4574 57.6367 18.1847 52.7276 22.5483 49.2731C26.912 45.8185 32.1847 44.364 37.6393 44.9094C43.0938 45.4549 48.0029 48.1821 51.4574 52.5458C54.912 56.7276 56.3665 62.1821 55.8211 67.6367C55.2756 73.0912 52.5483 78.0003 48.1847 81.4549C44.5483 84.1821 40.0029 85.8185 35.4574 85.8185ZM35.4574 48.5458C26.912 48.5458 19.6392 54.9094 18.7302 63.4549C17.6392 72.7276 24.3665 81.0912 33.6393 82.0003C42.912 83.0912 51.2756 76.364 52.1847 67.0912C52.7302 62.5458 51.4574 58.1821 48.5483 54.7276C45.8211 51.2731 41.6393 49.0912 37.2756 48.5458C36.5483 48.5458 36.0029 48.5458 35.4574 48.5458Z" fill="#542D8C"/>
</g>
<g id="Group_10">
<g id="Group_11">
<path id="Vector_8" d="M35.4588 54.0003C34.3679 54.0003 33.6406 53.273 33.6406 52.1821V46.5457C33.6406 45.4548 34.3679 44.7275 35.4588 44.7275C36.5497 44.7275 37.277 45.4548 37.277 46.5457V52.1821C37.277 53.273 36.3679 54.0003 35.4588 54.0003Z" fill="#542D8C"/>
</g>
<g id="Group_12">
<path id="Vector_9" d="M35.4588 85.8186C34.3679 85.8186 33.6406 85.0914 33.6406 84.0004V78.3641C33.6406 77.2732 34.3679 76.5459 35.4588 76.5459C36.5497 76.5459 37.277 77.2732 37.277 78.3641V84.0004C37.277 85.0914 36.3679 85.8186 35.4588 85.8186Z" fill="#542D8C"/>
</g>
<g id="Group_13">
<path id="Vector_10" d="M22.3686 67.0914H16.7322C15.6413 67.0914 14.9141 66.3642 14.9141 65.2733C14.9141 64.1824 15.6413 63.4551 16.7322 63.4551H22.3686C23.4595 63.4551 24.1868 64.1824 24.1868 65.2733C24.1868 66.3642 23.2777 67.0914 22.3686 67.0914Z" fill="#542D8C"/>
</g>
<g id="Group_14">
<path id="Vector_11" d="M54.0014 67.0914H48.3651C47.2741 67.0914 46.5469 66.3642 46.5469 65.2733C46.5469 64.1824 47.2741 63.4551 48.3651 63.4551H54.0014C55.0923 63.4551 55.8196 64.1824 55.8196 65.2733C55.8196 66.3642 55.0923 67.0914 54.0014 67.0914Z" fill="#542D8C"/>
</g>
<g id="Group_15">
<path id="Vector_12" d="M26.1854 57.818C25.6399 57.818 25.2763 57.6362 24.9126 57.2726L20.9126 53.2725C20.1854 52.5453 20.1854 51.4544 20.9126 50.7271C21.6399 49.9998 22.7308 49.9998 23.4581 50.7271L27.4581 54.7271C28.1854 55.4544 28.1854 56.5453 27.4581 57.2726C27.0945 57.6362 26.549 57.818 26.1854 57.818Z" fill="#542D8C"/>
</g>
<g id="Group_16">
<path id="Vector_13" d="M48.5526 80.3639C48.0071 80.3639 47.6435 80.1821 47.2798 79.8185L43.2798 75.8185C42.5526 75.0912 42.5526 74.0003 43.2798 73.273C44.0071 72.5457 45.098 72.5457 45.8253 73.273L49.8253 77.273C50.5526 78.0003 50.5526 79.0912 49.8253 79.8185C49.4616 80.1821 49.098 80.3639 48.5526 80.3639Z" fill="#542D8C"/>
</g>
<g id="Group_17">
<path id="Vector_14" d="M22.1854 80.3639C21.6399 80.3639 21.2763 80.1821 20.9126 79.8185C20.1854 79.0912 20.1854 78.0003 20.9126 77.273L24.9126 73.273C25.6399 72.5457 26.7308 72.5457 27.4581 73.273C28.1854 74.0003 28.1854 75.0912 27.4581 75.8185L23.4581 79.8185C23.0945 80.1821 22.7308 80.3639 22.1854 80.3639Z" fill="#542D8C"/>
</g>
<g id="Group_18">
<path id="Vector_15" d="M44.7322 57.8188C44.1868 57.8188 43.8232 57.637 43.4595 57.2733C42.7322 56.5461 42.7322 55.4552 43.4595 54.7279L47.2777 50.9097C48.005 50.1824 49.0959 50.1824 49.8232 50.9097C50.5504 51.637 50.5504 52.7279 49.8232 53.4552L45.8232 57.4552C45.6413 57.637 45.0959 57.8188 44.7322 57.8188Z" fill="#542D8C"/>
</g>
<g id="Group_19">
<path id="Vector_16" d="M42.005 67.091H35.2777C34.7322 67.091 34.3686 66.9092 34.005 66.5455L29.4595 62.0001C28.7322 61.2728 28.7322 60.1819 29.4595 59.4546C30.1868 58.7274 31.2777 58.7274 32.005 59.4546L36.005 63.4546H42.005C43.0959 63.4546 43.8232 64.1819 43.8232 65.2728C43.8232 66.3637 43.0959 67.091 42.005 67.091Z" fill="#542D8C"/>
</g>
</g>
</g>
<g id="Group_20">
<path id="Vector_17" d="M96 36.1823H63.8182C62.7273 36.1823 62 35.455 62 34.3641C62 33.2732 62.7273 32.5459 63.8182 32.5459H96C97.0909 32.5459 97.8182 33.2732 97.8182 34.3641C97.8182 35.455 96.9091 36.1823 96 36.1823Z" fill="#542D8C"/>
</g>
<g id="Group_21">
<path id="Vector_18" d="M95.9979 44.5455H69.9979C68.907 44.5455 68.1797 43.8183 68.1797 42.7274C68.1797 41.6365 68.907 40.9092 69.9979 40.9092H95.9979C97.0888 40.9092 97.8161 41.6365 97.8161 42.7274C97.8161 43.8183 96.907 44.5455 95.9979 44.5455Z" fill="#542D8C"/>
</g>
<g id="Group_22">
<path id="Vector_19" d="M96.0021 52.7272H73.6385C72.5476 52.7272 71.8203 51.9999 71.8203 50.909C71.8203 49.8181 72.5476 49.0908 73.6385 49.0908H96.0021C97.093 49.0908 97.8203 49.8181 97.8203 50.909C97.8203 51.9999 96.9112 52.7272 96.0021 52.7272Z" fill="#542D8C"/>
</g>
<g id="Group_23">
<path id="Vector_20" d="M96.0043 61.0914H75.4588C74.3679 61.0914 73.6406 60.3642 73.6406 59.2733C73.6406 58.1823 74.3679 57.4551 75.4588 57.4551H96.0043C97.0952 57.4551 97.8224 58.1823 97.8224 59.2733C97.8224 60.3642 96.9134 61.0914 96.0043 61.0914Z" fill="#542D8C"/>
</g>
<g id="Group_24">
<path id="Vector_21" d="M73.6349 101.091H65.2713C64.1804 101.091 63.4531 100.364 63.4531 99.2732V92.3641C63.4531 91.2732 64.1804 90.5459 65.2713 90.5459H73.6349C74.7258 90.5459 75.4531 91.2732 75.4531 92.3641C75.4531 93.455 74.7258 94.1823 73.6349 94.1823H67.0895V97.455H73.6349C74.7258 97.455 75.4531 98.1823 75.4531 99.2732C75.4531 100.364 74.7258 101.091 73.6349 101.091Z" fill="#542D8C"/>
</g>
<g id="Group_25">
<path id="Vector_22" d="M82.0021 101.091H73.6385C72.5476 101.091 71.8203 100.364 71.8203 99.2727V87.8182C71.8203 86.7273 72.5476 86 73.6385 86H82.0021C83.093 86 83.8203 86.7273 83.8203 87.8182C83.8203 88.9091 83.093 89.6364 82.0021 89.6364H75.4567V97.4545H82.0021C83.093 97.4545 83.8203 98.1818 83.8203 99.2727C83.8203 100.364 83.093 101.091 82.0021 101.091Z" fill="#542D8C"/>
</g>
<g id="Group_26">
<path id="Vector_23" d="M90.3615 101.091H81.9979C80.907 101.091 80.1797 100.364 80.1797 99.2727V81.8182C80.1797 80.7273 80.907 80 81.9979 80H90.3615C91.4524 80 92.1797 80.7273 92.1797 81.8182C92.1797 82.9091 91.4524 83.6364 90.3615 83.6364H83.8161V97.2727H90.3615C91.4524 97.2727 92.1797 98 92.1797 99.0909C92.1797 100.182 91.4524 101.091 90.3615 101.091Z" fill="#542D8C"/>
</g>
<g id="Group_27">
<path id="Vector_24" d="M98.7287 101.091H90.3651C89.2741 101.091 88.5469 100.364 88.5469 99.2727V75.8182C88.5469 74.7273 89.2741 74 90.3651 74H98.7287C99.8196 74 100.547 74.7273 100.547 75.8182V99.0909C100.547 100.182 99.8196 101.091 98.7287 101.091ZM92.1832 97.4545H96.9105V77.6364H92.1832V97.4545Z" fill="#542D8C"/>
</g>
<g id="Group_28">
<path id="Vector_25" d="M70.1793 82.1822C69.6338 82.1822 69.0884 82.0004 68.7247 81.4549C68.1793 80.7277 68.1793 79.455 68.9066 78.9095L83.8157 66.7277C84.5429 66.1822 85.8157 66.1822 86.3611 66.9095C86.9066 67.6368 86.9066 68.9095 86.1793 69.4549L71.452 81.8186C71.0884 82.0004 70.7247 82.1822 70.1793 82.1822Z" fill="#542D8C"/>
</g>
<g id="Group_29">
<path id="Vector_26" d="M84.7265 74.5454H84.5447C83.6356 74.3636 82.9083 73.4545 82.9083 72.5454L83.272 69.8181L80.3629 69.6363C79.4538 69.4545 78.5447 68.7272 78.7265 67.6363C78.9083 66.7272 79.6356 65.8181 80.7265 66L85.4538 66.3636C85.9993 66.3636 86.3629 66.7272 86.7265 67.0909C87.0902 67.4545 87.0902 68 87.0902 68.3636L86.5447 72.9091C86.5447 73.8181 85.6356 74.5454 84.7265 74.5454Z" fill="#542D8C"/>
</g>
</g>
</g>
</svg>
