<svg width="120" height="120" viewBox="0 0 120 120" fill="none" xmlns="http://www.w3.org/2000/svg">
<g id="Frame">
<g id="Layer_x0020_1">
<g id="_431582552">
<path id="_431584160" fill-rule="evenodd" clip-rule="evenodd" d="M23.0595 16.1676C22.0942 16.1676 21.3103 16.9532 21.3103 17.9181L21.3104 109.638C21.3104 110.602 22.0939 111.387 23.0595 111.387L89.3827 111.387C89.8495 111.387 90.2881 111.205 90.6199 110.874C90.9497 110.544 91.1295 110.105 91.1295 109.638L91.1299 17.918C91.1299 16.9531 90.3437 16.1678 89.3781 16.1678L23.0595 16.1676ZM89.3827 113.854H23.0595C20.7347 113.854 18.8438 111.961 18.8438 109.638L18.8439 17.9181C18.8439 15.593 20.7343 13.7014 23.0595 13.7014L89.3783 13.7012C91.7036 13.7012 93.5959 15.593 93.5959 17.9181L93.5963 109.638C93.5983 110.76 93.1592 111.82 92.3648 112.616C91.5687 113.415 90.5087 113.854 89.3827 113.854Z" fill="#542D8C"/>
<path id="_431583464" fill-rule="evenodd" clip-rule="evenodd" d="M96.9157 106.298H92.3618C91.6811 106.298 91.1284 105.746 91.1284 105.065C91.1286 104.384 91.6808 103.831 92.3616 103.831H96.9157C97.8921 103.831 98.6842 103.039 98.6842 102.065V10.3795C98.6842 9.40486 97.892 8.61219 96.9156 8.61219L30.6316 8.61199C29.6575 8.61199 28.8649 9.40501 28.8649 10.3796L28.8651 14.9342C28.8651 15.6154 28.3125 16.1675 27.6317 16.1675C26.9511 16.1673 26.3984 15.6155 26.3984 14.9344L26.3986 10.3795C26.3986 8.04498 28.2975 6.14572 30.6313 6.14572L96.9157 6.14551C99.2516 6.14551 101.151 8.04498 101.151 10.3796V102.065C101.151 104.399 99.2515 106.298 96.9157 106.298Z" fill="#542D8C"/>
<path id="_431583608" fill-rule="evenodd" clip-rule="evenodd" d="M83.1637 69.4418H46.1709C45.4902 69.4418 44.9375 68.89 44.9375 68.2088C44.9376 67.5276 45.4899 66.9757 46.1707 66.9757L83.1637 66.9756C83.8449 66.9756 84.3968 67.5277 84.3968 68.2088C84.3969 68.89 83.8445 69.442 83.1637 69.4418Z" fill="#542D8C"/>
<path id="_431584208" fill-rule="evenodd" clip-rule="evenodd" d="M83.1637 76.738H46.1709C45.4902 76.738 44.9375 76.1859 44.9375 75.5049C44.9376 74.8235 45.4899 74.2716 46.1707 74.2716L83.1637 74.2715C83.8449 74.2715 84.3968 74.8238 84.3968 75.5049C84.3969 76.1859 83.8445 76.7381 83.1637 76.738Z" fill="#542D8C"/>
<path id="_431583656" fill-rule="evenodd" clip-rule="evenodd" d="M28.8653 76.7853H38.7225V66.9262H28.8653V76.7853ZM39.0588 79.2518H28.5291C27.3536 79.2518 26.3984 78.2956 26.3984 77.1204L26.3988 66.5913C26.3988 65.4162 27.3533 64.46 28.5288 64.46H39.0588C40.2342 64.46 41.1887 65.4162 41.1887 66.5914L41.189 77.1203C41.1846 78.2982 40.2275 79.2518 39.0588 79.2518Z" fill="#542D8C"/>
<path id="_431583440" fill-rule="evenodd" clip-rule="evenodd" d="M32.5993 75.1245C32.2716 75.1245 31.959 74.9946 31.7277 74.7634L30.0475 73.0844C29.5676 72.6029 29.5675 71.8218 30.047 71.3403C30.5293 70.8585 31.3103 70.8586 31.792 71.3403L32.5993 72.1471L35.7979 68.9492C36.2797 68.4674 37.059 68.4675 37.5407 68.9492C38.0226 69.4306 38.0225 70.2115 37.5407 70.6931L33.4707 74.7632C33.2395 74.9945 32.9267 75.1246 32.5993 75.1245Z" fill="#542D8C"/>
<path id="_431583152" fill-rule="evenodd" clip-rule="evenodd" d="M83.1637 91.6276H46.1709C45.4902 91.6276 44.9375 91.0756 44.9375 90.3946C44.9376 89.7134 45.4899 89.1613 46.1707 89.1613L83.1637 89.1611C83.8449 89.1611 84.3968 89.7135 84.3968 90.3946C84.3969 91.0755 83.8445 91.6277 83.1637 91.6276Z" fill="#542D8C"/>
<path id="_431583032" fill-rule="evenodd" clip-rule="evenodd" d="M83.1637 98.9245H46.1709C45.4902 98.9245 44.9375 98.3723 44.9375 97.6915C44.9376 97.0103 45.4899 96.4582 46.1707 96.4582L83.1637 96.458C83.8449 96.458 84.3968 97.0105 84.3968 97.6915C84.3969 98.3722 83.8445 98.9247 83.1637 98.9245Z" fill="#542D8C"/>
<path id="_431583368" fill-rule="evenodd" clip-rule="evenodd" d="M28.8653 98.9711H38.7225V89.1117H28.8653V98.9711ZM39.0588 101.438H28.5291C27.3536 101.438 26.3984 100.481 26.3984 99.3052L26.3988 88.777C26.3988 87.6017 27.3533 86.6457 28.5288 86.6457L39.0588 86.6455C40.2342 86.6455 41.1887 87.6019 41.1887 88.7771L41.189 99.305C41.1846 100.485 40.2275 101.438 39.0588 101.438Z" fill="#542D8C"/>
<path id="_431583104" fill-rule="evenodd" clip-rule="evenodd" d="M32.5993 97.3119C32.2716 97.3119 31.959 97.1814 31.7277 96.9502L30.0475 95.2716C29.5676 94.7899 29.5675 94.0084 30.047 93.5267C30.5293 93.0448 31.3103 93.0449 31.792 93.5267L32.5993 94.3337L35.7979 91.1357C36.2797 90.6539 37.059 90.654 37.5407 91.1358C38.0226 91.6172 38.0225 92.3984 37.5407 92.8801L33.4707 96.9502C33.2395 97.1814 32.9267 97.312 32.5993 97.3119Z" fill="#542D8C"/>
<path id="_431582744" fill-rule="evenodd" clip-rule="evenodd" d="M34.9029 50.9537H30.5735C28.1927 50.9537 26.3984 49.0461 26.3984 46.5167C26.3988 46.5024 26.3984 46.4882 26.3984 46.4739L26.5723 41.459C26.7133 37.3808 29.9419 34.0246 33.9263 33.8186C34.0593 33.8105 34.2068 33.8074 34.3545 33.8074L41.005 33.8071L52.8532 26.8474C52.8681 26.8389 52.8831 26.8303 52.9003 26.8222C53.7675 26.361 54.7415 26.1173 55.7199 26.1173L65.3676 26.1172C66.2521 26.1172 67.1424 26.3186 67.9431 26.6993C67.956 26.7049 67.9689 26.7112 67.9795 26.7174L83.9669 34.9744C85.2281 35.5869 86.0413 36.8833 86.0413 38.2833L86.0418 46.5143C86.0418 48.9607 84.0523 50.9512 81.6051 50.9512L77.278 50.951C76.5973 50.951 76.0448 50.399 76.0448 49.718C76.0448 49.0369 76.5972 48.4847 77.278 48.4847L81.6055 48.4845C82.6908 48.4845 83.5748 47.6008 83.5748 46.5143L83.5753 38.2831C83.5753 37.8204 83.3029 37.3915 82.8833 37.1905C82.8728 37.1852 82.8619 37.1798 82.8511 37.1742L66.8688 28.9189C66.3933 28.6964 65.8899 28.5838 65.3674 28.5838L55.72 28.5836C55.153 28.5836 54.5852 28.7238 54.0799 28.9884L41.9641 36.1037C41.7733 36.2151 41.5591 36.2737 41.3386 36.2737L34.3546 36.2735C34.2563 36.2735 34.1596 36.2755 34.0634 36.2812C31.3379 36.4222 29.1346 38.7338 29.0362 41.5443L28.8652 46.5359C28.8715 47.4795 29.4066 48.4872 30.5734 48.4872H34.9028C35.5835 48.4872 36.1359 49.0394 36.1359 49.7205C36.1361 50.4014 35.5834 50.9537 34.9029 50.9537Z" fill="#542D8C"/>
<path id="_431583008" fill-rule="evenodd" clip-rule="evenodd" d="M68.6448 50.9538H43.5303C42.8495 50.9538 42.2969 50.4017 42.2969 49.7205C42.297 49.0393 42.8493 48.4873 43.5301 48.4873H68.6449C69.3256 48.4873 69.8777 49.0395 69.8777 49.7205C69.8781 50.4015 69.3253 50.9538 68.6448 50.9538Z" fill="#542D8C"/>
<path id="_431582840" fill-rule="evenodd" clip-rule="evenodd" d="M55.7177 36.2738C55.0369 36.2738 54.4844 35.7218 54.4844 35.0408L54.4844 27.3533C54.4844 26.6721 55.0368 26.1201 55.7176 26.1201C56.3989 26.1201 56.9508 26.6723 56.9508 27.3533L56.9509 35.0405C56.9509 35.7217 56.3985 36.274 55.7177 36.2738Z" fill="#542D8C"/>
<path id="_431583296" fill-rule="evenodd" clip-rule="evenodd" d="M65.3665 36.2738C64.6853 36.2738 64.1328 35.7218 64.1328 35.0408L64.1332 27.3533C64.1332 26.6721 64.6852 26.1201 65.3661 26.1201C66.0471 26.1201 66.5993 26.6723 66.5993 27.3533L66.5997 35.0405C66.5997 35.7217 66.0468 36.274 65.3665 36.2738Z" fill="#542D8C"/>
<path id="_431583392" fill-rule="evenodd" clip-rule="evenodd" d="M81.4082 36.2731H41.3428C40.6621 36.2731 40.1094 35.7211 40.1094 35.0401C40.1096 34.359 40.6618 33.8068 41.3426 33.8068L81.4081 33.8066C82.0888 33.8066 82.6411 34.359 82.6411 35.0401C82.6414 35.7211 82.0887 36.2733 81.4082 36.2731Z" fill="#542D8C"/>
<path id="_431582216" fill-rule="evenodd" clip-rule="evenodd" d="M29.0383 45.7286H27.702C27.0212 45.7286 26.4688 45.1764 26.4688 44.4953C26.4688 43.8141 27.0211 43.2621 27.702 43.2621H29.0383C30.4233 43.2621 31.5515 42.1345 31.5515 40.7483L31.5519 40.2634H28.3614C27.6808 40.2634 27.1281 39.7112 27.1281 39.0301C27.1282 38.3489 27.6805 37.7969 28.3613 37.7969H32.7852C33.4659 37.7969 34.018 38.3491 34.018 39.0301L34.0184 40.7482C34.0184 43.4943 31.7827 45.7286 29.0383 45.7286Z" fill="#542D8C"/>
<path id="_431581976" fill-rule="evenodd" clip-rule="evenodd" d="M84.8126 45.731H81.0657C79.845 45.731 78.8516 44.7375 78.8516 43.5163L78.8516 40.0116C78.8516 38.7902 79.845 37.7969 81.0654 37.7969H84.8126C85.4933 37.7969 86.0454 38.3491 86.0454 39.0301C86.0459 39.711 85.4931 40.2634 84.8122 40.2634H81.3181V43.2645H84.8126C85.4933 43.2645 86.0454 43.8169 86.0454 44.4979C86.0459 45.1789 85.4931 45.7311 84.8126 45.731Z" fill="#542D8C"/>
<path id="_431581952" fill-rule="evenodd" clip-rule="evenodd" d="M39.2219 46.5454C37.5218 46.5454 36.1384 47.9291 36.1384 49.6298C36.1388 51.3302 37.5215 52.7139 39.2215 52.7139C40.9218 52.7137 42.3067 51.3304 42.3067 49.6298C42.3069 47.9289 40.9214 46.5456 39.2219 46.5454ZM39.2219 55.1801C36.1624 55.1801 33.6719 52.6905 33.6719 49.6298C33.6723 46.569 36.1619 44.0791 39.2215 44.0791C42.2833 44.079 44.7732 46.5692 44.7732 49.6298C44.7734 52.6905 42.2831 55.1802 39.2219 55.1801Z" fill="#542D8C"/>
<path id="_431582672" fill-rule="evenodd" clip-rule="evenodd" d="M72.966 46.5454C71.2641 46.5454 69.8805 47.9291 69.8805 49.6298C69.881 51.3302 71.2636 52.7139 72.9658 52.7139C74.666 52.7137 76.0489 51.3304 76.0489 49.6298C76.0491 47.9289 74.6657 46.5456 72.966 46.5454ZM72.966 55.1801C69.9041 55.1801 67.4141 52.6905 67.4141 49.6298C67.4145 46.569 69.9041 44.0791 72.9658 44.0791C76.0255 44.079 78.5154 46.5692 78.5154 49.6298C78.5156 52.6905 76.0253 55.1802 72.966 55.1801Z" fill="#542D8C"/>
<path id="_431582120" fill-rule="evenodd" clip-rule="evenodd" d="M56.8937 40.4587H54.554C53.8728 40.4587 53.3203 39.9067 53.3203 39.2256C53.3207 38.5445 53.8728 37.9923 54.5536 37.9923L56.8937 37.9922C57.5749 37.9922 58.1269 38.5445 58.1269 39.2256C58.1269 39.9066 57.5746 40.4588 56.8937 40.4587Z" fill="#542D8C"/>
</g>
</g>
</g>
</svg>
