<svg width="120" height="120" viewBox="0 0 120 120" fill="none" xmlns="http://www.w3.org/2000/svg">
<g id="Layer_1">
<path id="Vector" d="M117.966 17.3147C117.772 16.6561 117.233 16.1564 116.562 16.0118L111.517 14.9245L113.641 12.8006C114.374 12.0684 114.374 10.8813 113.641 10.1491C112.909 9.41695 111.722 9.41695 110.99 10.1491L108.866 12.273L107.779 7.22789C107.634 6.55688 107.134 6.01852 106.476 5.82445C105.817 5.63086 105.105 5.8118 104.62 6.29719L95.1661 15.7509C92.5048 14.3627 89.6611 13.3823 86.7155 12.8388V11.0977C88.3327 10.9139 89.5964 9.45914 89.5964 7.69617V5.29664C89.5964 3.40992 88.1487 1.875 86.3693 1.875H76.0123C74.2329 1.875 72.7851 3.40992 72.7851 5.29664V7.69617C72.7851 9.45891 74.0489 10.9139 75.6661 11.0977V12.8419C71.4241 13.6275 67.4906 15.3007 64.0645 17.6609L62.8284 16.4248C62.2195 15.8159 61.4091 15.4807 60.5466 15.4807C59.6838 15.4807 58.8734 15.8161 58.2647 16.4248L55.0158 19.6737C53.7577 20.932 53.7577 22.9793 55.0158 24.2374L56.2519 25.4735C52.8947 30.3471 50.9259 36.2473 50.9259 42.5998C50.9259 42.8555 50.9292 43.1105 50.9358 43.3645C50.5591 43.2485 50.1809 43.1372 49.8009 43.0345L47.7785 37.7803C47.5001 37.0563 46.8045 36.5789 46.0287 36.5789H35.9691C35.1935 36.5789 34.4979 37.0566 34.2192 37.7803L32.1968 43.0343C29.3937 43.7899 26.7061 44.9041 24.1845 46.3561L19.0355 44.0693C18.3267 43.7545 17.497 43.9088 16.9486 44.4572L9.83531 51.5707C9.28687 52.1191 9.13266 52.9486 9.44742 53.6576L11.734 58.8059C10.2818 61.3275 9.16781 64.0146 8.41195 66.8187L3.15844 68.8409C2.43445 69.1193 1.95703 69.8149 1.95703 70.5907V80.6506C1.95703 81.4263 2.43469 82.1217 3.15844 82.4004L8.41078 84.4221C9.16711 87.2278 10.2813 89.9159 11.7333 92.437L9.44742 97.5837C9.13242 98.2927 9.28664 99.1221 9.83508 99.6705L16.9486 106.784C17.4973 107.332 18.3267 107.487 19.0355 107.172L24.1845 104.885C26.5001 106.219 28.9577 107.264 31.5148 108.011C31.6362 109.843 32.801 111.393 34.4227 112.064V113.399C34.4227 116.005 36.5426 118.125 39.1484 118.125H42.8482C45.4542 118.125 47.5741 116.005 47.5741 113.399V112.064C49.1953 111.393 50.3599 109.844 50.4818 108.013C53.0407 107.265 55.4988 106.22 57.8145 104.886L62.9613 107.172C63.6701 107.487 64.4998 107.333 65.0482 106.784L72.1615 99.6708C72.7099 99.1223 72.8641 98.2929 72.5491 97.5839L70.2623 92.4352C71.7145 89.9133 72.8287 87.2259 73.5841 84.423L78.8381 82.4006C79.5619 82.1222 80.0395 81.4266 80.0395 80.6508V72.8407C80.4213 72.855 80.8045 72.8646 81.1898 72.8646C97.8778 72.8646 111.454 59.288 111.454 42.6C111.454 37.6945 110.279 32.921 108.038 28.6247L117.492 19.1709C117.979 18.6853 118.16 17.9733 117.966 17.3147ZM104.838 11.3822L105.71 15.4287L99.3703 21.768L98.4982 17.7216L104.838 11.3822ZM84.6394 42.5995C84.6394 44.501 83.0923 46.0481 81.1908 46.0481C79.2893 46.0481 77.7422 44.501 77.7422 42.5995C77.7422 40.6978 79.2893 39.1509 81.1908 39.1509C81.4378 39.1509 81.6785 39.1781 81.911 39.2278L79.8652 41.2739C79.1327 42.0061 79.1327 43.1932 79.8652 43.9254C80.2312 44.2915 80.711 44.4745 81.191 44.4745C81.671 44.4745 82.1508 44.2915 82.5169 43.9254L84.5627 41.8793C84.612 42.1118 84.6394 42.3525 84.6394 42.5995ZM84.7769 36.3619C83.7202 35.752 82.496 35.4009 81.1908 35.4009C77.2214 35.4009 73.9922 38.6302 73.9922 42.5995C73.9922 46.5689 77.2214 49.7981 81.1908 49.7981C85.1602 49.7981 88.3894 46.5689 88.3894 42.5995C88.3894 41.2943 88.0383 40.0702 87.4284 39.0134L96.8173 29.6245C99.747 33.1467 101.511 37.6709 101.511 42.5995C101.511 53.8043 92.3955 62.9201 81.1908 62.9201C69.986 62.9201 60.8702 53.8043 60.8702 42.5995C60.8702 31.3945 69.986 22.2787 81.1908 22.2787C86.1195 22.2787 90.6436 24.0431 94.1658 26.9728L84.7769 36.3619ZM76.5351 5.625H85.8462V7.36805H76.5351V5.625ZM79.4163 11.118H82.9652V12.3909C82.3758 12.3567 81.7847 12.3347 81.1908 12.3347C80.595 12.3347 80.0037 12.3539 79.4163 12.3881V11.118ZM58.0371 21.9555L60.5466 19.4461L61.0929 19.9924C60.2086 20.7795 59.3705 21.6173 58.5834 22.5019L58.0371 21.9555ZM25.3313 75.6989C25.3313 75.672 25.3298 75.6473 25.3298 75.6204C25.3298 66.9806 32.359 59.9515 40.9987 59.9515C49.6388 59.9515 56.6677 66.9806 56.6677 75.6204C56.6677 75.6729 56.6653 75.7212 56.6648 75.773C56.6505 77.2814 56.4253 78.7552 55.9997 80.1647C55.5241 81.5892 54.8348 82.7738 54.0558 84.105C52.4182 86.9037 50.4103 90.3354 49.7391 97.2689H45.9035V81.7013H48.1055C51.3872 81.7013 54.0572 79.0312 54.0572 75.7493C54.0572 72.4673 51.3872 69.7973 48.1055 69.7973C44.8235 69.7973 42.1535 72.4673 42.1535 75.7493V77.9513H39.8442V75.7493C39.8442 72.4676 37.1742 69.7973 33.8923 69.7973C30.6103 69.7973 27.9403 72.4673 27.9403 75.7493C27.9403 79.0312 30.6103 81.7013 33.8923 81.7013H36.0942V97.2689H32.2587C31.5874 90.3356 29.5795 86.9037 27.9422 84.105C27.1634 82.774 26.4741 81.5899 25.9985 80.1663C25.5656 78.7331 25.3388 77.2338 25.3313 75.6989ZM45.7727 108.673H36.2255C35.6965 108.673 35.2493 108.226 35.2493 107.697V106.721H46.7484V107.697C46.7484 108.226 46.3017 108.673 45.7727 108.673ZM32.3984 101.019H49.5994V101.995C49.5994 102.524 49.1527 102.971 48.6237 102.971H33.3743C32.8453 102.971 32.3984 102.524 32.3984 101.995V101.019ZM36.0942 77.9513H33.8923C32.6782 77.9513 31.6903 76.9636 31.6903 75.7493C31.6903 74.535 32.678 73.5473 33.8923 73.5473C35.1066 73.5473 36.0942 74.535 36.0942 75.7493V77.9513ZM42.1535 97.2689H39.8442V81.7013H42.1535V97.2689ZM45.9035 77.9513V75.7493C45.9035 74.5352 46.8912 73.5473 48.1055 73.5473C49.3195 73.5473 50.3072 74.535 50.3072 75.7493C50.3072 76.9636 49.3195 77.9513 48.1055 77.9513H45.9035ZM42.8487 114.375H39.1488C38.6198 114.375 38.1731 113.928 38.1731 113.399V112.423H43.8246V113.399C43.8246 113.928 43.3779 114.375 42.8487 114.375ZM76.2905 79.3631L71.3327 81.2714C70.7559 81.4934 70.3254 81.9858 70.1822 82.5872C69.4477 85.6746 68.2287 88.6148 66.5592 91.3263C66.2351 91.853 66.1912 92.5052 66.4423 93.0703L68.6002 97.9291L63.3075 103.222L58.4505 101.065C57.885 100.814 57.2327 100.858 56.7061 101.182C55.5879 101.87 54.4277 102.478 53.2362 103.011C53.3084 102.683 53.3489 102.344 53.3489 101.995V99.2086C53.7246 92.9163 55.1341 89.7907 56.6358 87.1336C57.8925 85.4297 58.8473 83.565 59.4832 81.5937C60.0471 79.9931 60.4148 78.112 60.4172 75.6431C60.4172 75.6356 60.4177 75.6281 60.4177 75.6206C60.4177 64.9127 51.7062 56.2013 40.9985 56.2013C30.2909 56.2013 21.5796 64.9127 21.5796 75.6206C21.5796 75.6244 21.5798 75.6281 21.5798 75.6321C21.581 78.108 21.9497 79.9929 22.5148 81.5965C23.1506 83.5664 24.1052 85.4299 25.361 87.1327C26.8624 89.7893 28.2722 92.9142 28.6481 99.2051V101.995C28.6481 102.343 28.6887 102.682 28.7604 103.009C27.57 102.476 26.4108 101.869 25.2933 101.181C24.7664 100.856 24.1141 100.813 23.5493 101.064L18.6905 103.222L13.3976 97.9291L15.5548 93.0724C15.8058 92.5071 15.762 91.8546 15.4376 91.328C13.7686 88.6181 12.5494 85.6772 11.8139 82.5865C11.6707 81.9851 11.2404 81.4929 10.6634 81.2709L5.70727 79.3634V71.8781L10.6643 69.9701C11.2413 69.7481 11.6716 69.2557 11.8148 68.6543C12.5498 65.5657 13.7688 62.6252 15.438 59.9147C15.7622 59.388 15.806 58.7355 15.555 58.1705L13.3973 53.3121L18.69 48.0192L23.5488 50.1773C24.1141 50.4281 24.7664 50.3845 25.2928 50.0602C28.0041 48.3909 30.9443 47.172 34.032 46.4372C34.6334 46.294 35.1255 45.8637 35.3477 45.2866L37.2562 40.3289H44.7413L46.6495 45.2864C46.8715 45.8634 47.3637 46.2938 47.9651 46.437C49.0971 46.7065 50.2198 47.0461 51.3159 47.4476C53.385 60.2423 63.5027 70.3746 76.2902 72.4655L76.2905 79.3631ZM81.1908 69.1144C66.5705 69.1144 54.6762 57.2198 54.6762 42.5998C54.6762 27.9797 66.5707 16.0849 81.1908 16.0849C86.1614 16.0849 90.9766 17.4614 95.1677 20.0672L95.9245 23.5791C91.8499 20.4155 86.7368 18.5292 81.1908 18.5292C67.9184 18.5292 57.1202 29.3273 57.1202 42.6C57.1202 55.8724 67.9184 66.6705 81.1908 66.6705C94.4632 66.6705 105.261 55.8724 105.261 42.6C105.261 37.054 103.375 31.9406 100.211 27.866L103.723 28.6228C106.329 32.8139 107.705 37.6289 107.705 42.5998C107.705 57.2198 95.8109 69.1144 81.1908 69.1144ZM106.069 25.2919L102.022 24.4198L108.361 18.0804L112.408 18.9525L106.069 25.2919Z" fill="black"/>
</g>
</svg>
