<svg width="120" height="120" viewBox="0 0 120 120" fill="none" xmlns="http://www.w3.org/2000/svg">
<g id="Frame" clip-path="url(#clip0_908_6772)">
<g id="14-communication">
<path id="Vector" d="M60.0001 12.5C57.3479 12.5 54.8044 13.5536 52.929 15.4289C51.0536 17.3043 50.0001 19.8478 50.0001 22.5C50.005 24.6698 50.7226 26.7779 52.0426 28.5L50.8576 28.975C47.6474 30.2463 44.8946 32.455 42.958 35.3134C41.0213 38.1718 39.9906 41.5473 40.0001 45C40.0001 45.4892 40.1437 45.9676 40.413 46.376C40.6823 46.7844 41.0655 47.1048 41.5151 47.2975C47.359 49.79 53.6467 51.0749 60.0001 51.0749C66.3534 51.0749 72.6411 49.79 78.4851 47.2975C78.9347 47.1048 79.3179 46.7844 79.5872 46.376C79.8564 45.9676 80 45.4892 80.0001 45C80.0116 41.5456 78.9818 38.1679 77.045 35.3076C75.1082 32.4472 72.3543 30.2369 69.1426 28.965L67.9576 28.49C69.2758 26.7708 69.9933 24.6664 70.0001 22.5C70.0001 19.8478 68.9465 17.3043 67.0711 15.4289C65.1958 13.5536 62.6522 12.5 60.0001 12.5ZM60.0001 17.5C60.989 17.5 61.9557 17.7932 62.7779 18.3427C63.6002 18.8921 64.241 19.673 64.6195 20.5866C64.9979 21.5002 65.0969 22.5055 64.904 23.4755C64.7111 24.4454 64.2349 25.3363 63.5356 26.0355C62.8363 26.7348 61.9454 27.211 60.9755 27.4039C60.0056 27.5969 59.0003 27.4978 58.0866 27.1194C57.173 26.741 56.3921 26.1001 55.8427 25.2779C55.2933 24.4556 55.0001 23.4889 55.0001 22.5C55.0001 21.1739 55.5269 19.9021 56.4645 18.9645C57.4022 18.0268 58.674 17.5 60.0001 17.5ZM74.8926 43.3575C65.2951 46.9825 54.705 46.9825 45.1076 43.3575C45.3915 41.2022 46.2463 39.1618 47.5833 37.4476C48.9204 35.7335 50.6912 34.4077 52.7126 33.6075L55.4801 32.5H64.5201L67.2876 33.6075C69.3089 34.4077 71.0797 35.7335 72.4168 37.4476C73.7539 39.1618 74.6086 41.2022 74.8926 43.3575Z" fill="black"/>
<path id="Vector_2" d="M60.0001 67.5C57.3479 67.5 54.8044 68.5536 52.929 70.4289C51.0536 72.3043 50.0001 74.8478 50.0001 77.5C50.005 79.6698 50.7226 81.7779 52.0426 83.5L50.8576 83.975C47.6474 85.2463 44.8946 87.455 42.958 90.3134C41.0213 93.1718 39.9906 96.5473 40.0001 100C40.0001 100.489 40.1437 100.968 40.413 101.376C40.6823 101.784 41.0655 102.105 41.5151 102.298C47.359 104.79 53.6467 106.075 60.0001 106.075C66.3534 106.075 72.6411 104.79 78.4851 102.298C78.9347 102.105 79.3179 101.784 79.5872 101.376C79.8564 100.968 80 100.489 80.0001 100C80.0116 96.5456 78.9818 93.1679 77.045 90.3076C75.1082 87.4472 72.3543 85.2369 69.1426 83.965L67.9576 83.49C69.2758 81.7708 69.9933 79.6664 70.0001 77.5C70.0001 74.8478 68.9465 72.3043 67.0711 70.4289C65.1958 68.5536 62.6522 67.5 60.0001 67.5ZM60.0001 72.5C60.989 72.5 61.9557 72.7932 62.7779 73.3427C63.6002 73.8921 64.241 74.673 64.6195 75.5866C64.9979 76.5002 65.0969 77.5055 64.904 78.4755C64.7111 79.4454 64.2349 80.3363 63.5356 81.0355C62.8363 81.7348 61.9454 82.211 60.9755 82.4039C60.0056 82.5969 59.0003 82.4978 58.0866 82.1194C57.173 81.741 56.3921 81.1001 55.8427 80.2779C55.2933 79.4556 55.0001 78.4889 55.0001 77.5C55.0001 76.1739 55.5269 74.9021 56.4645 73.9645C57.4022 73.0268 58.674 72.5 60.0001 72.5ZM74.8926 98.3575C65.2951 101.983 54.705 101.983 45.1076 98.3575C45.3915 96.2021 46.2463 94.1618 47.5833 92.4476C48.9204 90.7335 50.6912 89.4077 52.7126 88.6075L55.4801 87.5H64.5201L67.2876 88.6075C69.3089 89.4077 71.0797 90.7335 72.4168 92.4476C73.7539 94.1618 74.6086 96.2021 74.8926 98.3575Z" fill="black"/>
<path id="Vector_3" d="M2.5 55H32.5C33.163 55 33.7989 54.7366 34.2678 54.2678C34.7366 53.7989 35 53.163 35 52.5V26.455L45.355 24.975C45.8469 24.9022 46.3059 24.6844 46.6734 24.3494C47.0409 24.0144 47.3001 23.5774 47.4179 23.0943C47.5357 22.6112 47.5068 22.1039 47.3348 21.6373C47.1629 21.1708 46.8557 20.7661 46.4525 20.475L35 12.285V2.5C35 1.83696 34.7366 1.20107 34.2678 0.732233C33.7989 0.263392 33.163 0 32.5 0L2.5 0C1.83696 0 1.20107 0.263392 0.732233 0.732233C0.263392 1.20107 0 1.83696 0 2.5L0 52.5C0 53.163 0.263392 53.7989 0.732233 54.2678C1.20107 54.7366 1.83696 55 2.5 55ZM5 5H30V13.5725C30 13.9706 30.095 14.363 30.2772 14.7169C30.4594 15.0709 30.7235 15.3762 31.0475 15.6075L38.47 20.9075L32.145 21.8125C31.5499 21.8979 31.0055 22.1948 30.6116 22.6489C30.2176 23.103 30.0005 23.6838 30 24.285V50H5V5Z" fill="black"/>
<path id="Vector_4" d="M117.501 0H87.5008C86.8378 0 86.2019 0.263392 85.733 0.732233C85.2642 1.20107 85.0008 1.83696 85.0008 2.5V12.285L73.5483 20.465C73.1451 20.7561 72.8379 21.1608 72.666 21.6273C72.494 22.0939 72.4651 22.6012 72.5829 23.0843C72.7007 23.5674 72.9599 24.0044 73.3274 24.3394C73.6949 24.6744 74.1539 24.8922 74.6458 24.965L85.0008 26.455V52.5C85.0008 53.163 85.2642 53.7989 85.733 54.2678C86.2019 54.7366 86.8378 55 87.5008 55H117.501C118.164 55 118.8 54.7366 119.269 54.2678C119.737 53.7989 120.001 53.163 120.001 52.5V2.5C120.001 1.83696 119.737 1.20107 119.269 0.732233C118.8 0.263392 118.164 0 117.501 0ZM115.001 50H90.0008V24.285C90.0003 23.6838 89.7832 23.103 89.3892 22.6489C88.9953 22.1948 88.4509 21.8979 87.8558 21.8125L81.5308 20.9075L88.9533 15.6075C89.2773 15.3762 89.5414 15.0709 89.7236 14.7169C89.9058 14.363 90.0008 13.9706 90.0008 13.5725V5H115.001V50Z" fill="black"/>
<path id="Vector_5" d="M117.501 65H87.501C86.8379 65 86.202 65.2634 85.7332 65.7322C85.2644 66.2011 85.001 66.837 85.001 67.5V74.5425L74.316 77.5975C73.82 77.7394 73.3802 78.0313 73.0567 78.4331C72.7331 78.8349 72.5418 79.3269 72.509 79.8417C72.4761 80.3565 72.6033 80.8689 72.8731 81.3085C73.1429 81.7482 73.5421 82.0936 74.016 82.2975L85.001 87V117.5C85.001 118.163 85.2644 118.799 85.7332 119.268C86.202 119.737 86.8379 120 87.501 120H117.501C118.164 120 118.8 119.737 119.269 119.268C119.738 118.799 120.001 118.163 120.001 117.5V67.5C120.001 66.837 119.738 66.2011 119.269 65.7322C118.8 65.2634 118.164 65 117.501 65ZM115.001 115H90.001V85.3575C90.0009 84.8683 89.8574 84.3899 89.5881 83.9815C89.3188 83.5731 88.9356 83.2527 88.486 83.06L82.4485 80.4725L88.1985 78.8325C88.719 78.6813 89.1764 78.3649 89.5015 77.9311C89.8266 77.4973 90.0019 76.9696 90.001 76.4275V70H115.001V115Z" fill="black"/>
<path id="Vector_6" d="M15 10H25V15H15V10Z" fill="black"/>
<path id="Vector_7" d="M10 20H25V25H10V20Z" fill="black"/>
<path id="Vector_8" d="M10 30H25V35H10V30Z" fill="black"/>
<path id="Vector_9" d="M10 40H20V45H10V40Z" fill="black"/>
<path id="Vector_10" d="M100 75H110V80H100V75Z" fill="black"/>
<path id="Vector_11" d="M95 85H110V90H95V85Z" fill="black"/>
<path id="Vector_12" d="M95 95H110V100H95V95Z" fill="black"/>
<path id="Vector_13" d="M95 105H105V110H95V105Z" fill="black"/>
<path id="Vector_14" d="M100 10H110V15H100V10Z" fill="black"/>
<path id="Vector_15" d="M95 20H110V25H95V20Z" fill="black"/>
<path id="Vector_16" d="M95 30H110V35H95V30Z" fill="black"/>
<path id="Vector_17" d="M95 40H105V45H95V40Z" fill="black"/>
<path id="Vector_18" d="M2.5 120H32.5C33.163 120 33.7989 119.737 34.2678 119.268C34.7366 118.799 35 118.163 35 117.5V87L45.985 82.2925C46.4589 82.0887 46.8581 81.7432 47.1279 81.3035C47.3977 80.8639 47.5248 80.3515 47.492 79.8367C47.4591 79.3219 47.2678 78.8299 46.9443 78.4281C46.6208 78.0263 46.1809 77.7344 45.685 77.5925L35 74.5425V67.5C35 66.837 34.7366 66.2011 34.2678 65.7322C33.7989 65.2634 33.163 65 32.5 65H2.5C1.83696 65 1.20107 65.2634 0.732233 65.7322C0.263392 66.2011 0 66.837 0 67.5L0 117.5C0 118.163 0.263392 118.799 0.732233 119.268C1.20107 119.737 1.83696 120 2.5 120ZM5 70H30V76.4275C29.9999 76.9712 30.177 77.5001 30.5045 77.9341C30.832 78.3681 31.2921 78.6835 31.815 78.8325L37.565 80.4725L31.5275 83.06C31.0779 83.2527 30.6947 83.5731 30.4254 83.9815C30.1561 84.3899 30.0126 84.8683 30.0125 85.3575V115H5V70Z" fill="black"/>
<path id="Vector_19" d="M15 75H25V80H15V75Z" fill="black"/>
<path id="Vector_20" d="M10 85H25V90H10V85Z" fill="black"/>
<path id="Vector_21" d="M10 95H25V100H10V95Z" fill="black"/>
<path id="Vector_22" d="M10 105H20V110H10V105Z" fill="black"/>
</g>
</g>
<defs>
<clipPath id="clip0_908_6772">
<rect width="120" height="120" fill="white"/>
</clipPath>
</defs>
</svg>
