<svg width="120" height="120" viewBox="0 0 120 120" fill="none" xmlns="http://www.w3.org/2000/svg">
<g id="Frame">
<g id="Group">
<g id="Group_2">
<path id="Vector" d="M58.0936 6.8987V12.5879H63.7828H69.472V10.6919V8.79591H72.7432L75.9904 8.81991L75.2788 9.3179C73.9036 10.3367 71.0596 13.2059 70.0396 14.6279C67.7404 17.8283 66.3172 21.5267 65.8672 25.4375L65.5828 27.7607H38.8204C18.5512 27.7607 11.7952 27.8315 11.0608 28.0451C9.75642 28.4243 7.55202 30.6287 7.17282 31.9331C6.95922 32.6447 6.88842 36.2471 6.88842 45.0191V57.1319L5.89242 56.6819C3.92442 55.7807 2.52642 56.2787 1.64922 58.1987C1.22322 59.1227 1.19922 60.4031 1.19922 86.4083C1.19922 107.033 1.27002 113.884 1.48362 114.619C1.86282 115.924 4.06722 118.128 5.37162 118.507C6.10602 118.721 13.36 118.792 35.4784 118.792C63.3328 118.792 64.6612 118.768 65.5852 118.342C68.1688 117.18 68.1928 115.189 65.656 112.51L64.4236 111.205H89.0308C107.592 111.205 113.874 111.134 114.61 110.921C115.914 110.542 118.119 108.337 118.498 107.033C118.901 105.611 118.901 33.3539 118.498 31.9319C118.119 30.6275 115.914 28.4231 114.61 28.0439C114.065 27.8783 113.093 27.7595 112.452 27.7595H111.267L111.101 26.0291C110.58 20.6003 108.494 16.1195 104.676 12.2315C103.515 11.0219 102.164 9.76671 101.714 9.43431L100.884 8.7947H104.156H107.403V10.6907V12.5867H113.092H118.781V6.89751V1.20831H113.092H107.403V3.10431V5.00031H88.438H69.4732V3.10431V1.20831H63.784H58.0948V6.8987H58.0936ZM65.68 6.8987V8.7947H63.784H61.888V6.8987V5.0027H63.784H65.68V6.8987ZM114.988 6.8987V8.7947H113.092H111.196V6.8987V5.0027H113.092H114.988V6.8987ZM93.5344 9.3875C98.608 10.7627 103.065 14.4131 105.364 19.1075C106.644 21.6443 107.165 23.5883 107.332 26.3375C107.83 33.9467 104.037 40.7747 97.2808 44.4959L96.0244 45.1835V46.8899V48.6203H93.1792H90.334V41.8643V35.1083L91.5196 34.5155C93.226 33.6623 94.1752 32.7143 95.0992 31.0307C96.2368 28.8731 96.2368 26.6447 95.0992 24.4883C94.1752 22.8047 93.226 21.8807 91.4488 20.9555C89.6944 20.0315 87.1816 20.0315 85.4272 20.9555C83.6488 21.8807 82.7008 22.8047 81.7768 24.4883C80.6152 26.6459 80.6152 28.8743 81.7768 31.0307C82.7008 32.7143 83.6488 33.6623 85.3564 34.5155L86.542 35.1083V41.8643V48.6203H83.6968H80.8516V46.8899V45.1835L79.1212 44.2115C74.5216 41.5799 71.3692 37.5023 70.042 32.3819C69.4492 30.1055 69.4492 24.9623 70.042 22.7807C71.962 15.7163 77.818 10.3115 84.9292 9.03111C86.7076 8.72392 91.828 8.9375 93.5344 9.3875ZM90.7612 24.5831C91.804 25.3655 92.278 26.5031 92.1604 28.0679C92.0176 30.4391 90.5956 31.6475 88.1308 31.4819C85.7608 31.3391 84.5512 29.9171 84.7168 27.4523C84.8116 25.8875 85.3336 25.0103 86.566 24.3707C87.6316 23.8007 89.836 23.9195 90.7612 24.5831ZM66.4144 33.4487C67.126 36.2459 68.572 39.0191 71.1088 42.4811C71.4172 42.9311 70.7056 42.9311 41.0488 42.9311H10.6816V37.7159C10.6816 32.8091 10.7056 32.4767 11.1556 32.0267C11.6296 31.5527 11.89 31.5527 38.7964 31.5995L65.9632 31.6703L66.4144 33.4487ZM114.514 32.0267C114.964 32.4767 114.988 32.8091 114.988 37.7159V42.9311H110.223C105.6 42.9311 105.458 42.9071 105.766 42.4811C108.231 39.1391 109.678 36.3407 110.364 33.6863C110.602 32.8331 110.814 32.0027 110.862 31.8371C110.909 31.6475 111.455 31.5527 112.498 31.5527C113.732 31.5527 114.135 31.6475 114.514 32.0267ZM76.4656 47.1035C77.3908 47.6963 77.296 49.2611 76.252 50.6123C75.0436 52.2011 74.9008 53.9315 75.8248 55.5431C76.18 56.1599 76.18 56.2547 75.754 56.9651C75.4456 57.4871 75.304 58.1975 75.28 59.0747C75.28 60.6863 76.0624 62.0147 77.5792 63.0095L78.5752 63.6731L87.82 63.7439C98.3452 63.8147 98.6536 63.7919 100.17 62.2499C101.735 60.7091 102.066 58.6223 101.048 56.8691C100.715 56.3243 100.715 56.1815 101.048 55.4471C101.949 53.5031 101.854 52.2227 100.622 50.6111C99.982 49.7819 99.8152 49.3307 99.8152 48.5255C99.8152 46.7471 99.8632 46.7243 107.994 46.7243H114.988V76.5935C114.988 106.156 114.988 106.463 114.514 106.938C114.04 107.413 113.732 107.412 87.1336 107.412H60.2272L48.208 96.1043L36.1888 84.7727L49.9852 84.7019L63.7828 84.6539V67.5851V50.5175H39.1288H14.4748V57.4163V64.2911L12.5788 62.5607L10.6828 60.8303V53.7659V46.7255H43.2784C72.91 46.7243 75.9448 46.7483 76.4656 47.1035ZM97.8016 53.3627V54.1919H88.438H79.0744L79.0036 53.6471C78.814 52.3667 78.4348 52.4147 88.486 52.4615L97.8028 52.5323V53.3627H97.8016ZM59.9908 67.5863V80.8619H46.0516H32.0884L25.1896 74.3903L18.2908 67.9427V61.1147L18.2668 54.3107H39.1276H59.9884V67.5863H59.9908ZM97.8016 59.0519V59.8811H88.438H79.0744L79.0036 59.3363C78.814 58.0559 78.4348 58.1039 88.486 58.1507L97.8028 58.2215V59.0519H97.8016ZM13.1704 68.2967C16.5604 71.4971 21.8464 76.4987 24.9052 79.3679C42.424 95.7959 62.5984 114.809 62.5984 114.904C62.5984 114.95 49.8448 114.998 34.27 114.998C6.24882 114.998 5.94162 114.998 5.46762 114.524C5.08842 114.145 4.99362 113.742 4.99362 112.628V111.206H6.88962H8.78562V109.31V107.414H6.88962H4.99362V105.518V103.622H6.88962H8.78562V101.726V99.8303H6.88962H4.99362V97.9343V96.0383H6.88962H8.78562V94.1423V92.2463H6.88962H4.99362V90.3503V88.4543H6.88962H8.78562V86.5583V84.6623H6.88962H4.99362V82.7663V80.8703H6.88962H8.78562V78.9743V77.0783H6.88962H4.99362V75.1823V73.2863H6.88962H8.78562V71.3903V69.4943H6.88962H4.99362V65.0855V60.6635L6.01122 61.5647C6.55722 62.0387 9.78042 65.0735 13.1704 68.2967Z" fill="black"/>
<path id="Vector_2" d="M15.4466 35.6543C14.1662 36.2939 14.309 38.3567 15.6842 38.9015C17.7938 39.7787 19.2638 36.5543 17.1782 35.6063C16.4414 35.2751 16.157 35.2751 15.4466 35.6543Z" fill="black"/>
<path id="Vector_3" d="M23.0804 35.6303C21.8 36.2471 21.848 38.2139 23.1512 38.8307C24.716 39.5891 26.2808 38.1191 25.616 36.5075C25.19 35.4875 24.1472 35.1083 23.0804 35.6303Z" fill="black"/>
<path id="Vector_4" d="M30.6673 35.6303C29.3629 36.2699 29.4817 38.3327 30.8569 38.9015C32.9665 39.7787 34.4365 36.5543 32.3509 35.6063C31.6381 35.2979 31.3537 35.2979 30.6673 35.6303Z" fill="black"/>
<path id="Vector_5" d="M67.5762 71.3784V73.2744H89.3862H111.196V71.3784V69.4824H89.3862H67.5762V71.3784Z" fill="black"/>
<path id="Vector_6" d="M67.5762 78.9646V80.8606H89.3862H111.196V78.9646V77.0686H89.3862H67.5762V78.9646Z" fill="black"/>
<path id="Vector_7" d="M67.5762 86.551V88.447H89.3862H111.196V86.551V84.655H89.3862H67.5762V86.551Z" fill="black"/>
<path id="Vector_8" d="M67.5762 94.1362V96.0322H89.3862H111.196V94.1362V92.2402H89.3862H67.5762V94.1362Z" fill="black"/>
<path id="Vector_9" d="M14.4746 94.1135V105.516H26.5646C33.2258 105.516 38.6546 105.468 38.6546 105.421C38.6546 105.302 15.4466 83.4455 14.9006 83.0423C14.4986 82.7339 14.4746 83.1839 14.4746 94.1135ZM29.1722 101.652C29.1722 101.676 26.7302 101.723 23.7194 101.723H18.2666V96.4835V91.2683L23.7194 96.4127C26.7302 99.2339 29.1722 101.604 29.1722 101.652Z" fill="black"/>
</g>
</g>
</g>
</svg>
