<svg width="120" height="120" viewBox="0 0 120 120" fill="none" xmlns="http://www.w3.org/2000/svg">
<g id="Frame">
<g id="Outline">
<path id="Vector" d="M105 76.875H15V28.125C15.0017 26.6337 15.5948 25.2039 16.6494 24.1494C17.7039 23.0948 19.1337 22.5017 20.625 22.5H61.875V18.75H20.625C18.1395 18.7528 15.7565 19.7414 13.999 21.499C12.2414 23.2565 11.2528 25.6395 11.25 28.125V86.25C11.2528 88.7355 12.2414 91.1185 13.999 92.876C15.7565 94.6336 18.1395 95.6222 20.625 95.625H44.0316L40.0137 105H31.875C30.3832 105 28.9524 105.593 27.8975 106.648C26.8426 107.702 26.25 109.133 26.25 110.625C26.25 112.117 26.8426 113.548 27.8975 114.602C28.9524 115.657 30.3832 116.25 31.875 116.25H88.125C89.6168 116.25 91.0476 115.657 92.1025 114.602C93.1574 113.548 93.75 112.117 93.75 110.625C93.75 109.133 93.1574 107.702 92.1025 106.648C91.0476 105.593 89.6168 105 88.125 105H79.9863L75.9684 95.625H99.375C101.861 95.6222 104.243 94.6336 106.001 92.876C107.759 91.1185 108.747 88.7355 108.75 86.25V54.375H105V76.875ZM90 110.625C89.9994 111.122 89.8017 111.599 89.4502 111.95C89.0987 112.302 88.6221 112.499 88.125 112.5H31.875C31.3777 112.5 30.9008 112.302 30.5492 111.951C30.1975 111.599 30 111.122 30 110.625C30 110.128 30.1975 109.651 30.5492 109.299C30.9008 108.948 31.3777 108.75 31.875 108.75H88.125C88.6221 108.751 89.0987 108.948 89.4502 109.3C89.8017 109.651 89.9994 110.128 90 110.625ZM75.9066 105H44.0934L48.1113 95.625H71.8887L75.9066 105ZM99.375 91.875H20.625C19.1337 91.8733 17.7039 91.2802 16.6494 90.2256C15.5948 89.1711 15.0017 87.7413 15 86.25V80.625H105V86.25C104.998 87.7413 104.405 89.1711 103.351 90.2256C102.296 91.2802 100.866 91.8733 99.375 91.875Z" fill="black"/>
<path id="Vector_2" d="M58.125 84.375H61.875V88.125H58.125V84.375Z" fill="black"/>
<path id="Vector_3" d="M115.093 25.5896C115.387 25.3375 115.596 25.0007 115.691 24.6252C115.786 24.2498 115.762 23.8542 115.623 23.4929L113.38 17.6607C113.241 17.2993 112.993 16.9899 112.671 16.7748C112.349 16.5597 111.969 16.4496 111.582 16.4595L106.477 16.5896L104.235 14.2292L104.626 9.13832C104.655 8.75226 104.565 8.3665 104.366 8.034C104.168 7.70151 103.872 7.4386 103.518 7.28137L97.8069 4.74356C97.4531 4.58629 97.0593 4.54242 96.6796 4.61795C96.2998 4.69349 95.9528 4.88474 95.6861 5.16543L92.1691 8.86668L88.9138 8.78371L85.5901 4.90738C85.3381 4.61357 85.0013 4.40497 84.626 4.31021C84.2507 4.21546 83.8552 4.2392 83.4939 4.37817L77.6615 6.62137C77.3001 6.76037 76.9907 7.00782 76.7756 7.32973C76.5606 7.65164 76.4504 8.03224 76.4603 8.41926L76.5904 13.5232L74.23 15.7664L69.1391 15.375C68.7531 15.3454 68.3673 15.436 68.0349 15.6343C67.7024 15.8327 67.4394 16.1291 67.2822 16.4829L64.7444 22.1939C64.5872 22.5477 64.5433 22.9415 64.6188 23.3212C64.6944 23.7009 64.8856 24.0479 65.1662 24.3146L68.8675 27.8318L68.7843 31.0871L64.9084 34.4105C64.6145 34.6626 64.4058 34.9994 64.311 35.3748C64.2162 35.7503 64.2399 36.1458 64.379 36.5072L66.6222 42.3394C66.7623 42.7 67.01 43.0087 67.3317 43.2236C67.6533 43.4385 68.0333 43.5492 68.4201 43.5406L73.5243 43.4105L75.767 45.7709L75.3758 50.8618C75.3462 51.2478 75.4368 51.6336 75.6352 51.9661C75.8337 52.2986 76.1301 52.5615 76.484 52.7187L82.1941 55.2565C82.5479 55.4138 82.9417 55.4577 83.3214 55.3821C83.7012 55.3066 84.0482 55.1153 84.3149 54.8347L87.8319 51.1334L91.0872 51.2164L94.4109 55.0927C94.6629 55.3865 94.9997 55.5951 95.375 55.6899C95.7503 55.7846 96.1458 55.7609 96.5071 55.6219L102.34 53.3787C102.701 53.2397 103.01 52.9923 103.225 52.6703C103.44 52.3484 103.551 51.9678 103.541 51.5808L103.411 46.4768L105.771 44.2336L110.863 44.625C111.249 44.6547 111.634 44.5641 111.967 44.3657C112.299 44.1674 112.562 43.8709 112.72 43.5172L115.257 37.8071C115.415 37.4533 115.458 37.0595 115.383 36.6798C115.307 36.3001 115.116 35.9531 114.835 35.6864L111.134 32.1692L111.217 28.9139L115.093 25.5896ZM107.947 34.3125L111.293 37.4925L109.829 40.7841L105.227 40.4311C104.965 40.4108 104.702 40.4458 104.455 40.5337C104.208 40.6217 103.982 40.7606 103.792 40.9416L100.223 44.3323C100.033 44.513 99.8831 44.7315 99.7827 44.9737C99.6823 45.2159 99.6337 45.4764 99.6402 45.7386L99.7574 50.3529L96.3951 51.6462L93.3904 48.1421C93.2196 47.943 93.0089 47.7819 92.772 47.6693C92.535 47.5567 92.2771 47.4951 92.0148 47.4884L87.093 47.3628C87.077 47.3628 87.0611 47.3628 87.0461 47.3628C86.7918 47.3627 86.5401 47.4144 86.3064 47.5147C86.0727 47.615 85.8619 47.7618 85.6867 47.9461L82.5069 51.2923L79.2168 49.8282L79.5698 45.2262C79.5898 44.9646 79.5548 44.7017 79.4669 44.4545C79.379 44.2073 79.2402 43.9813 79.0595 43.7911L75.6686 40.2223C75.4884 40.0316 75.2701 39.8811 75.0277 39.7807C74.7854 39.6803 74.5245 39.6322 74.2623 39.6396L69.648 39.7568L68.3547 36.3945L71.8586 33.39C72.0577 33.2193 72.2189 33.0086 72.3315 32.7717C72.4441 32.5347 72.5058 32.2768 72.5125 32.0145L72.6384 27.0926C72.6449 26.8305 72.5964 26.5699 72.496 26.3277C72.3956 26.0855 72.2455 25.867 72.0555 25.6864L68.7086 22.5078L70.1727 19.216L74.7749 19.5689C75.0365 19.5887 75.2993 19.5535 75.5465 19.4656C75.7936 19.3777 76.0197 19.239 76.21 19.0585L79.7786 15.6678C79.9686 15.4871 80.1186 15.2686 80.219 15.0264C80.3194 14.7842 80.368 14.5236 80.3615 14.2615L80.2443 9.64715L83.6066 8.35387L86.6113 11.858C86.782 12.0568 86.9924 12.2176 87.2291 12.3301C87.4657 12.4425 87.7233 12.5042 87.9852 12.511L92.9071 12.6366C93.1694 12.6449 93.4305 12.5972 93.673 12.4967C93.9154 12.3962 94.1337 12.2453 94.3133 12.0539L97.4931 8.70777L100.785 10.1719L100.432 14.7739C100.412 15.0355 100.447 15.2983 100.535 15.5455C100.623 15.7927 100.761 16.0188 100.942 16.2089L104.333 19.7778C104.513 19.9683 104.732 20.1187 104.974 20.2191C105.216 20.3195 105.477 20.3677 105.739 20.3604L110.354 20.2432L111.647 23.6056L108.144 26.6086C107.945 26.7794 107.784 26.9901 107.671 27.227C107.558 27.464 107.497 27.7219 107.49 27.9842L107.364 32.9061C107.357 33.1682 107.406 33.4289 107.506 33.6711C107.607 33.9134 107.757 34.1319 107.947 34.3125Z" fill="black"/>
<path id="Vector_4" d="M85.2089 17.544C82.7454 18.4916 80.6181 20.1484 79.0962 22.3049C77.5743 24.4614 76.726 27.0208 76.6586 29.6595C76.5913 32.2981 77.3079 34.8974 78.7178 37.1288C80.1278 39.3602 82.1677 41.1233 84.5797 42.1953C86.9918 43.2673 89.6675 43.6 92.2685 43.1513C94.8696 42.7026 97.2792 41.4926 99.1926 39.6745C101.106 37.8563 102.437 35.5116 103.018 32.9368C103.599 30.362 103.403 27.6728 102.456 25.2093C101.182 21.9083 98.6506 19.2475 95.4173 17.8105C92.184 16.3735 88.5128 16.2777 85.2089 17.544ZM93.4451 38.9561C91.6738 39.6375 89.7402 39.7783 87.8888 39.3608C86.0374 38.9433 84.3514 37.9862 83.044 36.6105C81.7366 35.2347 80.8665 33.5022 80.5438 31.632C80.221 29.7618 80.4601 27.8379 81.2308 26.1035C82.0014 24.3692 83.2691 22.9023 84.8734 21.8884C86.4778 20.8745 88.3468 20.3591 90.244 20.4074C92.1413 20.4558 93.9816 21.0656 95.5323 22.1598C97.0829 23.254 98.2743 24.7835 98.9557 26.5548C99.8665 28.9303 99.7978 31.57 98.7647 33.8949C97.7316 36.2198 95.8185 38.04 93.4451 38.9561Z" fill="black"/>
<path id="Vector_5" d="M29.4509 39.9241L25.1516 35.6249L29.4509 31.3258L26.7992 28.6741L21.1742 34.2991C21.0001 34.4732 20.862 34.6799 20.7677 34.9074C20.6735 35.1349 20.625 35.3787 20.625 35.6249C20.625 35.8712 20.6735 36.115 20.7677 36.3425C20.862 36.57 21.0001 36.7767 21.1742 36.9508L26.7992 42.5758L29.4509 39.9241Z" fill="black"/>
<path id="Vector_6" d="M44.4505 42.5758L50.0755 36.9508C50.2497 36.7767 50.3878 36.57 50.482 36.3425C50.5763 36.115 50.6248 35.8712 50.6248 35.6249C50.6248 35.3787 50.5763 35.1349 50.482 34.9074C50.3878 34.6799 50.2497 34.4732 50.0755 34.2991L44.4505 28.6741L41.7988 31.3258L46.0982 35.6249L41.7988 39.9241L44.4505 42.5758Z" fill="black"/>
<path id="Vector_7" d="M31.9395 42.6899L35.6967 27.6921L39.3342 28.6033L35.577 43.6012L31.9395 42.6899Z" fill="black"/>
<path id="Vector_8" d="M20.625 46.875H24.375V50.625H20.625V46.875Z" fill="black"/>
<path id="Vector_9" d="M28.125 46.875H63.75V50.625H28.125V46.875Z" fill="black"/>
<path id="Vector_10" d="M20.625 54.375H24.375V58.125H20.625V54.375Z" fill="black"/>
<path id="Vector_11" d="M28.125 54.375H69.375V58.125H28.125V54.375Z" fill="black"/>
<path id="Vector_12" d="M20.625 61.875H24.375V65.625H20.625V61.875Z" fill="black"/>
<path id="Vector_13" d="M28.125 61.875H75V65.625H28.125V61.875Z" fill="black"/>
<path id="Vector_14" d="M20.625 69.375H24.375V73.125H20.625V69.375Z" fill="black"/>
<path id="Vector_15" d="M28.125 69.375H84.375V73.125H28.125V69.375Z" fill="black"/>
<path id="Vector_16" d="M88.125 69.375H91.875V73.125H88.125V69.375Z" fill="black"/>
<path id="Vector_17" d="M86.25 61.875H90V65.625H86.25V61.875Z" fill="black"/>
<path id="Vector_18" d="M78.75 61.875H82.5V65.625H78.75V61.875Z" fill="black"/>
<path id="Vector_19" d="M95.625 69.375H99.375V73.125H95.625V69.375Z" fill="black"/>
</g>
</g>
</svg>
