<svg width="120" height="120" viewBox="0 0 120 120" fill="none" xmlns="http://www.w3.org/2000/svg">
<g id="Capa_1" clip-path="url(#clip0_908_6829)">
<g id="Group">
<path id="Vector" d="M59.9995 45.6985C67.4693 45.6985 73.5462 39.6214 73.5462 32.1519C73.5462 30.2375 73.1536 28.3845 72.3797 26.6445C71.985 25.7574 70.9458 25.3585 70.0594 25.7529C69.1723 26.1476 68.7731 27.1864 69.1676 28.0735C69.2941 28.3578 69.4043 28.647 69.5032 28.9393H50.4991C51.8419 24.9795 55.5919 22.1206 59.9995 22.1206C61.5691 22.1206 63.0708 22.4724 64.4627 23.1664C65.3325 23.6 66.3872 23.2463 66.8203 22.3775C67.2537 21.5087 66.9005 20.4533 66.0316 20.0201C64.1482 19.081 62.1188 18.605 59.9998 18.605C52.53 18.605 46.4531 24.6821 46.4531 32.1519C46.4531 39.6216 52.5298 45.6985 59.9995 45.6985ZM69.2215 36.0959H50.7773C50.295 34.9726 50.0145 33.7435 49.976 32.4547H70.023C69.9844 33.7435 69.7038 34.9723 69.2215 36.0959ZM53.3016 39.6115H66.6973C64.92 41.209 62.5716 42.1831 59.9993 42.1831C57.4273 42.1829 55.0788 41.209 53.3016 39.6115Z" fill="black"/>
<path id="Vector_2" d="M21.5371 70.4506V75.5623C21.5371 76.5331 22.3241 77.3201 23.2949 77.3201C24.2657 77.3201 25.0527 76.5331 25.0527 75.5623V70.4506C25.0527 69.4606 25.858 68.6553 26.848 68.6553H47.7658C48.7544 68.6553 49.5588 69.4606 49.5588 70.4506V85.6732C49.5588 86.6618 48.7544 87.4662 47.7658 87.4662H26.848C25.858 87.4662 25.0527 86.6618 25.0527 85.6732V83.7654C25.0527 82.7946 24.2657 82.0076 23.2949 82.0076C22.3241 82.0076 21.5371 82.7946 21.5371 83.7654V85.6732C21.5371 88.6004 23.9195 90.9818 26.848 90.9818H47.7658C50.6929 90.9818 53.0744 88.6004 53.0744 85.6732V70.4506C53.0744 67.5221 50.6929 65.1396 47.7658 65.1396H26.848C23.9195 65.1399 21.5371 67.5223 21.5371 70.4506Z" fill="black"/>
<path id="Vector_3" d="M72.2353 90.9824H93.1526C96.0802 90.9824 98.4621 88.6004 98.4621 85.6726V70.4504C98.4621 67.5226 96.0802 65.1409 93.1526 65.1409H72.2353C69.3077 65.1409 66.9258 67.5228 66.9258 70.4504V85.6726C66.9258 88.6004 69.3077 90.9824 72.2353 90.9824ZM70.4414 70.4504C70.4414 69.4611 71.2462 68.6565 72.2353 68.6565H93.1526C94.1419 68.6565 94.9465 69.4613 94.9465 70.4504V85.6726C94.9465 86.6619 94.1416 87.4667 93.1526 87.4667H72.2353C71.246 87.4667 70.4414 86.6619 70.4414 85.6726V70.4504Z" fill="black"/>
<path id="Vector_4" d="M36.3033 85.969C36.3282 85.969 36.3533 85.9685 36.3783 85.9673C36.9711 85.9422 37.5111 85.6197 37.8144 85.1097L45.1702 72.7422C45.6666 71.9079 45.3924 70.829 44.558 70.3329C43.7234 69.8362 42.6448 70.1109 42.1487 70.9451L36.1669 81.0018L33.0425 76.6399C32.4772 75.8508 31.3791 75.6694 30.5898 76.2347C29.8006 76.8 29.619 77.898 30.1845 78.6874L34.8746 85.2349C35.2053 85.6966 35.738 85.969 36.3033 85.969Z" fill="black"/>
<path id="Vector_5" d="M75.7783 84.9776C76.1217 85.3207 76.5717 85.4925 77.0214 85.4925C77.4712 85.4925 77.9212 85.321 78.2645 84.9776L82.6947 80.5474L87.1249 84.9776C87.4682 85.3207 87.9182 85.4925 88.368 85.4925C88.8178 85.4925 89.2678 85.321 89.6111 84.9776C90.2976 84.2911 90.2976 83.1781 89.6111 82.4918L85.181 78.0617L89.6111 73.6315C90.2976 72.945 90.2976 71.832 89.6111 71.1457C88.9244 70.4592 87.8116 70.4592 87.1251 71.1457L82.6949 75.5759L78.2648 71.1457C77.5781 70.4592 76.4653 70.4592 75.7788 71.1457C75.0923 71.8322 75.0923 72.9453 75.7788 73.6315L80.2089 78.0617L75.7788 82.4918C75.0921 83.1781 75.092 84.2911 75.7783 84.9776Z" fill="black"/>
<path id="Vector_6" d="M118.865 103.426C117.836 102.103 116.285 101.344 114.609 101.344H114.433V37.6844C114.433 32.8623 110.51 28.9391 105.687 28.9391H85.1583L87.484 27.5969C88.7158 26.8867 89.5969 25.7387 89.9646 24.3641C90.3321 22.9912 90.1437 21.557 89.4333 20.3251L84.9597 12.5739C83.4911 10.0342 80.2287 9.15999 77.6854 10.6267L74.0969 12.6991C72.7521 11.7238 71.3133 10.8927 69.799 10.2161V6.07397C69.799 3.13702 67.4097 0.747803 64.4728 0.747803H55.5274C52.5921 0.747803 50.204 3.13726 50.204 6.07397V10.2156C48.6883 10.8923 47.249 11.7236 45.9051 12.6991L42.3133 10.6262C39.7697 9.15976 36.5076 10.0342 35.0426 12.5753L30.5704 20.324C29.8584 21.5551 29.669 22.99 30.0372 24.3641C30.4055 25.7385 31.2869 26.8865 32.5179 27.5962L34.8433 28.9391H14.314C9.49193 28.9391 5.56873 32.8623 5.56873 37.6844V101.343H5.39107C3.71482 101.343 2.16373 102.102 1.13553 103.426C0.107323 104.749 -0.244474 106.439 0.169901 108.064L1.11209 111.753C2.24014 116.168 6.20974 119.252 10.7653 119.252H92.6039C93.5749 119.252 94.3617 118.465 94.3617 117.494C94.3617 116.523 93.5749 115.736 92.6039 115.736H10.7653C7.81732 115.736 5.24857 113.74 4.51826 110.883L3.57631 107.195C3.43217 106.63 3.55451 106.042 3.9117 105.582C4.26889 105.122 4.80818 104.859 5.39084 104.859H39.3837V105.336C39.3837 109.041 42.3977 112.055 46.1022 112.055H73.8987C77.6034 112.055 80.6172 109.041 80.6172 105.336V104.859H114.609C115.192 104.859 115.731 105.122 116.088 105.582C116.445 106.042 116.568 106.63 116.424 107.194L115.481 110.884C114.753 113.741 112.185 115.736 109.235 115.736H100.807C99.8358 115.736 99.049 116.523 99.049 117.494C99.049 118.465 99.8358 119.252 100.807 119.252H109.235C113.793 119.252 117.763 116.168 118.888 111.753L119.83 108.064C120.245 106.439 119.893 104.749 118.865 103.426ZM33.4331 23.4543C33.3082 22.9881 33.3724 22.5013 33.6145 22.0825L38.0878 14.3317C38.5849 13.4694 39.6928 13.1734 40.5567 13.6715L45.1629 16.3298C45.7919 16.6928 46.579 16.6316 47.1447 16.1758C48.791 14.8487 50.6252 13.7891 52.5958 13.0269C53.2732 12.7649 53.7194 12.1136 53.7194 11.3875V6.07421C53.7194 5.07577 54.5304 4.26343 55.5272 4.26343H64.4726C65.471 4.26343 66.2833 5.07577 66.2833 6.07421V11.3875C66.2833 12.1134 66.7294 12.7644 67.4062 13.0267C69.375 13.7891 71.2094 14.8492 72.8592 16.1767C73.4247 16.6319 74.2115 16.6923 74.8404 16.3295L79.4426 13.6719C80.3074 13.1734 81.4172 13.4704 81.9155 14.3326L86.388 22.082C86.6294 22.5006 86.6936 22.9883 86.5685 23.4552C86.4438 23.9214 86.145 24.3107 85.7271 24.5516L81.127 27.2069C80.4984 27.5694 80.1576 28.281 80.2685 28.9982C80.4297 30.0412 80.5118 31.1022 80.5118 32.1522C80.5118 33.2029 80.43 34.263 80.2687 35.3024C80.1574 36.0196 80.4982 36.7314 81.127 37.0942L85.7266 39.7492C86.5896 40.2487 86.8861 41.358 86.3883 42.2214L81.9159 49.9675C81.6738 50.3863 81.2831 50.6859 80.816 50.8112C80.3489 50.9364 79.8621 50.8719 79.4437 50.6301L74.8404 47.9718C74.2111 47.6087 73.4236 47.6694 72.8576 48.1258C71.2111 49.454 69.3769 50.5145 67.406 51.2779C66.7291 51.5401 66.2831 52.1912 66.2831 52.9171V58.2304C66.2831 59.2272 65.4708 60.0381 64.4723 60.0381H55.5269C54.5301 60.0381 53.7192 59.2272 53.7192 58.2304V52.9171C53.7192 52.191 53.2727 51.5397 52.5956 51.2776C50.6229 50.5145 48.7894 49.4544 47.1459 48.1269C46.8258 47.8684 46.4346 47.7365 46.0411 47.7365C45.7392 47.7365 45.4359 47.8141 45.1626 47.9718L40.5551 50.6308C40.1374 50.8722 39.6508 50.9364 39.1844 50.8115C38.718 50.6866 38.3285 50.3875 38.0869 49.9687L33.6136 42.2207C33.3719 41.803 33.3077 41.3158 33.4329 40.8491C33.558 40.3818 33.8576 39.9911 34.2759 39.7494L38.8732 37.0942C39.5001 36.7321 39.8409 36.0226 39.7317 35.3069C39.5719 34.2597 39.491 33.1984 39.491 32.1522C39.491 31.1069 39.5721 30.0442 39.7319 28.9937C39.8409 28.2782 39.5001 27.569 38.8732 27.2071L34.2747 24.5514C33.8571 24.3102 33.558 23.9207 33.4331 23.4543ZM30.57 43.9792L35.0421 51.7253C35.7527 52.9576 36.9007 53.8389 38.2751 54.2071C39.649 54.5748 41.084 54.3857 42.3138 53.6746L45.904 51.6027C47.2472 52.5791 48.6862 53.4112 50.2038 54.0885V58.2299C50.2038 61.1652 52.5919 63.5533 55.5272 63.5533H64.4726C67.4095 63.5533 69.7987 61.1652 69.7987 58.2299V54.0878C71.3144 53.4105 72.7535 52.5784 74.0976 51.6025L77.6847 53.6737C78.9162 54.3859 80.3512 54.5753 81.7258 54.2066C83.0993 53.8387 84.2479 52.9579 84.9602 51.726L89.4335 43.9783C90.2278 42.6009 90.3337 41.0123 89.8612 39.6116H101.465C102.731 39.6116 103.76 40.6415 103.76 41.9069V91.8899C103.76 93.1555 102.731 94.1854 101.465 94.1854H18.5367C17.2711 94.1854 16.2412 93.1555 16.2412 91.8899V41.9069C16.2412 40.6412 17.2711 39.6116 18.5367 39.6116H30.1425C30.1059 39.7199 30.0672 39.8275 30.0375 39.9391C29.669 41.3134 29.8584 42.7487 30.57 43.9792ZM9.08459 37.6844C9.08459 34.8008 11.4307 32.4548 14.3142 32.4548H35.9796C35.9887 33.1787 36.0288 33.9074 36.1033 34.634L33.5721 36.0958H18.5367C15.3326 36.0958 12.7256 38.7025 12.7256 41.9066V91.8897C12.7256 95.0938 15.3323 97.7008 18.5367 97.7008H101.465C104.669 97.7008 107.276 95.094 107.276 91.8897V41.9069C107.276 38.7027 104.669 36.096 101.465 36.096H86.4305L83.8992 34.6349C83.9742 33.9102 84.0145 33.1813 84.0239 32.455H105.688C108.571 32.455 110.917 34.8011 110.917 37.6846V101.342H9.08459V37.6844ZM77.1019 105.337C77.1019 107.103 75.6649 108.54 73.8989 108.54H46.1025C44.3362 108.54 42.8995 107.103 42.8995 105.337V104.859H77.1019V105.337Z" fill="black"/>
</g>
</g>
<defs>
<clipPath id="clip0_908_6829">
<rect width="120" height="120" fill="white"/>
</clipPath>
</defs>
</svg>
