<svg width="120" height="120" viewBox="0 0 120 120" fill="none" xmlns="http://www.w3.org/2000/svg">
<g id="Layer_1" clip-path="url(#clip0_908_6837)">
<path id="Vector" d="M58.1251 19.1604V6.40154L55.8017 8.72514C55.45 9.07681 54.9731 9.27437 54.4757 9.27437C53.9784 9.27437 53.5014 9.07681 53.1498 8.72514C52.7981 8.37347 52.6005 7.8965 52.6005 7.39916C52.6005 6.90182 52.7981 6.42485 53.1498 6.07318L58.6742 0.548965C58.8483 0.374845 59.055 0.236725 59.2825 0.142491C59.51 0.0482574 59.7538 -0.000244141 60.0001 -0.000244141C60.2463 -0.000244141 60.4901 0.0482574 60.7176 0.142491C60.9451 0.236725 61.1518 0.374845 61.3259 0.548965L66.8504 6.07318C67.2021 6.42485 67.3996 6.90182 67.3996 7.39916C67.3996 7.8965 67.2021 8.37347 66.8504 8.72514C66.4987 9.07681 66.0217 9.27437 65.5244 9.27437C65.0271 9.27437 64.5501 9.07681 64.1984 8.72514L61.8751 6.40154V19.1604C61.8751 19.6577 61.6775 20.1346 61.3259 20.4863C60.9743 20.8379 60.4974 21.0354 60.0001 21.0354C59.5028 21.0354 59.0259 20.8379 58.6742 20.4863C58.3226 20.1346 58.1251 19.6577 58.1251 19.1604ZM101.101 28.5868C101.598 28.5868 102.075 28.3892 102.427 28.0376C102.778 27.686 102.976 27.2091 102.976 26.7118V18.8991C102.976 18.4018 102.778 17.9249 102.427 17.5733C102.075 17.2217 101.598 17.0241 101.101 17.0241H93.2879C92.7906 17.0241 92.3137 17.2217 91.9621 17.5733C91.6104 17.9249 91.4129 18.4018 91.4129 18.8991C91.4129 19.3964 91.6104 19.8733 91.9621 20.2249C92.3137 20.5766 92.7906 20.7741 93.2879 20.7741H96.5741L87.552 29.7962C87.2004 30.1478 87.0028 30.6247 87.0028 31.122C87.0028 31.6193 87.2004 32.0962 87.552 32.4479C87.9037 32.7995 88.3806 32.9971 88.8779 32.9971C89.3752 32.9971 89.8521 32.7995 90.2037 32.4479L99.2258 23.4258V26.7118C99.2258 27.2091 99.4233 27.686 99.7749 28.0376C100.127 28.3892 100.603 28.5868 101.101 28.5868ZM113.927 53.1493C113.575 52.7976 113.098 52.6 112.601 52.6C112.103 52.6 111.626 52.7976 111.275 53.1493C110.923 53.5009 110.726 53.9779 110.726 54.4753C110.726 54.9726 110.923 55.4496 111.275 55.8012L113.598 58.1248H100.839C100.342 58.1248 99.8653 58.3224 99.5136 58.674C99.162 59.0256 98.9644 59.5025 98.9644 59.9998C98.9644 60.4971 99.162 60.974 99.5136 61.3257C99.8653 61.6773 100.342 61.8748 100.839 61.8748H113.598L111.275 64.1982C110.923 64.5499 110.726 65.0268 110.726 65.5242C110.726 66.0215 110.923 66.4985 111.275 66.8501C111.626 67.2018 112.103 67.3994 112.601 67.3994C113.098 67.3994 113.575 67.2018 113.927 66.8501L119.451 61.3257C119.625 61.1516 119.763 60.9449 119.857 60.7174C119.952 60.4899 120 60.2461 120 59.9998C120 59.7536 119.952 59.5098 119.857 59.2823C119.763 59.0548 119.625 58.8481 119.451 58.674L113.927 53.1493ZM91.4131 101.101C91.4131 101.598 91.6107 102.075 91.9623 102.426C92.3139 102.778 92.7908 102.976 93.2881 102.976H101.101C101.598 102.976 102.075 102.778 102.427 102.426C102.778 102.075 102.976 101.598 102.976 101.101V93.2876C102.976 92.7904 102.778 92.3134 102.427 91.9618C102.075 91.6102 101.598 91.4126 101.101 91.4126C100.603 91.4126 100.127 91.6102 99.7749 91.9618C99.4233 92.3134 99.2258 92.7904 99.2258 93.2876V96.5738L90.2037 87.5518C89.8521 87.2001 89.3752 87.0026 88.8779 87.0026C88.3806 87.0026 87.9037 87.2001 87.552 87.5518C87.2004 87.9034 87.0028 88.3803 87.0028 88.8776C87.0028 89.3749 87.2004 89.8519 87.552 90.2035L96.5741 99.2255H93.2881C92.7908 99.2255 92.3139 99.4231 91.9623 99.7747C91.6107 100.126 91.4131 100.603 91.4131 101.101ZM60.0001 98.9642C59.5028 98.9642 59.0259 99.1618 58.6742 99.5134C58.3226 99.865 58.1251 100.342 58.1251 100.839V113.598L55.8017 111.275C55.6276 111.1 55.4209 110.962 55.1933 110.868C54.9658 110.774 54.722 110.725 54.4757 110.725C54.2295 110.725 53.9856 110.774 53.7581 110.868C53.5306 110.962 53.3239 111.1 53.1498 111.275C52.9756 111.449 52.8375 111.655 52.7433 111.883C52.649 112.11 52.6005 112.354 52.6005 112.6C52.6005 112.847 52.649 113.091 52.7433 113.318C52.8375 113.546 52.9756 113.752 53.1498 113.926L58.6742 119.451C58.8483 119.625 59.055 119.763 59.2825 119.857C59.51 119.951 59.7538 120 60.0001 120C60.2463 120 60.4901 119.951 60.7176 119.857C60.9451 119.763 61.1518 119.625 61.3259 119.451L66.8504 113.926C67.0245 113.752 67.1626 113.546 67.2569 113.318C67.3511 113.091 67.3996 112.847 67.3996 112.6C67.3996 112.354 67.3511 112.11 67.2569 111.883C67.1626 111.655 67.0245 111.449 66.8504 111.275C66.6763 111.1 66.4695 110.962 66.242 110.868C66.0145 110.774 65.7707 110.725 65.5244 110.725C65.2782 110.725 65.0343 110.774 64.8068 110.868C64.5793 110.962 64.3726 111.1 64.1984 111.275L61.8751 113.598V100.839C61.8751 100.342 61.6775 99.865 61.3259 99.5134C60.9743 99.1618 60.4974 98.9642 60.0001 98.9642ZM32.4481 87.5518C32.274 87.3777 32.0673 87.2395 31.8398 87.1453C31.6123 87.0511 31.3685 87.0026 31.1223 87.0026C30.876 87.0026 30.6322 87.0511 30.4047 87.1453C30.1772 87.2395 29.9705 87.3777 29.7964 87.5518L20.7744 96.5738V93.2879C20.7744 92.7906 20.5768 92.3137 20.2252 91.962C19.8736 91.6104 19.3966 91.4129 18.8994 91.4129C18.4021 91.4129 17.9252 91.6104 17.5735 91.962C17.2219 92.3137 17.0244 92.7906 17.0244 93.2879V101.101C17.0244 101.598 17.2219 102.075 17.5735 102.426C17.9252 102.778 18.4021 102.976 18.8994 102.976H26.7123C27.2095 102.976 27.6864 102.778 28.0381 102.426C28.3897 102.075 28.5873 101.598 28.5873 101.101C28.5873 100.603 28.3897 100.126 28.0381 99.7747C27.6864 99.4231 27.2095 99.2255 26.7123 99.2255H23.4261L32.4481 90.2035C32.6222 90.0294 32.7604 89.8227 32.8546 89.5952C32.9488 89.3677 32.9973 89.1239 32.9973 88.8776C32.9973 88.6314 32.9488 88.3876 32.8546 88.1601C32.7604 87.9326 32.6222 87.7259 32.4481 87.5518ZM6.07343 66.8501C6.24756 67.0243 6.45428 67.1624 6.68179 67.2566C6.9093 67.3509 7.15315 67.3994 7.3994 67.3994C7.64566 67.3994 7.88951 67.3509 8.11702 67.2566C8.34453 67.1624 8.55125 67.0243 8.72538 66.8501C8.89951 66.676 9.03764 66.4693 9.13188 66.2418C9.22611 66.0143 9.27462 65.7704 9.27462 65.5242C9.27462 65.2779 9.22611 65.0341 9.13188 64.8066C9.03764 64.579 8.89951 64.3723 8.72538 64.1982L6.40179 61.8748H19.1607C19.658 61.8748 20.1349 61.6773 20.4865 61.3257C20.8381 60.974 21.0357 60.4971 21.0357 59.9998C21.0357 59.5025 20.8381 59.0256 20.4865 58.674C20.1349 58.3224 19.658 58.1248 19.1607 58.1248H6.40179L8.72538 55.8015C9.07705 55.4498 9.27462 54.9728 9.27462 54.4755C9.27462 53.9781 9.07705 53.5012 8.72538 53.1495C8.37371 52.7978 7.89674 52.6003 7.3994 52.6003C6.90207 52.6003 6.4251 52.7978 6.07343 53.1495L0.549209 58.674C0.375089 58.8481 0.236969 59.0548 0.142735 59.2823C0.0485015 59.5098 0 59.7536 0 59.9998C0 60.2461 0.0485015 60.4899 0.142735 60.7174C0.236969 60.9449 0.375089 61.1516 0.549209 61.3257L6.07343 66.8501ZM32.4481 29.7954L23.4261 20.7741H26.712C27.2093 20.7741 27.6862 20.5766 28.0378 20.2249C28.3895 19.8733 28.587 19.3964 28.587 18.8991C28.587 18.4018 28.3895 17.9249 28.0378 17.5733C27.6862 17.2217 27.2093 17.0241 26.712 17.0241H18.8994C18.4021 17.0241 17.9252 17.2217 17.5735 17.5733C17.2219 17.9249 17.0244 18.4018 17.0244 18.8991V26.712C17.0244 27.2093 17.2219 27.6862 17.5735 28.0378C17.9252 28.3895 18.4021 28.587 18.8994 28.587C19.3966 28.587 19.8736 28.3895 20.2252 28.0378C20.5768 27.6862 20.7744 27.2093 20.7744 26.712V23.4258L29.7964 32.4479C29.9705 32.622 30.1772 32.7601 30.4047 32.8543C30.6322 32.9486 30.876 32.9971 31.1223 32.9971C31.3685 32.9971 31.6123 32.9486 31.8398 32.8543C32.0673 32.7601 32.274 32.622 32.4481 32.4479C32.6222 32.2738 32.7603 32.0671 32.8546 31.8396C32.9488 31.6121 32.9973 31.3682 32.9973 31.122C32.9973 30.8758 32.9488 30.632 32.8546 30.4045C32.7603 30.177 32.6222 29.9703 32.4481 29.7962V29.7954ZM72.3209 78.979L61.1881 85.2565C60.9085 85.4141 60.5932 85.4973 60.2722 85.4981C59.9513 85.4989 59.6355 85.4173 59.3552 85.2611C59.0748 85.105 58.8392 84.8794 58.6709 84.6062C58.5026 84.3329 58.4073 84.021 58.3941 83.7003L58.066 75.744C56.1519 76.3088 54.1459 76.7899 52.048 77.1872C51.7479 77.2442 51.4386 77.2269 51.1467 77.1371C50.8549 77.0472 50.5894 76.8874 50.3733 76.6716L43.2526 69.5508C43.0367 69.3348 42.8769 69.0693 42.787 68.7774C42.6972 68.4855 42.68 68.1761 42.7369 67.876C43.134 65.7788 43.6151 63.7729 44.1802 61.8582L36.2239 61.5301C35.9032 61.5169 35.5913 61.4216 35.3179 61.2533C35.0446 61.085 34.8191 60.8494 34.6629 60.569C34.5067 60.2886 34.4251 59.9728 34.426 59.6518C34.4268 59.3308 34.51 59.0154 34.6676 58.7358L40.9451 47.603C41.0904 47.3455 41.2945 47.1259 41.5408 46.9623C41.7872 46.7986 42.0687 46.6956 42.3624 46.6615L52.2706 45.5131C52.4674 45.4902 52.6667 45.4988 52.8608 45.5387C53.8763 44.3948 54.9691 43.322 56.1315 42.3277C63.2391 36.2607 72.6859 33.4348 84.2096 33.9209C84.679 33.9408 85.1239 34.1362 85.4561 34.4685C85.7883 34.8008 85.9837 35.2456 86.0035 35.7151C86.4922 47.2388 83.6637 56.6853 77.5969 63.7932C76.6333 64.92 75.5958 65.9815 74.4912 66.9706L73.2634 77.5623C73.2293 77.8562 73.1262 78.1378 72.9624 78.3842C72.7986 78.6306 72.5788 78.8347 72.3209 78.9797V78.979ZM49.2657 58.6437C52.174 59.3591 54.8309 60.8569 56.9486 62.9747C59.0662 65.0926 60.5638 67.7497 61.2788 70.658C75.2687 65.0215 82.4745 53.7699 82.3023 37.6215C66.1496 37.4436 54.9015 44.653 49.2657 58.6437ZM45.4189 58.1562C46.5382 55.1438 47.9926 52.2667 49.7548 49.5793L43.741 50.2765L39.4369 57.9099L45.4189 58.1562ZM52.3175 73.3123C54.2042 72.9245 56.0046 72.4626 57.7187 71.9265C57.1928 69.5481 55.9985 67.3695 54.2764 65.6469C52.5542 63.9243 50.3759 62.7295 47.9977 62.2029C47.4623 63.9173 47.0001 65.7182 46.6114 67.6055L52.3175 73.3123ZM69.6477 76.182L70.3449 70.168C67.657 71.9301 64.7796 73.3845 61.7668 74.5039L62.0131 80.4849L69.6477 76.182ZM69.1016 50.8226C68.2135 49.9367 67.6602 48.7701 67.5359 47.5219C67.4117 46.2736 67.7242 45.0209 68.4202 43.9773C69.1162 42.9337 70.1526 42.1637 71.3527 41.7987C72.5529 41.4337 73.8425 41.4962 75.0017 41.9755C76.1609 42.4549 77.118 43.3215 77.7098 44.4275C78.3016 45.5336 78.4915 46.8106 78.2471 48.041C78.0028 49.2714 77.3392 50.379 76.3697 51.1749C75.4001 51.9708 74.1845 52.4059 72.9301 52.4058C72.219 52.4081 71.5145 52.2693 70.8573 51.9976C70.2002 51.7258 69.6034 51.3265 69.1016 50.8226ZM71.2655 46.9941C71.2655 47.3791 71.399 47.7521 71.6432 48.0497C71.8875 48.3473 72.2273 48.551 72.6049 48.6262C72.9824 48.7013 73.3744 48.6432 73.7139 48.4618C74.0534 48.2803 74.3195 47.9868 74.4669 47.6311C74.6143 47.2755 74.6338 46.8797 74.5221 46.5113C74.4104 46.1429 74.1744 45.8246 73.8544 45.6107C73.5344 45.3967 73.15 45.3004 72.7669 45.338C72.3838 45.3756 72.0256 45.545 71.7533 45.8171C71.5982 45.9713 71.4752 46.1547 71.3915 46.3567C71.3077 46.5588 71.2649 46.7754 71.2655 46.9941ZM36.4817 85.3172C36.728 85.3175 36.9719 85.2692 37.1995 85.175C37.427 85.0808 37.6338 84.9426 37.8078 84.7683L45.0718 77.5044C45.4235 77.1527 45.621 76.6757 45.621 76.1784C45.621 75.681 45.4235 75.2041 45.0718 74.8524C44.7201 74.5007 44.2431 74.3032 43.7458 74.3032C43.2485 74.3032 42.7715 74.5007 42.4198 74.8524L35.1563 82.1164C34.8941 82.3786 34.7155 82.7127 34.6431 83.0764C34.5708 83.4402 34.6079 83.8172 34.7498 84.1598C34.8918 84.5024 35.1321 84.7952 35.4404 85.0013C35.7488 85.2073 36.1113 85.3173 36.4822 85.3172H36.4817ZM37.1441 76.2795L40.4956 72.928C40.6697 72.7538 40.8078 72.5471 40.9021 72.3196C40.9963 72.0921 41.0448 71.8483 41.0448 71.6021C41.0448 71.3559 40.9963 71.112 40.9021 70.8845C40.8078 70.6571 40.6697 70.4503 40.4956 70.2762C40.3215 70.1021 40.1148 69.964 39.8873 69.8698C39.6598 69.7756 39.416 69.7271 39.1698 69.7271C38.9235 69.7271 38.6797 69.7756 38.4522 69.8698C38.2247 69.964 38.018 70.1021 37.8439 70.2762L34.4923 73.6278C34.1407 73.9794 33.9431 74.4564 33.9431 74.9537C33.9431 75.451 34.1407 75.9279 34.4923 76.2795C34.844 76.6311 35.3209 76.8287 35.8182 76.8287C36.3155 76.8287 36.7924 76.6311 37.1441 76.2795ZM45.1222 86.1324C45.3685 86.1327 45.6124 86.0844 45.84 85.9901C46.0676 85.8959 46.2743 85.7576 46.4483 85.5833L49.7998 82.2317C50.1515 81.88 50.349 81.4031 50.349 80.9058C50.349 80.4084 50.1514 79.9315 49.7997 79.5799C49.448 79.2282 48.9711 79.0307 48.4738 79.0307C47.9765 79.0307 47.4995 79.2283 47.1479 79.58L43.7963 82.9315C43.5341 83.1938 43.3555 83.5279 43.2831 83.8916C43.2108 84.2553 43.2479 84.6323 43.3898 84.9749C43.5318 85.3176 43.7721 85.6104 44.0804 85.8164C44.3888 86.0225 44.7513 86.1324 45.1222 86.1324Z" fill="black"/>
</g>
<defs>
<clipPath id="clip0_908_6837">
<rect width="120" height="120" fill="white"/>
</clipPath>
</defs>
</svg>
