<svg width="120" height="120" viewBox="0 0 120 120" fill="none" xmlns="http://www.w3.org/2000/svg">
<g id="Out_line">
<path id="Vector" d="M5.625 99.375H50.625V95.625H7.5V22.5H88.125V18.75H7.5V7.5H91.875V33.75H88.125V26.25H84.375V60H88.125V48.75H91.875V60H95.625V5.625C95.625 5.37877 95.5765 5.13495 95.4823 4.90746C95.3881 4.67997 95.25 4.47327 95.0758 4.29916C94.9017 4.12505 94.695 3.98694 94.4675 3.89271C94.2401 3.79849 93.9962 3.74999 93.75 3.75H5.625C5.37877 3.74999 5.13495 3.79849 4.90746 3.89271C4.67997 3.98694 4.47327 4.12505 4.29916 4.29916C4.12505 4.47327 3.98694 4.67997 3.89271 4.90746C3.79849 5.13495 3.74999 5.37877 3.75 5.625V97.5C3.74999 97.7462 3.79849 97.9901 3.89271 98.2175C3.98694 98.445 4.12505 98.6517 4.29916 98.8258C4.47327 99 4.67997 99.1381 4.90746 99.2323C5.13495 99.3265 5.37877 99.375 5.625 99.375ZM88.125 45V37.5H91.875V45H88.125Z" fill="black"/>
<path id="Vector_2" d="M61.875 41.25C62.1212 41.25 62.365 41.2015 62.5925 41.1073C62.82 41.0131 63.0267 40.875 63.2008 40.7008C63.375 40.5267 63.5131 40.32 63.6073 40.0925C63.7015 39.8651 63.75 39.6212 63.75 39.375V28.125C63.75 27.8788 63.7015 27.6349 63.6073 27.4075C63.5131 27.18 63.375 26.9733 63.2008 26.7992C63.0267 26.625 62.82 26.4869 62.5925 26.3927C62.365 26.2985 62.1212 26.25 61.875 26.25H37.5C37.2538 26.25 37.0099 26.2985 36.7825 26.3927C36.555 26.4869 36.3483 26.625 36.1742 26.7992C36 26.9733 35.8619 27.18 35.7677 27.4075C35.6735 27.6349 35.625 27.8788 35.625 28.125V39.375C35.625 39.6212 35.6735 39.8651 35.7677 40.0925C35.8619 40.32 36 40.5267 36.1742 40.7008C36.3483 40.875 36.555 41.0131 36.7825 41.1073C37.0099 41.2015 37.2538 41.25 37.5 41.25H61.875ZM39.375 30H60V37.5H39.375V30Z" fill="black"/>
<path id="Vector_3" d="M37.5 46.875C37.5 46.6288 37.4515 46.3849 37.3573 46.1575C37.2631 45.93 37.125 45.7233 36.9508 45.5492C36.7767 45.375 36.57 45.2369 36.3425 45.1427C36.1151 45.0485 35.8712 45 35.625 45H13.125C12.8788 45 12.6349 45.0485 12.4075 45.1427C12.18 45.2369 11.9733 45.375 11.7992 45.5492C11.625 45.7233 11.4869 45.93 11.3927 46.1575C11.2985 46.3849 11.25 46.6288 11.25 46.875V61.875C11.25 62.1212 11.2985 62.365 11.3927 62.5925C11.4869 62.82 11.625 63.0267 11.7992 63.2008C11.9733 63.375 12.18 63.5131 12.4075 63.6073C12.6349 63.7015 12.8788 63.75 13.125 63.75H35.625C35.8712 63.75 36.1151 63.7015 36.3425 63.6073C36.57 63.5131 36.7767 63.375 36.9508 63.2008C37.125 63.0267 37.2631 62.82 37.3573 62.5925C37.4515 62.365 37.5 62.1212 37.5 61.875V46.875ZM33.75 60H15V48.75H33.75V60Z" fill="black"/>
<path id="Vector_4" d="M60 45H80.625V48.75H60V45Z" fill="black"/>
<path id="Vector_5" d="M48.75 45H56.25V48.75H48.75V45Z" fill="black"/>
<path id="Vector_6" d="M41.25 52.5H80.625V56.25H41.25V52.5Z" fill="black"/>
<path id="Vector_7" d="M41.25 60H65.625V63.75H41.25V60Z" fill="black"/>
<path id="Vector_8" d="M56.25 69.375H60V73.125H56.25V69.375Z" fill="black"/>
<path id="Vector_9" d="M45 69.375H52.5V73.125H45V69.375Z" fill="black"/>
<path id="Vector_10" d="M41.25 76.875H54.375V80.625H41.25V76.875Z" fill="black"/>
<path id="Vector_11" d="M67.5 86.25V93.75C67.5 93.9962 67.5485 94.24 67.6427 94.4675C67.7369 94.695 67.875 94.9017 68.0492 95.0758C68.2233 95.25 68.43 95.3881 68.6575 95.4823C68.885 95.5765 69.1288 95.625 69.375 95.625H70.7951L69.791 96.6291C69.6169 96.8032 69.4787 97.0099 69.3845 97.2374C69.2903 97.4649 69.2418 97.7087 69.2418 97.9549C69.2418 98.2011 69.2903 98.445 69.3845 98.6724C69.4787 98.8999 69.6169 99.1066 69.791 99.2807L75.0943 104.584C75.2684 104.758 75.4751 104.896 75.7026 104.99C75.9301 105.085 76.1739 105.133 76.4202 105.133C76.6664 105.133 76.9102 105.085 77.1377 104.99C77.3652 104.896 77.5719 104.758 77.746 104.584L78.75 103.58V105C78.75 105.246 78.7985 105.49 78.8927 105.718C78.9869 105.945 79.125 106.152 79.2992 106.326C79.4733 106.5 79.68 106.638 79.9075 106.732C80.135 106.827 80.3788 106.875 80.625 106.875H88.125C88.3712 106.875 88.615 106.827 88.8425 106.732C89.07 106.638 89.2767 106.5 89.4508 106.326C89.625 106.152 89.7631 105.945 89.8573 105.718C89.9515 105.49 90 105.246 90 105V103.58L91.0041 104.584C91.3557 104.936 91.8326 105.133 92.3299 105.133C92.8272 105.133 93.3041 104.936 93.6557 104.584L98.959 99.2807C99.1331 99.1066 99.2713 98.8999 99.3655 98.6724C99.4597 98.445 99.5082 98.2011 99.5082 97.9549C99.5082 97.7087 99.4597 97.4649 99.3655 97.2374C99.2713 97.0099 99.1331 96.8032 98.959 96.6291L97.9549 95.625H99.375C99.6212 95.625 99.865 95.5765 100.093 95.4823C100.32 95.3881 100.527 95.25 100.701 95.0758C100.875 94.9017 101.013 94.695 101.107 94.4675C101.202 94.24 101.25 93.9962 101.25 93.75V86.25C101.25 86.0038 101.202 85.76 101.107 85.5325C101.013 85.305 100.875 85.0983 100.701 84.9242C100.527 84.75 100.32 84.6119 100.093 84.5177C99.865 84.4235 99.6212 84.375 99.375 84.375H97.9549L98.959 83.3708C99.1331 83.1967 99.2712 82.99 99.3655 82.7625C99.4597 82.535 99.5082 82.2912 99.5082 82.045C99.5082 81.7988 99.4597 81.5549 99.3655 81.3275C99.2712 81.1 99.1331 80.8933 98.959 80.7192L93.6557 75.416C93.4816 75.2419 93.2749 75.1037 93.0474 75.0095C92.82 74.9153 92.5761 74.8668 92.3299 74.8668C92.0837 74.8668 91.8399 74.9153 91.6124 75.0095C91.3849 75.1037 91.1782 75.2419 91.0041 75.416L90 76.4201V75C90 74.7538 89.9515 74.51 89.8573 74.2825C89.7631 74.055 89.625 73.8483 89.4508 73.6742C89.2767 73.5 89.07 73.3619 88.8425 73.2677C88.615 73.1735 88.3712 73.125 88.125 73.125H80.625C80.3788 73.125 80.135 73.1735 79.9075 73.2677C79.68 73.3619 79.4733 73.5 79.2992 73.6742C79.125 73.8483 78.9869 74.055 78.8927 74.2825C78.7985 74.51 78.75 74.7538 78.75 75V76.4201L77.7459 75.416C77.5718 75.2419 77.3651 75.1037 77.1376 75.0095C76.9101 74.9153 76.6663 74.8668 76.4201 74.8668C76.1739 74.8668 75.93 74.9153 75.7026 75.0095C75.4751 75.1037 75.2684 75.2419 75.0943 75.416L69.791 80.7192C69.6169 80.8933 69.4788 81.1 69.3845 81.3275C69.2903 81.555 69.2418 81.7988 69.2418 82.045C69.2418 82.2912 69.2903 82.535 69.3845 82.7625C69.4788 82.99 69.6169 83.1967 69.791 83.3708L70.7951 84.375H69.375C69.1288 84.375 68.885 84.4235 68.6575 84.5177C68.43 84.6119 68.2233 84.75 68.0492 84.9242C67.875 85.0983 67.7369 85.305 67.6427 85.5325C67.5485 85.76 67.5 86.0038 67.5 86.25ZM71.25 88.125H73.7746C74.1622 88.125 74.5404 88.0048 74.8569 87.781C75.1735 87.5573 75.4129 87.2409 75.5422 86.8754C75.6514 86.5652 75.777 86.261 75.9184 85.9641C76.0857 85.6142 76.1404 85.2209 76.0749 84.8386C76.0094 84.4562 75.8269 84.1036 75.5526 83.8293L73.7684 82.045L76.4201 79.3934L78.2044 81.1776C78.4786 81.4519 78.8313 81.6344 79.2136 81.6999C79.5959 81.7655 79.9892 81.7108 80.3391 81.5434C80.636 81.402 80.9402 81.2764 81.2504 81.1672C81.6159 81.0379 81.9323 80.7985 82.1561 80.4819C82.3798 80.1654 82.5 79.7872 82.5 79.3996V76.875H86.25V79.3996C86.25 79.7872 86.3702 80.1654 86.594 80.4819C86.8177 80.7985 87.1341 81.0379 87.4996 81.1672C87.8098 81.2764 88.114 81.402 88.4109 81.5434C88.7608 81.7107 89.1541 81.7654 89.5364 81.6999C89.9188 81.6344 90.2714 81.4519 90.5457 81.1776L92.3299 79.3934L94.9816 82.045L93.1974 83.8294C92.9231 84.1036 92.7406 84.4562 92.6751 84.8386C92.6096 85.2209 92.6643 85.6142 92.8316 85.9641C92.973 86.261 93.0986 86.5652 93.2078 86.8754C93.3371 87.2409 93.5765 87.5573 93.8931 87.781C94.2096 88.0048 94.5878 88.125 94.9754 88.125H97.5V91.875H94.9754C94.5878 91.875 94.2096 91.9952 93.8931 92.219C93.5765 92.4427 93.3371 92.7591 93.2078 93.1246C93.0986 93.4348 92.973 93.739 92.8316 94.0359C92.6642 94.3858 92.6096 94.7791 92.6751 95.1614C92.7406 95.5438 92.9231 95.8964 93.1974 96.1707L94.9816 97.9549L92.3299 100.607L90.5456 98.8224C90.2714 98.5481 89.9188 98.3656 89.5364 98.3001C89.1541 98.2345 88.7608 98.2893 88.4109 98.4566C88.114 98.598 87.8098 98.7236 87.4996 98.8328C87.1341 98.9621 86.8177 99.2015 86.594 99.5181C86.3702 99.8346 86.25 100.213 86.25 100.6V103.125H82.5V100.6C82.5 100.213 82.3798 99.8346 82.156 99.5181C81.9323 99.2015 81.6159 98.9621 81.2504 98.8328C80.9402 98.7236 80.636 98.598 80.3391 98.4566C79.9892 98.2893 79.5959 98.2346 79.2136 98.3001C78.8313 98.3656 78.4787 98.548 78.2043 98.8222L76.4201 100.606L73.7684 97.9549L75.5526 96.1706C75.8269 95.8964 76.0094 95.5438 76.0749 95.1614C76.1404 94.7791 76.0857 94.3858 75.9184 94.0359C75.777 93.739 75.6514 93.4348 75.5422 93.1246C75.4129 92.7591 75.1735 92.4427 74.8569 92.219C74.5404 91.9952 74.1622 91.875 73.7746 91.875H71.25V88.125Z" fill="black"/>
<path id="Vector_12" d="M84.3207 95.6788C85.4332 95.6788 86.5208 95.3489 87.4459 94.7307C88.3709 94.1126 89.0919 93.2341 89.5177 92.2062C89.9435 91.1783 90.0549 90.0473 89.8378 88.9561C89.6207 87.8649 89.085 86.8625 88.2983 86.0758C87.5116 85.2891 86.5092 84.7534 85.4181 84.5363C84.3269 84.3193 83.1958 84.4307 82.1679 84.8564C81.14 85.2822 80.2615 86.0032 79.6434 86.9282C79.0253 87.8533 78.6953 88.9409 78.6953 90.0534C78.697 91.5449 79.2902 92.9747 80.3448 94.0293C81.3994 95.0839 82.8292 95.6771 84.3207 95.6788ZM84.3207 88.1782C84.6916 88.1782 85.0541 88.2882 85.3625 88.4943C85.6709 88.7004 85.9112 88.9933 86.0532 89.3359C86.1951 89.6786 86.2322 90.0556 86.1599 90.4194C86.0875 90.7832 85.9089 91.1173 85.6466 91.3796C85.3843 91.6418 85.0502 91.8204 84.6864 91.8928C84.3226 91.9651 83.9456 91.928 83.6029 91.786C83.2603 91.6441 82.9674 91.4037 82.7613 91.0953C82.5553 90.7869 82.4453 90.4244 82.4453 90.0535C82.4459 89.5563 82.6437 89.0796 82.9952 88.7281C83.3468 88.3765 83.8235 88.1788 84.3207 88.1782Z" fill="black"/>
<path id="Vector_13" d="M84.3742 63.75C79.189 63.7411 74.1178 65.2714 69.803 68.147C65.4883 71.0226 62.1241 75.1142 60.1367 79.9034L63.5979 81.3467C65.5728 76.6079 69.1086 72.6869 73.6186 70.2342C78.1287 67.7816 83.3418 66.9448 88.3928 67.8626C93.4439 68.7805 98.0293 71.3979 101.388 75.2805C104.747 79.163 106.677 84.0774 106.859 89.208L104.45 86.7992L101.798 89.4508L107.423 95.0758C107.597 95.25 107.804 95.3881 108.032 95.4823C108.259 95.5765 108.503 95.625 108.749 95.625C108.995 95.625 109.239 95.5765 109.467 95.4823C109.694 95.3881 109.901 95.25 110.075 95.0758L115.7 89.4508L113.048 86.7992L110.612 89.2354C110.406 82.4115 107.552 75.9358 102.654 71.1791C97.7572 66.4224 91.2012 63.758 84.3742 63.75Z" fill="black"/>
<path id="Vector_14" d="M58.247 92.5292C58.7931 98.1633 61.1455 103.47 64.9536 107.658C68.7616 111.846 73.8212 114.691 79.3781 115.769C84.935 116.847 90.6915 116.101 95.7894 113.64C100.887 111.18 105.053 107.138 107.667 102.117L104.341 100.383C102.128 104.637 98.6132 108.073 94.3102 110.189C90.0072 112.306 85.1406 112.993 80.42 112.149C75.6993 111.306 71.3715 108.977 68.0674 105.501C64.7633 102.026 62.6557 97.5861 62.052 92.8289L64.2988 95.0757L66.9504 92.4242L61.3254 86.7992C60.9738 86.4475 60.4969 86.25 59.9996 86.25C59.5024 86.25 59.0255 86.4475 58.6738 86.7992L53.0488 92.4242L55.7004 95.0757L58.247 92.5292Z" fill="black"/>
<path id="Vector_15" d="M35.625 69.375H13.125C12.8788 69.375 12.6349 69.4235 12.4075 69.5177C12.18 69.6119 11.9733 69.75 11.7992 69.9242C11.625 70.0983 11.4869 70.305 11.3927 70.5325C11.2985 70.76 11.25 71.0038 11.25 71.25V86.25C11.25 86.4962 11.2985 86.74 11.3927 86.9675C11.4869 87.195 11.625 87.4017 11.7992 87.5758C11.9733 87.75 12.18 87.8881 12.4075 87.9823C12.6349 88.0765 12.8788 88.125 13.125 88.125H35.625C35.8712 88.125 36.1151 88.0765 36.3425 87.9823C36.57 87.8881 36.7767 87.75 36.9508 87.5758C37.125 87.4017 37.2631 87.195 37.3573 86.9675C37.4515 86.74 37.5 86.4962 37.5 86.25V71.25C37.5 71.0038 37.4515 70.76 37.3573 70.5325C37.2631 70.305 37.125 70.0983 36.9508 69.9242C36.7767 69.75 36.57 69.6119 36.3425 69.5177C36.1151 69.4235 35.8712 69.375 35.625 69.375ZM33.75 84.375H15V73.125H33.75V84.375Z" fill="black"/>
<path id="Vector_16" d="M13.125 15C14.1605 15 15 14.1605 15 13.125C15 12.0895 14.1605 11.25 13.125 11.25C12.0895 11.25 11.25 12.0895 11.25 13.125C11.25 14.1605 12.0895 15 13.125 15Z" fill="black"/>
<path id="Vector_17" d="M20.625 15C21.6605 15 22.5 14.1605 22.5 13.125C22.5 12.0895 21.6605 11.25 20.625 11.25C19.5895 11.25 18.75 12.0895 18.75 13.125C18.75 14.1605 19.5895 15 20.625 15Z" fill="black"/>
<path id="Vector_18" d="M28.125 15C29.1605 15 30 14.1605 30 13.125C30 12.0895 29.1605 11.25 28.125 11.25C27.0895 11.25 26.25 12.0895 26.25 13.125C26.25 14.1605 27.0895 15 28.125 15Z" fill="black"/>
</g>
</svg>
