<svg width="120" height="120" viewBox="0 0 120 120" fill="none" xmlns="http://www.w3.org/2000/svg">
<g id="Layer_1">
<g id="Layer_x0020_1">
<g id="_300420328">
<path id="_300421864" fill-rule="evenodd" clip-rule="evenodd" d="M73.7087 54.7141C73.0739 54.7141 72.5612 54.2014 72.5612 53.5666V37.6236C72.5612 36.9888 73.0739 36.476 73.7087 36.476C74.3435 36.476 74.8562 36.9888 74.8562 37.6236V53.5666C74.8562 54.2014 74.3435 54.7141 73.7087 54.7141ZM39.9182 90.9704H10.8643C10.2295 90.9704 9.7168 90.4577 9.7168 89.8229V26.3682C9.7168 25.7334 10.2295 25.2207 10.8643 25.2207H59.4991C60.1339 25.2207 60.6466 25.7334 60.6466 26.3682C60.6466 27.003 60.1339 27.5157 59.4991 27.5157H12.0118V88.6754H39.8938C40.5286 88.6754 41.0413 89.1881 41.0413 89.8229C41.0901 90.4577 40.553 90.9704 39.9182 90.9704Z" fill="black"/>
<path id="_300421576" fill-rule="evenodd" clip-rule="evenodd" d="M56.8632 38.9908H10.8897C10.2549 38.9908 9.74219 38.4781 9.74219 37.8433C9.74219 37.2085 10.2549 36.6958 10.8897 36.6958H56.8632C57.498 36.6958 58.0108 37.2085 58.0108 37.8433C58.0108 38.4781 57.498 38.9908 56.8632 38.9908Z" fill="black"/>
<path id="_300421648" fill-rule="evenodd" clip-rule="evenodd" d="M35.5233 33.1068H16.6749C16.0401 33.1068 15.5273 32.5941 15.5273 31.9593C15.5273 31.3245 16.0401 30.8118 16.6749 30.8118H35.5233C36.1581 30.8118 36.6708 31.3245 36.6708 31.9593C36.6708 32.5941 36.1581 33.1068 35.5233 33.1068Z" fill="black"/>
<path id="_300421456" fill-rule="evenodd" clip-rule="evenodd" d="M17.8224 55.7639H34.3758V45.3387H17.8224V55.7639ZM35.5233 58.0834H16.6749C16.0401 58.0834 15.5273 57.5707 15.5273 56.9359V44.1912C15.5273 43.5564 16.0401 43.0437 16.6749 43.0437H35.5233C36.1581 43.0437 36.6708 43.5564 36.6708 44.1912V56.9359C36.6708 57.5707 36.1581 58.0834 35.5233 58.0834Z" fill="black"/>
<path id="_300421480" fill-rule="evenodd" clip-rule="evenodd" d="M45.9729 51.711H40.3331C39.6983 51.711 39.1855 51.1983 39.1855 50.5635C39.1855 49.9287 39.6983 49.416 40.3331 49.416H45.9729C46.6077 49.416 47.1204 49.9287 47.1204 50.5635C47.1204 51.1983 46.6077 51.711 45.9729 51.711Z" fill="black"/>
<path id="_300422080" fill-rule="evenodd" clip-rule="evenodd" d="M65.7735 58.0833H40.3331C39.6983 58.0833 39.1855 57.5706 39.1855 56.9358C39.1855 56.301 39.6983 55.7883 40.3331 55.7883H65.7735C66.4083 55.7883 66.9211 56.301 66.9211 56.9358C66.9455 57.5706 66.4328 58.0833 65.7735 58.0833Z" fill="black"/>
<path id="_300421432" fill-rule="evenodd" clip-rule="evenodd" d="M61.5253 64.4557H16.6749C16.0401 64.4557 15.5273 63.9429 15.5273 63.3081C15.5273 62.6734 16.0401 62.1606 16.6749 62.1606H61.5253C62.1601 62.1606 62.6728 62.6734 62.6728 63.3081C62.6728 63.9429 62.1601 64.4557 61.5253 64.4557Z" fill="black"/>
<path id="_300420712" fill-rule="evenodd" clip-rule="evenodd" d="M61.5253 70.828H16.6749C16.0401 70.828 15.5273 70.3153 15.5273 69.6805C15.5273 69.0457 16.0401 68.533 16.6749 68.533H61.5253C62.1601 68.533 62.6728 69.0457 62.6728 69.6805C62.6728 70.3153 62.1601 70.828 61.5253 70.828Z" fill="black"/>
<path id="_300421264" fill-rule="evenodd" clip-rule="evenodd" d="M37.6962 77.2003H16.6749C16.0401 77.2003 15.5273 76.6876 15.5273 76.0528C15.5273 75.418 16.0401 74.9053 16.6749 74.9053H37.6962C38.331 74.9053 38.8437 75.418 38.8437 76.0528C38.8437 76.6876 38.331 77.2003 37.6962 77.2003Z" fill="black"/>
<path id="_300421024" fill-rule="evenodd" clip-rule="evenodd" d="M37.6962 83.5726H16.6749C16.0401 83.5726 15.5273 83.0599 15.5273 82.4251C15.5273 81.7903 16.0401 81.2776 16.6749 81.2776H37.6962C38.331 81.2776 38.8437 81.7903 38.8437 82.4251C38.8437 83.0599 38.331 83.5726 37.6962 83.5726Z" fill="black"/>
<path id="_300420568" fill-rule="evenodd" clip-rule="evenodd" d="M45.9729 45.3387H40.3331C39.6983 45.3387 39.1855 44.826 39.1855 44.1912C39.1855 43.5564 39.6983 43.0437 40.3331 43.0437H45.9729C46.6077 43.0437 47.1204 43.5564 47.1204 44.1912C47.1204 44.826 46.6077 45.3387 45.9729 45.3387Z" fill="black"/>
<path id="_300420952" fill-rule="evenodd" clip-rule="evenodd" d="M58.1569 85.3306H48.2444C45.0704 85.3306 42.4824 82.7426 42.4824 79.5686C42.4824 76.3947 45.0704 73.8067 48.2444 73.8067H69.4855C67.8741 67.7029 67.2637 64.8952 69.8761 57.1312C71.1945 53.2248 74.8568 50.588 77.8843 51.3937C78.9341 51.6622 82.2301 53.1271 80.8141 60.1098C80.1304 63.5035 81.5465 66.9949 82.8161 70.0956C83.3776 71.4628 83.8904 72.6836 84.1589 73.8311H88.7978C89.4326 73.8311 89.9453 74.3438 89.9453 74.9786C89.9453 75.6134 89.4326 76.1261 88.7978 76.1261H83.2067C82.6208 76.1261 82.1325 75.6866 82.0592 75.1007C81.9127 74.002 81.3024 72.5371 80.6676 70.9501C79.3492 67.7273 77.6889 63.7233 78.519 59.6215C79.2027 56.3011 78.7144 54.0061 77.2495 53.6154C75.6137 53.176 73.0257 54.885 72.0491 57.8392C69.5831 65.2126 70.1935 67.5564 71.8781 73.8311L72.0979 74.6612C72.1955 75.003 72.1223 75.3692 71.9026 75.6622C71.6828 75.9552 71.341 76.1261 70.9748 76.1261H48.22C46.3156 76.1261 44.7774 77.6642 44.7774 79.5686C44.7774 81.473 46.3156 83.0112 48.22 83.0112H58.1325C58.7673 83.0112 59.28 83.5239 59.28 84.1587C59.3288 84.8179 58.7917 85.3306 58.1569 85.3306ZM77.3227 112.968H52.1752C49.0012 112.968 46.4132 110.38 46.4132 107.206C46.4132 104.033 49.0012 101.445 52.1752 101.445H58.1813C58.8161 101.445 59.3288 101.957 59.3288 102.592C59.3288 103.227 58.8161 103.74 58.1813 103.74H52.1752C50.2708 103.74 48.7327 105.278 48.7327 107.182C48.7327 109.086 50.2708 110.625 52.1752 110.625H77.3471C78.7388 110.625 79.9351 110.161 80.985 109.233L83.9636 106.572C84.1833 106.376 84.4519 106.279 84.7449 106.279H88.8466C89.4814 106.279 89.9941 106.791 89.9941 107.426C89.9941 108.061 89.4814 108.574 88.8466 108.574H85.1844L82.5475 110.942C81.0338 112.309 79.3003 112.968 77.3227 112.968Z" fill="black"/>
<path id="_300421144" fill-rule="evenodd" clip-rule="evenodd" d="M89.9688 109.55H107.987V72.8546H89.9688V109.55ZM109.135 111.87H88.8213C88.1865 111.87 87.6738 111.357 87.6738 110.722V71.7315C87.6738 71.0967 88.1865 70.584 88.8213 70.584H109.135C109.769 70.584 110.282 71.0967 110.282 71.7315V110.722C110.282 111.333 109.769 111.87 109.135 111.87Z" fill="black"/>
<path id="_300420928" fill-rule="evenodd" clip-rule="evenodd" d="M48.2436 94.5351H44.4104C41.2364 94.5351 38.6484 91.9471 38.6484 88.7732C38.6484 85.5992 41.2364 83.0112 44.4104 83.0112H48.2436C48.8783 83.0112 49.3911 83.5239 49.3911 84.1587C49.3911 84.7935 48.8783 85.3062 48.2436 85.3062H44.4104C42.506 85.3062 40.9679 86.8444 40.9679 88.7488C40.9679 90.6531 42.506 92.1913 44.4104 92.1913H48.2436C48.8783 92.1913 49.3911 92.704 49.3911 93.3388C49.3911 94.0224 48.8783 94.5351 48.2436 94.5351Z" fill="black"/>
<path id="_300421168" fill-rule="evenodd" clip-rule="evenodd" d="M55.0796 103.764H48.219C45.045 103.764 42.457 101.176 42.457 98.0019C42.457 94.828 45.045 92.24 48.219 92.24H58.1315C58.7663 92.24 59.279 92.7527 59.279 93.3875C59.279 94.0223 58.7663 94.535 58.1315 94.535H48.219C46.3146 94.535 44.7765 96.0732 44.7765 97.9775C44.7765 99.8819 46.3146 101.42 48.219 101.42H55.0796C55.7144 101.42 56.2271 101.933 56.2271 102.568C56.2515 103.251 55.7388 103.764 55.0796 103.764Z" fill="black"/>
<path id="_300421096" fill-rule="evenodd" clip-rule="evenodd" d="M60.6715 9.35092V33.0335C60.6715 33.2288 60.6227 33.4242 60.525 33.5951L53.347 46.5839L65.5057 36.7446C65.701 36.5737 65.9696 36.476 66.2382 36.476H107.964V9.35092H60.6715ZM49.4894 52.3458C49.2209 52.3458 48.9523 52.2482 48.757 52.0773C48.3419 51.711 48.2199 51.1251 48.4884 50.6368L58.3521 32.7161V8.179C58.3521 7.54421 58.8648 7.03149 59.4996 7.03149H109.111C109.746 7.03149 110.259 7.54421 110.259 8.179V37.6236C110.259 38.2584 109.746 38.7711 109.111 38.7711H66.6288L50.1975 52.0773C50.0022 52.2726 49.7336 52.3458 49.4894 52.3458Z" fill="black"/>
<path id="_300420592" fill-rule="evenodd" clip-rule="evenodd" d="M65.799 22.4131L67.0197 23.585C67.2883 23.8536 67.4348 24.2442 67.3615 24.6349L67.0685 26.3195L68.5579 25.5138C68.8997 25.3429 69.3147 25.3429 69.6565 25.5138L71.1458 26.3195L70.8529 24.6349C70.7796 24.2442 70.9017 23.8536 71.1947 23.585L72.4154 22.4131L70.7308 22.1934C70.3402 22.1445 70.0228 21.9004 69.8519 21.5586L69.1194 20.0204L68.387 21.5586C68.216 21.9004 67.8986 22.1445 67.508 22.1934L65.799 22.4131ZM72.7328 29.6155C72.5375 29.6155 72.3666 29.5667 72.1957 29.469L69.1438 27.8332L66.0919 29.469C65.7013 29.6888 65.2374 29.64 64.8712 29.3958C64.505 29.1272 64.334 28.6878 64.4073 28.2483L65.0177 24.8302L62.5029 22.4375C62.1855 22.1201 62.0635 21.6562 62.2099 21.2412C62.3564 20.8261 62.7227 20.5087 63.1621 20.4599L66.6046 19.996L68.1184 16.8709C68.3137 16.4802 68.7043 16.2117 69.1682 16.2117C69.6077 16.2117 70.0228 16.4558 70.2181 16.8709L71.7318 19.996L75.1743 20.4599C75.6138 20.5087 75.98 20.8261 76.1265 21.2412C76.273 21.6562 76.1509 22.1201 75.8335 22.4375L73.3188 24.8302L73.9292 28.2483C74.0024 28.6878 73.8315 29.1272 73.4653 29.3958C73.1967 29.5423 72.977 29.6155 72.7328 29.6155Z" fill="black"/>
<path id="_300419872" fill-rule="evenodd" clip-rule="evenodd" d="M81.0089 22.4131L82.2297 23.585C82.4982 23.8536 82.6447 24.2442 82.5715 24.6349L82.2785 26.3195L83.7922 25.5138C84.134 25.3429 84.5491 25.3429 84.8909 25.5138L86.3802 26.3195L86.0872 24.6349C86.014 24.2442 86.1361 23.8536 86.4291 23.585L87.6498 22.4131L85.9652 22.1934C85.5745 22.1445 85.2571 21.9004 85.0862 21.5586L84.3538 20.0204L83.6213 21.5586C83.4504 21.9004 83.1086 22.1445 82.7424 22.1934L81.0089 22.4131ZM87.9184 29.6155C87.7231 29.6155 87.5521 29.5667 87.3812 29.469L84.3294 27.8332L81.2775 29.469C80.8868 29.6888 80.3985 29.64 80.0567 29.3958C79.6905 29.1272 79.5196 28.6878 79.5928 28.2483L80.2032 24.8302L77.6885 22.4375C77.3711 22.1201 77.249 21.6562 77.3955 21.2412C77.542 20.8261 77.9082 20.5087 78.3477 20.4599L81.7902 19.996L83.2551 16.8465C83.4504 16.4558 83.8411 16.1873 84.3049 16.1873C84.7444 16.1873 85.1595 16.4314 85.3548 16.8465L86.8685 19.9716L90.311 20.4355C90.7505 20.4843 91.1167 20.8017 91.2632 21.2168C91.4097 21.6318 91.2877 22.0957 90.9703 22.4131L88.4555 24.8058L89.0659 28.2239C89.1391 28.6633 88.9682 29.1028 88.602 29.3714C88.4067 29.5423 88.1625 29.6155 87.9184 29.6155Z" fill="black"/>
<path id="_300419800" fill-rule="evenodd" clip-rule="evenodd" d="M96.1945 22.4131L97.4152 23.585C97.6838 23.8536 97.8303 24.2442 97.757 24.6349L97.464 26.3195L98.9778 25.5138C99.3196 25.3429 99.7346 25.3429 100.076 25.5138L101.59 26.3195L101.297 24.6349C101.224 24.2442 101.346 23.8536 101.639 23.585L102.86 22.4131L101.175 22.1934C100.784 22.1445 100.467 21.9004 100.296 21.5586L99.5637 20.0204L98.8313 21.5586C98.6604 21.9004 98.3186 22.1445 97.9523 22.1934L96.1945 22.4131ZM103.104 29.6155C102.909 29.6155 102.738 29.5667 102.567 29.469L99.5149 27.8332L96.463 29.469C96.0724 29.6888 95.5841 29.64 95.2423 29.3958C94.876 29.1272 94.7051 28.6878 94.7784 28.2483L95.3888 24.8302L92.874 22.4375C92.5566 22.1201 92.4345 21.6562 92.581 21.2412C92.7275 20.8261 93.0938 20.5087 93.5332 20.4599L96.9757 19.996L98.4895 16.8709C98.6848 16.4802 99.0754 16.2117 99.5393 16.2117C99.9788 16.2117 100.394 16.4558 100.589 16.8709L102.103 19.996L105.545 20.4599C105.985 20.5087 106.351 20.8261 106.498 21.2412C106.644 21.6562 106.522 22.1201 106.205 22.4375L103.69 24.8302L104.3 28.2483C104.374 28.6878 104.203 29.1272 103.836 29.3958C103.592 29.5423 103.348 29.6155 103.104 29.6155Z" fill="black"/>
</g>
</g>
</g>
</svg>
